<svg width="96" height="97" viewBox="0 0 96 97" fill="none" xmlns="http://www.w3.org/2000/svg">
<path d="M39.4999 12.75L21.4999 70C19.0915 77.6602 22.9964 77.3584 25.2499 76.2499L80.7499 44.5C74.5499 18.3 50.6666 12.4166 39.4999 12.75Z" fill="#FCBD42"/>
<path fill-rule="evenodd" clip-rule="evenodd" d="M37.592 12.1501C37.8474 11.3378 38.5891 10.7763 39.4402 10.7509C51.0731 10.4037 76.1827 16.515 82.6962 44.0395C82.9003 44.902 82.5124 45.7959 81.743 46.236L26.243 77.986C26.2069 78.0067 26.1701 78.0263 26.1327 78.0446C25.4191 78.3956 24.5188 78.7139 23.5734 78.8084C22.6405 78.9016 21.4308 78.7938 20.3995 77.9925C19.3287 77.1605 18.8418 75.8893 18.7566 74.4853C18.6731 73.11 18.9543 71.4284 19.592 69.4002L37.592 12.1501ZM21.4999 70L39.4999 12.75C50.6666 12.4167 74.5499 18.3 80.7499 44.5L25.2499 76.25C22.9964 77.3584 19.0915 77.6603 21.4999 70Z" fill="#CC8026"/>
<path d="M20.7433 87.75V74.375C21.3933 75.175 23.5141 74.375 24.4933 74.875V87.75C24.4933 88.875 23.8058 91.25 22.2433 90.5625C20.9933 90.0125 20.7224 88.4583 20.7433 87.75Z" fill="#FCBD41"/>
<path d="M49.8058 66.0419V52.6669C50.4558 53.4669 52.5766 54.6669 53.5558 55.1669V66.0419C53.5558 67.1669 52.8683 69.5419 51.3058 68.8544C50.0558 68.3044 49.7849 66.7502 49.8058 66.0419Z" fill="#FCBD41"/>
<path d="M26.4312 80.0625V66.6875C27.364 67.4875 30.4073 68.6875 31.8124 69.1875V80.0625C31.8124 81.1875 30.8259 83.5625 28.5837 82.875C26.79 82.325 26.4014 80.7708 26.4312 80.0625Z" fill="#FCBD41"/>
<path d="M80.6562 44.4688C74.4562 18.2687 50.2292 12.1667 39.0625 12.5C39.0625 12.5 37.5198 12.75 36.5624 14.9375C35.605 17.125 37.1248 18.6875 37.1248 18.6875C44.6665 17.3125 62.6812 21.6437 73.7812 48.3438C75.2062 47.4688 78.625 45.2708 80.6562 44.4688Z" fill="#FFCD6C"/>
<path fill-rule="evenodd" clip-rule="evenodd" d="M38.7426 10.5258C38.8287 10.5118 38.9156 10.5035 39.0028 10.5009C44.9173 10.3243 54.1403 11.8387 62.7232 16.8031C71.3671 21.8027 79.3606 30.3086 82.6025 44.0082C82.8314 44.9754 82.3153 45.9639 81.3908 46.3289C79.8236 46.9478 77.2328 48.5563 75.5561 49.5973C75.2871 49.7643 75.0417 49.9167 74.8278 50.0481C74.3293 50.3541 73.7218 50.4267 73.1653 50.2465C72.6088 50.0664 72.159 49.6516 71.9345 49.1115C61.1169 23.0907 43.9111 19.4832 37.4835 20.6551C36.8279 20.7746 36.1558 20.5597 35.6911 20.082L37.1248 18.6875C44.4881 17.345 61.8349 21.442 72.9822 46.4864C73.2523 47.0932 73.5187 47.7122 73.7813 48.3437C73.9733 48.2258 74.2016 48.0838 74.4579 47.9245C74.7698 47.7304 75.1232 47.5107 75.5031 47.2771C77.126 46.2795 79.2321 45.0311 80.6563 44.4687C74.4563 18.2687 50.2292 12.1667 39.0625 12.5L38.7426 10.5258ZM39.0625 12.5C39.0625 12.5 37.5198 12.75 36.5624 14.9375C35.605 17.125 37.1248 18.6875 37.1248 18.6875C35.6911 20.082 35.6904 20.0813 35.6897 20.0805L35.6883 20.0791L35.6853 20.076L35.6789 20.0693L35.6643 20.0539C35.6539 20.0428 35.6419 20.03 35.6286 20.0153C35.602 19.9861 35.5699 19.9497 35.5333 19.9065C35.4604 19.8202 35.3689 19.7049 35.2683 19.5625C35.0692 19.2804 34.8234 18.8752 34.6225 18.3626C34.2089 17.3075 33.9979 15.8087 34.7302 14.1356C35.3654 12.6843 36.245 11.7775 37.0643 11.2329C37.4651 10.9664 37.8345 10.7978 38.1273 10.6921C38.2737 10.6392 38.4015 10.6019 38.5053 10.5757C38.5573 10.5626 38.6035 10.5523 38.6431 10.5441C38.663 10.54 38.6813 10.5365 38.6978 10.5335L38.7215 10.5293L38.7323 10.5274L38.7375 10.5266L38.7401 10.5262C38.7413 10.526 38.7426 10.5258 39.0625 12.5Z" fill="#CC8026"/>
<path d="M81.1562 44.3125L73.75 48.4375C73.75 47.2396 74.2364 44.5322 76.625 43.3125C79.5625 41.8125 80.8333 43.8646 81.1562 44.3125Z" fill="#CC8026"/>
<path fill-rule="evenodd" clip-rule="evenodd" d="M37.6249 16.375C37.6249 15.8227 38.0727 15.375 38.6249 15.375C40.4925 15.375 44.6926 15.5669 49.3553 16.7906C54.0088 18.0118 59.2204 20.2864 62.9964 24.5221C63.3639 24.9343 63.3276 25.5664 62.9154 25.934C62.5031 26.3015 61.871 26.2652 61.5035 25.8529C58.092 22.0261 53.3036 19.8945 48.8477 18.7251C44.401 17.5581 40.3824 17.375 38.6249 17.375C38.0727 17.375 37.6249 16.9273 37.6249 16.375Z" fill="#FFDC98"/>
<path fill-rule="evenodd" clip-rule="evenodd" d="M38.2499 13.3082C38.2523 12.7559 38.702 12.3101 39.2542 12.3125C44.1901 12.3337 54.93 13.317 63.9439 19.5526C73.3313 26.0467 78.8375 36.2332 81.0678 42.5417C81.2518 43.0624 80.979 43.6337 80.4583 43.8178C79.9376 44.0019 79.3662 43.729 79.1821 43.2083C77.0374 37.1418 71.7334 27.3732 62.806 21.1974C54.2782 15.298 44.0182 14.333 39.2456 14.3125C38.6934 14.3101 38.2476 13.8605 38.2499 13.3082Z" fill="#FAA036"/>
<path fill-rule="evenodd" clip-rule="evenodd" d="M28.2812 70.0625C28.8335 70.0625 29.2812 70.5102 29.2812 71.0625V79.5625C29.2812 80.1148 28.8335 80.5625 28.2812 80.5625C27.7289 80.5625 27.2812 80.1148 27.2812 79.5625V71.0625C27.2812 70.5102 27.7289 70.0625 28.2812 70.0625Z" fill="#FFCE6E"/>
<path fill-rule="evenodd" clip-rule="evenodd" d="M51.3365 57.9828C51.8888 57.9828 52.3365 58.4305 52.3365 58.9828V65.4828C52.3365 66.0351 51.8888 66.4828 51.3365 66.4828C50.7842 66.4828 50.3365 66.0351 50.3365 65.4828V58.9828C50.3365 58.4305 50.7842 57.9828 51.3365 57.9828Z" fill="#FFCE6E"/>
<path fill-rule="evenodd" clip-rule="evenodd" d="M22.3124 73.9977C22.5886 73.9977 22.8124 74.2215 22.8124 74.4977V85.125C22.8124 85.4011 22.5886 85.625 22.3124 85.625C22.0363 85.625 21.8124 85.4011 21.8124 85.125V74.4977C21.8124 74.2215 22.0363 73.9977 22.3124 73.9977Z" fill="#FFCE6E"/>
<path d="M51.4248 26.5415C51.1296 27.1846 50.2433 27.4089 49.4451 27.0425C48.647 26.6762 48.2392 25.8578 48.5344 25.2147C48.8296 24.5716 49.716 24.3473 50.5141 24.7137C51.3123 25.08 51.72 25.8984 51.4248 26.5415Z" fill="#F6A60B"/>
<path d="M57.5137 31.2436C57.2185 31.8867 56.3321 32.111 55.534 31.7447C54.7358 31.3783 54.3281 30.56 54.6233 29.9169C54.9185 29.2738 55.8048 29.0494 56.603 29.4158C57.4011 29.7822 57.8088 30.6005 57.5137 31.2436Z" fill="#F6A60B"/>
<path d="M51.2806 33.9133C50.9854 34.5564 50.099 34.7807 49.3009 34.4144C48.5027 34.048 48.095 33.2297 48.3902 32.5866C48.6854 31.9435 49.5717 31.7191 50.3699 32.0855C51.168 32.4519 51.5758 33.2702 51.2806 33.9133Z" fill="#F6A60B"/>
<path d="M44.4056 30.5415C44.1104 31.1846 43.224 31.4089 42.4259 31.0425C41.6277 30.6762 41.22 29.8578 41.5152 29.2147C41.8104 28.5716 42.6967 28.3473 43.4949 28.7137C44.293 29.08 44.7008 29.8984 44.4056 30.5415Z" fill="#F6A60B"/>
<path d="M46.4807 25.0339C46.0735 25.921 44.8509 26.2305 43.75 25.7251C42.649 25.2197 42.0866 24.0909 42.4938 23.2039C42.901 22.3168 44.1236 22.0073 45.2245 22.5127C46.3255 23.0181 46.8879 24.1469 46.4807 25.0339Z" fill="#F6A60B"/>
<path d="M52.3065 30.6314C52.0984 31.0848 51.4735 31.243 50.9108 30.9847C50.348 30.7264 50.0606 30.1494 50.2687 29.696C50.4768 29.2426 51.1017 29.0844 51.6645 29.3427C52.2272 29.601 52.5147 30.178 52.3065 30.6314Z" fill="#F6A60B"/>
<path d="M58.4982 35.9493C58.29 36.4027 57.6651 36.5609 57.1024 36.3025C56.5397 36.0442 56.2522 35.4673 56.4603 35.0139C56.6685 34.5604 57.2934 34.4023 57.8561 34.6606C58.4188 34.9189 58.7063 35.4959 58.4982 35.9493Z" fill="#F6A60B"/>
<path d="M40.9628 25.4439C40.7546 25.8973 40.1297 26.0555 39.567 25.7972C39.0043 25.5389 38.7168 24.9619 38.9249 24.5085C39.1331 24.0551 39.758 23.8969 40.3207 24.1552C40.8834 24.4135 41.1709 24.9905 40.9628 25.4439Z" fill="#F6A60B"/>
<path d="M54.316 27.7868C54.1691 28.1069 53.728 28.2185 53.3308 28.0362C52.9337 27.8539 52.7308 27.4466 52.8777 27.1266C53.0246 26.8066 53.4656 26.6949 53.8628 26.8772C54.26 27.0596 54.4629 27.4668 54.316 27.7868Z" fill="#F6A60B"/>
<path d="M49.1723 29.205C49.0254 29.5251 48.5843 29.6367 48.1871 29.4544C47.7899 29.2721 47.587 28.8648 47.7339 28.5448C47.8809 28.2248 48.3219 28.1131 48.7191 28.2955C49.1163 28.4778 49.3192 28.885 49.1723 29.205Z" fill="#F6A60B"/>
<path d="M45.8328 28.0461C45.6859 28.3661 45.2448 28.4778 44.8476 28.2955C44.4504 28.1131 44.2475 27.7059 44.3944 27.3859C44.5413 27.0658 44.9824 26.9542 45.3796 27.1365C45.7768 27.3188 45.9797 27.7261 45.8328 28.0461Z" fill="#F6A60B"/>
<path d="M40.8585 22.5774C40.7116 22.8974 40.2706 23.009 39.8734 22.8267C39.4762 22.6444 39.2733 22.2371 39.4202 21.9171C39.5671 21.5971 40.0082 21.4854 40.4054 21.6678C40.8026 21.8501 41.0055 22.2573 40.8585 22.5774Z" fill="#F6A60B"/>
<path d="M46.952 31.6607C46.8051 31.9808 46.364 32.0924 45.9668 31.9101C45.5696 31.7278 45.3667 31.3205 45.5136 31.0005C45.6605 30.6805 46.1016 30.5688 46.4988 30.7511C46.896 30.9335 47.0989 31.3407 46.952 31.6607Z" fill="#F6A60B"/>
<path d="M54.808 33.3615C54.6611 33.6816 54.22 33.7932 53.8228 33.6109C53.4256 33.4286 53.2227 33.0213 53.3696 32.7013C53.5165 32.3813 53.9576 32.2696 54.3548 32.4519C54.752 32.6343 54.9549 33.0415 54.808 33.3615Z" fill="#F6A60B"/>
<path d="M44.6647 34.6175C44.5178 34.9375 44.0768 35.0492 43.6796 34.8669C43.2824 34.6845 43.0795 34.2773 43.2264 33.9573C43.3733 33.6372 43.8144 33.5256 44.2115 33.7079C44.6087 33.8902 44.8116 34.2975 44.6647 34.6175Z" fill="#F6A60B"/>
<path d="M40.0627 27.9C39.9158 28.22 39.4748 28.3317 39.0776 28.1493C38.6804 27.967 38.4775 27.5598 38.6244 27.2397C38.7713 26.9197 39.2124 26.8081 39.6096 26.9904C40.0067 27.1727 40.2096 27.58 40.0627 27.9Z" fill="#F6A60B"/>
<path d="M41.8437 34.2712C41.6968 34.5912 41.2557 34.7029 40.8586 34.5205C40.4614 34.3382 40.2585 33.931 40.4054 33.611C40.5523 33.2909 40.9933 33.1793 41.3905 33.3616C41.7877 33.5439 41.9906 33.9512 41.8437 34.2712Z" fill="#F6A60B"/>
<path d="M47.0784 36.851C46.9315 37.1711 46.4905 37.2827 46.0933 37.1004C45.6961 36.9181 45.4932 36.5108 45.6401 36.1908C45.787 35.8708 46.2281 35.7591 46.6252 35.9414C47.0224 36.1238 47.2253 36.531 47.0784 36.851Z" fill="#F6A60B"/>
<path d="M60.4468 33.1123C60.2999 33.4323 59.8588 33.5439 59.4616 33.3616C59.0644 33.1793 58.8615 32.7721 59.0084 32.452C59.1553 32.132 59.5964 32.0204 59.9936 32.2027C60.3908 32.385 60.5937 32.7922 60.4468 33.1123Z" fill="#F6A60B"/>
<path fill-rule="evenodd" clip-rule="evenodd" d="M26.8645 53.0011C27.4783 53.1502 28.1219 53.2295 28.7851 53.2295C33.0268 53.2295 36.4653 49.9855 36.4653 45.9839C36.4653 42.789 34.2734 40.0771 31.2309 39.1135L26.8645 53.0011Z" fill="#A63D3D"/>
<path fill-rule="evenodd" clip-rule="evenodd" d="M28.5458 51.2717C28.9782 51.3882 29.4318 51.4516 29.8997 51.4546C32.8931 51.4739 35.3356 49.0147 35.3552 45.9618C35.3709 43.5245 33.8376 41.4456 31.6954 40.6966L28.5458 51.2717Z" fill="#C73F3F"/>
<path d="M32.3054 48.9999C32.3054 49.5228 31.867 49.9466 31.3263 49.9466C30.7856 49.9466 30.3472 49.5228 30.3472 48.9999C30.3472 48.4771 30.7856 48.0532 31.3263 48.0532C31.867 48.0532 32.3054 48.4771 32.3054 48.9999Z" fill="#FFE5E5"/>
<path d="M31.9668 44.406C31.9668 44.748 31.6801 45.0253 31.3264 45.0253C30.9727 45.0253 30.686 44.748 30.686 44.406C30.686 44.064 30.9727 43.7867 31.3264 43.7867C31.6801 43.7867 31.9668 44.064 31.9668 44.406Z" fill="#FFE5E5"/>
<path d="M34.8124 45.1688C34.8124 45.5108 34.5257 45.7881 34.172 45.7881C33.8183 45.7881 33.5316 45.5108 33.5316 45.1688C33.5316 44.8268 33.8183 44.5496 34.172 44.5496C34.5257 44.5496 34.8124 44.8268 34.8124 45.1688Z" fill="#FFE5E5"/>
<path d="M60.1808 40.1434C60.1808 43.9505 56.9093 47.0368 52.8738 47.0368C48.8382 47.0368 45.5668 43.9505 45.5668 40.1434C45.5668 36.3363 48.8382 33.25 52.8738 33.25C56.9093 33.25 60.1808 36.3363 60.1808 40.1434Z" fill="#A63D3D"/>
<path d="M58.1213 40.2126C58.1213 43.2323 55.5898 45.6802 52.4669 45.6802C49.344 45.6802 46.8124 43.2323 46.8124 40.2126C46.8124 37.193 49.344 34.7451 52.4669 34.7451C55.5898 34.7451 58.1213 37.193 58.1213 40.2126Z" fill="#C73F3F"/>
<path d="M50.4424 41.2078C50.4424 41.7307 50.004 42.1545 49.4633 42.1545C48.9226 42.1545 48.4842 41.7307 48.4842 41.2078C48.4842 40.685 48.9226 40.2611 49.4633 40.2611C50.004 40.2611 50.4424 40.685 50.4424 41.2078Z" fill="#FFE5E5"/>
<path d="M51.4663 36.7703C51.4663 37.2932 51.028 37.717 50.4872 37.717C49.9465 37.717 49.5082 37.2932 49.5082 36.7703C49.5082 36.2475 49.9465 35.8236 50.4872 35.8236C51.028 35.8236 51.4663 36.2475 51.4663 36.7703Z" fill="#FFE5E5"/>
<path d="M56.4496 37.5072C56.4496 37.9142 56.1083 38.2441 55.6874 38.2441C55.2665 38.2441 54.9253 37.9142 54.9253 37.5072C54.9253 37.1002 55.2665 36.7703 55.6874 36.7703C56.1083 36.7703 56.4496 37.1002 56.4496 37.5072Z" fill="#FFE5E5"/>
<path d="M56.4496 41.2078C56.4496 41.8976 55.8712 42.4568 55.1578 42.4568C54.4444 42.4568 53.8661 41.8976 53.8661 41.2078C53.8661 40.518 54.4444 39.9587 55.1578 39.9587C55.8712 39.9587 56.4496 40.518 56.4496 41.2078Z" fill="#FFE5E5"/>
<path d="M53.4006 44.024C53.4006 44.4453 53.0474 44.7868 52.6117 44.7868C52.176 44.7868 51.8228 44.4453 51.8228 44.024C51.8228 43.6026 52.176 43.2611 52.6117 43.2611C53.0474 43.2611 53.4006 43.6026 53.4006 44.024Z" fill="#FFE5E5"/>
<path fill-rule="evenodd" clip-rule="evenodd" d="M49.0262 62.6472C47.7381 60.3639 45.19 58.8094 42.257 58.8094C38.0247 58.8094 34.5937 62.0462 34.5937 66.039C34.5937 67.5589 35.0909 68.9693 35.9402 70.1333L49.0262 62.6472Z" fill="#A63D3D"/>
<path fill-rule="evenodd" clip-rule="evenodd" d="M46.747 62.9275C45.7721 61.1994 43.8434 60.0228 41.6235 60.0228C38.4201 60.0228 35.8232 62.4727 35.8232 65.4947C35.8232 66.6452 36.1996 67.7127 36.8424 68.5937L46.747 62.9275Z" fill="#C73F3F"/>
<path d="M39.998 61.6031C39.998 61.9452 39.7113 62.2224 39.3576 62.2224C39.0039 62.2224 38.7171 61.9452 38.7171 61.6031C38.7171 61.2611 39.0039 60.9839 39.3576 60.9839C39.7113 60.9839 39.998 61.2611 39.998 61.6031Z" fill="#FFE5E5"/>
<path d="M38.4906 64.8634C38.4906 65.2054 38.2039 65.4827 37.8502 65.4827C37.4965 65.4827 37.2097 65.2054 37.2097 64.8634C37.2097 64.5214 37.4965 64.2441 37.8502 64.2441C38.2039 64.2441 38.4906 64.5214 38.4906 64.8634Z" fill="#FFE5E5"/>
<path d="M44.1753 61.9374C44.1753 62.4603 43.7369 62.8841 43.1962 62.8841C42.6555 62.8841 42.2171 62.4603 42.2171 61.9374C42.2171 61.4146 42.6555 60.9907 43.1962 60.9907C43.7369 60.9907 44.1753 61.4146 44.1753 61.9374Z" fill="#FFE5E5"/>
<path d="M42.4999 31.7059C42.4999 33.2694 41.1988 34.5368 39.5937 34.5368C37.9886 34.5368 36.6874 33.2694 36.6874 31.7059C36.6874 30.1424 37.9886 28.875 39.5937 28.875C41.1988 28.875 42.4999 30.1424 42.4999 31.7059Z" fill="#45B21F"/>
<path fill-rule="evenodd" clip-rule="evenodd" d="M44.4999 31.7059C44.4999 34.4231 42.2535 36.5368 39.5937 36.5368C36.9339 36.5368 34.6874 34.4231 34.6874 31.7059C34.6874 28.9887 36.9339 26.875 39.5937 26.875C42.2535 26.875 44.4999 28.9887 44.4999 31.7059ZM39.5937 34.5368C41.1988 34.5368 42.4999 33.2694 42.4999 31.7059C42.4999 30.1424 41.1988 28.875 39.5937 28.875C37.9886 28.875 36.6874 30.1424 36.6874 31.7059C36.6874 33.2694 37.9886 34.5368 39.5937 34.5368Z" fill="#FFD98E"/>
<path d="M45.9439 50.9062C45.9439 52.7875 44.3755 54.3125 42.4407 54.3125C40.5059 54.3125 38.9374 52.7875 38.9374 50.9062C38.9374 49.025 40.5059 47.5 42.4407 47.5C44.3755 47.5 45.9439 49.025 45.9439 50.9062Z" fill="#45B21F"/>
<path fill-rule="evenodd" clip-rule="evenodd" d="M47.9439 50.9062C47.9439 53.9446 45.4267 56.3125 42.4407 56.3125C39.4546 56.3125 36.9374 53.9446 36.9374 50.9062C36.9374 47.8679 39.4546 45.5 42.4407 45.5C45.4267 45.5 47.9439 47.8679 47.9439 50.9062ZM42.4407 54.3125C44.3755 54.3125 45.9439 52.7875 45.9439 50.9062C45.9439 49.025 44.3755 47.5 42.4407 47.5C40.5059 47.5 38.9374 49.025 38.9374 50.9062C38.9374 52.7875 40.5059 54.3125 42.4407 54.3125Z" fill="#FFD98E"/>
<path d="M43.82 50.3685C43.82 51.3589 42.9943 52.1618 41.9757 52.1618C40.9572 52.1618 40.1314 51.3589 40.1314 50.3685C40.1314 49.3782 40.9572 48.5753 41.9757 48.5753C42.9943 48.5753 43.82 49.3782 43.82 50.3685Z" fill="#47E310"/>
<path d="M40.1394 31.0813C40.1394 31.7267 39.6012 32.2499 38.9374 32.2499C38.2736 32.2499 37.7355 31.7267 37.7355 31.0813C37.7355 30.4358 38.2736 29.9126 38.9374 29.9126C39.6012 29.9126 40.1394 30.4358 40.1394 31.0813Z" fill="#47E310"/>
<path d="M67.1887 47.1986C67.1887 48.4412 66.1545 49.4486 64.8788 49.4486C63.6031 49.4486 62.5689 48.4412 62.5689 47.1986C62.5689 45.956 63.6031 44.9486 64.8788 44.9486C66.1545 44.9486 67.1887 45.956 67.1887 47.1986Z" fill="#F86512"/>
<path fill-rule="evenodd" clip-rule="evenodd" d="M69.1887 47.1986C69.1887 49.595 67.2092 51.4486 64.8788 51.4486C62.5484 51.4486 60.5689 49.595 60.5689 47.1986C60.5689 44.8022 62.5484 42.9486 64.8788 42.9486C67.2092 42.9486 69.1887 44.8022 69.1887 47.1986ZM64.8788 49.4486C66.1545 49.4486 67.1887 48.4412 67.1887 47.1986C67.1887 45.956 66.1545 44.9486 64.8788 44.9486C63.6031 44.9486 62.5689 45.956 62.5689 47.1986C62.5689 48.4412 63.6031 49.4486 64.8788 49.4486Z" fill="#FFD98E"/>
<path d="M31.3263 63.9548C31.3263 64.9776 30.4752 65.8067 29.4252 65.8067C28.3753 65.8067 27.5241 64.9776 27.5241 63.9548C27.5241 62.9321 28.3753 62.103 29.4252 62.103C30.4752 62.103 31.3263 62.9321 31.3263 63.9548Z" fill="#F86512"/>
<path fill-rule="evenodd" clip-rule="evenodd" d="M33.3263 63.9548C33.3263 66.1313 31.5299 67.8067 29.4252 67.8067C27.3205 67.8067 25.5241 66.1313 25.5241 63.9548C25.5241 61.7783 27.3205 60.103 29.4252 60.103C31.5299 60.103 33.3263 61.7783 33.3263 63.9548ZM29.4252 65.8067C30.4752 65.8067 31.3263 64.9776 31.3263 63.9548C31.3263 62.9321 30.4752 62.103 29.4252 62.103C28.3753 62.103 27.5241 62.9321 27.5241 63.9548C27.5241 64.9776 28.3753 65.8067 29.4252 65.8067Z" fill="#FFD98E"/>
</svg>
