<svg width="96" height="97" viewBox="0 0 96 97" fill="none" xmlns="http://www.w3.org/2000/svg">
<path d="M14 30.801C14 21.9645 21.1634 14.801 30 14.801H66C74.8366 14.801 82 21.9645 82 30.801V66.801C82 75.6376 74.8366 82.801 66 82.801H30C21.1634 82.801 14 75.6376 14 66.801V30.801Z" fill="#F25656"/>
<path fill-rule="evenodd" clip-rule="evenodd" d="M30 12.801H66C75.9411 12.801 84 20.8599 84 30.801V66.801C84 76.7422 75.9411 84.801 66 84.801H30C20.0589 84.801 12 76.7421 12 66.801V30.801C12 20.8599 20.0589 12.801 30 12.801ZM30 14.801C21.1634 14.801 14 21.9645 14 30.801V66.801C14 75.6376 21.1634 82.801 30 82.801H66C74.8366 82.801 82 75.6376 82 66.801V30.801C82 21.9645 74.8366 14.801 66 14.801H30Z" fill="#9D1D1D"/>
<path d="M16 32.801C16 23.9645 23.1634 16.801 32 16.801H64C72.8366 16.801 80 23.9645 80 32.801V64.801C80 73.6376 72.8366 80.801 64 80.801H32C23.1634 80.801 16 73.6376 16 64.801V32.801Z" fill="#CD4141"/>
<path d="M57.2964 46.5989C59.0995 51.5261 56.5669 56.982 51.6397 58.7851C46.7126 60.5882 41.2567 58.0556 39.4536 53.1284C37.6505 48.2013 40.1831 42.7454 45.1102 40.9423C50.0374 39.1392 55.4933 41.6718 57.2964 46.5989Z" fill="#F2D293"/>
<path fill-rule="evenodd" clip-rule="evenodd" d="M59.1746 45.9116C61.3573 51.876 58.2915 58.4806 52.3271 60.6632C46.3626 62.8459 39.7581 59.7802 37.5754 53.8157C35.3927 47.8513 38.4585 41.2467 44.4229 39.0641C50.3874 36.8814 56.9919 39.9471 59.1746 45.9116ZM51.6398 58.785C56.5669 56.982 59.0995 51.5261 57.2964 46.5989C55.4933 41.6717 50.0374 39.1392 45.1103 40.9422C40.1831 42.7453 37.6505 48.2012 39.4536 53.1284C41.2567 58.0555 46.7126 60.5881 51.6398 58.785Z" fill="#B52929"/>
<path fill-rule="evenodd" clip-rule="evenodd" d="M48.7616 56.3811C53.1062 54.7912 55.3393 49.9804 53.7494 45.6358C52.7521 42.9103 50.4871 41.0158 47.8649 40.3748C51.9261 40.155 55.826 42.5806 57.2964 46.5988C59.0995 51.526 56.5669 56.9819 51.6398 58.785C47.2414 60.3945 42.4217 58.5491 40.1552 54.6296C42.3898 56.7193 45.6921 57.5044 48.7616 56.3811Z" fill="#D7B26B"/>
<path fill-rule="evenodd" clip-rule="evenodd" d="M46.6182 43.6364C46.8784 44.1236 46.6944 44.7294 46.2072 44.9896C45.2323 45.5103 42.9928 47.4428 42.565 50.6865C42.4928 51.234 41.9904 51.6194 41.4428 51.5472C40.8953 51.4749 40.5099 50.9725 40.5822 50.425C41.1135 46.3962 43.8646 43.9734 45.265 43.2254C45.7522 42.9653 46.358 43.1493 46.6182 43.6364Z" fill="#FFEECC"/>
<path d="M39.7407 27.1755C36.7799 24.8263 30.8936 25.0148 26.6351 27.2303C21.5877 29.8563 19.9437 34.749 21.9829 38.6686C24.022 42.5881 28.9722 44.0503 34.0196 41.4243C38.2781 39.2088 41.8111 34.4968 41.5868 30.724L45.3085 28.7877C46.1863 29.3066 47.5728 29.4157 48.9939 28.9863C51.1086 28.3473 52.0058 26.7431 51.6065 25.4214C51.3879 24.6978 50.826 24.209 50.0153 24.0195C50.1407 23.3217 49.9126 22.6729 49.4477 22.1253C48.5542 21.0727 47.1241 20.7923 45.4399 22.222C44.4081 23.0978 43.7679 24.1923 43.6322 25.1509L39.7407 27.1755Z" fill="#F9A23C"/>
<path fill-rule="evenodd" clip-rule="evenodd" d="M39.7407 27.1754L43.6322 25.1508C43.7679 24.1923 44.4081 23.0978 45.4399 22.2219C47.124 20.7923 48.5542 21.0727 49.4477 22.1252C49.9126 22.6729 50.1407 23.3217 50.0153 24.0194C50.826 24.2089 51.3878 24.6978 51.6065 25.4213C52.0058 26.743 51.1086 28.3473 48.9939 28.9862C47.5728 29.4156 46.1863 29.3066 45.3085 28.7877L41.5868 30.7239C41.8111 34.4967 38.2781 39.2087 34.0196 41.4242C28.9722 44.0502 24.022 42.5881 21.9829 38.6685C19.9437 34.749 21.5877 29.8562 26.6351 27.2303C30.8936 25.0147 36.7799 24.8263 39.7407 27.1754ZM42.5922 31.3281C42.5194 33.3314 41.6116 35.4153 40.2957 37.2425C38.8222 39.2885 36.757 41.1273 34.4812 42.3113C29.0512 45.1363 23.4423 43.6405 21.0957 39.1301C18.7492 34.6197 20.7436 29.1681 26.1736 26.3431C28.4494 25.1591 31.1406 24.5235 33.6617 24.4912C35.9132 24.4623 38.1408 24.9151 39.823 26.0053L42.7528 24.4811C43.0521 23.3948 43.7871 22.3133 44.7927 21.4596C45.76 20.6385 46.7726 20.2095 47.774 20.2433C48.7884 20.2776 49.6183 20.781 50.2101 21.4781C50.6521 21.9987 50.9618 22.6288 51.0337 23.3284C51.7595 23.6913 52.3125 24.3005 52.5637 25.1321C53.1768 27.1609 51.7284 29.2047 49.2831 29.9435C47.9063 30.3595 46.4592 30.3613 45.3252 29.9062L42.5922 31.3281Z" fill="#7C3705"/>
<path fill-rule="evenodd" clip-rule="evenodd" d="M35.3947 25.5739C35.9504 25.765 36.4681 25.993 36.9382 26.2503L37.4197 25.991C36.7865 25.7926 36.1056 25.6542 35.3947 25.5739ZM25.2733 41.9144C27 42.5602 29.0037 42.6194 31.442 41.3508C36.1013 38.9268 39.9667 33.7714 39.7214 29.6435L43.7933 27.525C44.7538 28.0927 46.2707 28.2121 47.8256 27.7423C49.8844 27.1202 50.8884 25.6619 50.7769 24.3293C51.18 24.5835 51.4651 24.9533 51.6065 25.4214C52.0059 26.743 51.1087 28.3473 48.994 28.9863C47.5729 29.4157 46.1864 29.3066 45.3085 28.7877L41.5869 30.724C41.8111 34.4968 38.2782 39.2087 34.0197 41.4243C30.8282 43.0846 27.6757 43.1106 25.2733 41.9144ZM49.8125 22.6703C49.7168 22.4797 49.594 22.2975 49.4478 22.1253C49.3023 21.9539 49.1425 21.8029 48.9698 21.6765C48.9897 21.8819 48.9817 22.0928 48.9431 22.308C49.2721 22.3849 49.5637 22.5069 49.8125 22.6703Z" fill="#D77B10"/>
<path d="M26.9373 32.9611C27.8999 32.8745 28.7379 33.4453 28.809 34.236C28.8801 35.0267 28.1574 35.7379 27.1948 35.8245C26.2322 35.9111 25.3942 35.3403 25.3231 34.5496C25.252 33.7588 25.9747 33.0476 26.9373 32.9611Z" fill="#C86D02"/>
<path d="M27.9989 28.9832C28.419 28.4796 29.1356 28.385 29.5995 28.7719C30.0634 29.1588 30.0989 29.8807 29.6788 30.3844C29.2587 30.888 28.5421 30.9826 28.0782 30.5957C27.6144 30.2088 27.5789 29.4869 27.9989 28.9832Z" fill="#C86D02"/>
<path d="M33.225 28.8589C33.7713 28.2039 34.7031 28.0809 35.3063 28.584C35.9095 29.0872 35.9557 30.0259 35.4094 30.6809C34.8632 31.3358 33.9314 31.4588 33.3281 30.9557C32.7249 30.4526 32.6788 29.5138 33.225 28.8589Z" fill="#C86D02"/>
<path d="M33.9554 33.7584C34.792 33.9239 35.3467 34.6827 35.1943 35.4532C35.0419 36.2238 34.2401 36.7143 33.4035 36.5489C32.5669 36.3834 32.0122 35.6246 32.1646 34.854C32.317 34.0835 33.1188 33.5929 33.9554 33.7584Z" fill="#C86D02"/>
<path d="M29.43 36.6768C30.2666 36.8423 30.8213 37.6011 30.6689 38.3717C30.5165 39.1422 29.7147 39.6328 28.8781 39.4673C28.0415 39.3018 27.4868 38.543 27.6392 37.7724C27.7916 37.0019 28.5934 36.5113 29.43 36.6768Z" fill="#C86D02"/>
<path d="M37.8239 32.541C38.4395 32.3147 39.1075 32.5909 39.3159 33.1579C39.5243 33.7248 39.1942 34.3679 38.5787 34.5942C37.9631 34.8205 37.2952 34.5443 37.0867 33.9773C36.8783 33.4103 37.2084 32.7673 37.8239 32.541Z" fill="#C86D02"/>
<path d="M22.2884 34.098C22.5789 33.4683 23.2068 33.139 23.6909 33.3623C24.175 33.5857 24.3319 34.2772 24.0414 34.9068C23.7509 35.5365 23.123 35.8658 22.6389 35.6425C22.1548 35.4191 21.9979 34.7277 22.2884 34.098Z" fill="#C86D02"/>
<path d="M26.9354 39.2718C27.5443 39.6036 27.8311 40.252 27.5761 40.7202C27.321 41.1883 26.6206 41.2988 26.0117 40.967C25.4028 40.6353 25.1159 39.9868 25.371 39.5187C25.6261 39.0505 26.3265 38.94 26.9354 39.2718Z" fill="#C86D02"/>
<path d="M35.6652 36.2618C35.983 35.6455 36.6247 35.3438 37.0986 35.5881C37.5724 35.8324 37.699 36.5301 37.3812 37.1465C37.0634 37.7628 36.4217 38.0644 35.9479 37.8201C35.474 37.5759 35.3475 36.8782 35.6652 36.2618Z" fill="#C86D02"/>
<path d="M31.4596 26.7108C32.1664 26.7795 32.7095 27.1418 32.6727 27.5199C32.6359 27.898 32.0332 28.1488 31.3264 28.08C30.6196 28.0113 30.0764 27.649 30.1132 27.2709C30.15 26.8928 30.7528 26.642 31.4596 26.7108Z" fill="#C86D02"/>
<path d="M47.6608 26.9595C48.3676 27.0282 48.9108 27.3905 48.874 27.7686C48.8372 28.1467 48.2344 28.3975 47.5276 28.3287C46.8208 28.26 46.2777 27.8977 46.3145 27.5196C46.3512 27.1415 46.954 26.8907 47.6608 26.9595Z" fill="#C86D02"/>
<path d="M32.2257 38.0788C32.6872 37.9092 33.188 38.1162 33.3443 38.5413C33.5005 38.9664 33.2531 39.4485 32.7916 39.6181C32.3301 39.7878 31.8293 39.5807 31.673 39.1557C31.5168 38.7306 31.7642 38.2485 32.2257 38.0788Z" fill="#C86D02"/>
<path d="M30.4925 32.4387C30.954 32.2691 31.4548 32.4761 31.6111 32.9012C31.7673 33.3263 31.5199 33.8084 31.0584 33.978C30.5968 34.1477 30.0961 33.9406 29.9398 33.5155C29.7835 33.0905 30.031 32.6084 30.4925 32.4387Z" fill="#C86D02"/>
<path d="M24.2712 37.2041C24.7327 37.0344 25.2335 37.2415 25.3898 37.6665C25.546 38.0916 25.2986 38.5737 24.8371 38.7434C24.3755 38.913 23.8748 38.706 23.7185 38.2809C23.5622 37.8558 23.8097 37.3737 24.2712 37.2041Z" fill="#C86D02"/>
<path d="M25.3702 30.2278C25.8317 30.0581 26.3325 30.2652 26.4888 30.6903C26.645 31.1153 26.3976 31.5975 25.9361 31.7671C25.4746 31.9368 24.9738 31.7297 24.8175 31.3046C24.6613 30.8796 24.9087 30.3974 25.3702 30.2278Z" fill="#C86D02"/>
<path d="M37.4967 28.11C37.9582 27.9403 38.459 28.1474 38.6153 28.5725C38.7715 28.9975 38.5241 29.4797 38.0626 29.6493C37.6011 29.819 37.1003 29.6119 36.944 29.1868C36.7878 28.7618 37.0352 28.2796 37.4967 28.11Z" fill="#C86D02"/>
<path d="M43.0489 27.0475C43.5104 26.8779 44.0112 27.0849 44.1674 27.51C44.3237 27.9351 44.0762 28.4172 43.6147 28.5868C43.1532 28.7565 42.6524 28.5494 42.4962 28.1244C42.3399 27.6993 42.5874 27.2172 43.0489 27.0475Z" fill="#C86D02"/>
<path d="M45.8218 22.9924C46.2833 22.8227 46.784 23.0298 46.9403 23.4548C47.0966 23.8799 46.8491 24.362 46.3876 24.5317C45.9261 24.7013 45.4253 24.4943 45.2691 24.0692C45.1128 23.6441 45.3602 23.162 45.8218 22.9924Z" fill="#C86D02"/>
<path d="M49.6362 24.9697C49.9536 24.853 50.2981 24.9954 50.4056 25.2878C50.513 25.5801 50.3428 25.9118 50.0254 26.0284C49.708 26.1451 49.3635 26.0027 49.2561 25.7103C49.1486 25.418 49.3188 25.0864 49.6362 24.9697Z" fill="#C86D02"/>
<path d="M48.2489 22.3825C48.5663 22.2658 48.9108 22.4082 49.0183 22.7006C49.1257 22.9929 48.9555 23.3245 48.6381 23.4412C48.3207 23.5579 47.9762 23.4155 47.8687 23.1231C47.7613 22.8307 47.9315 22.4991 48.2489 22.3825Z" fill="#C86D02"/>
<path d="M40.0726 29.1537C40.39 29.037 40.7345 29.1794 40.8419 29.4718C40.9494 29.7641 40.7792 30.0957 40.4618 30.2124C40.1444 30.3291 39.7999 30.1867 39.6924 29.8943C39.585 29.602 39.7552 29.2703 40.0726 29.1537Z" fill="#C86D02"/>
<path d="M36.8869 30.7392C37.2043 30.6225 37.5488 30.7649 37.6562 31.0573C37.7637 31.3496 37.5935 31.6812 37.2761 31.7979C36.9586 31.9146 36.6142 31.7722 36.5067 31.4798C36.3992 31.1875 36.5694 30.8559 36.8869 30.7392Z" fill="#C86D02"/>
<path d="M33.2555 31.8459C33.573 31.7292 33.9174 31.8716 34.0249 32.164C34.1324 32.4564 33.9622 32.788 33.6447 32.9047C33.3273 33.0214 32.9829 32.8789 32.8754 32.5866C32.7679 32.2942 32.9381 31.9626 33.2555 31.8459Z" fill="#C86D02"/>
<path d="M31.0317 29.9579C31.3134 29.8544 31.6191 29.9808 31.7145 30.2403C31.8099 30.4997 31.6588 30.794 31.3771 30.8976C31.0954 31.0012 30.7897 30.8748 30.6943 30.6153C30.5989 30.3558 30.75 30.0615 31.0317 29.9579Z" fill="#C86D02"/>
<path d="M30.1059 40.8134C30.3876 40.7098 30.6933 40.8362 30.7887 41.0957C30.8841 41.3551 30.733 41.6494 30.4513 41.753C30.1696 41.8566 29.8639 41.7302 29.7685 41.4707C29.6731 41.2112 29.8242 40.9169 30.1059 40.8134Z" fill="#C86D02"/>
<path d="M30.664 35.3009C30.9457 35.1973 31.2514 35.3237 31.3468 35.5832C31.4422 35.8427 31.2912 36.137 31.0094 36.2405C30.7277 36.3441 30.422 36.2177 30.3266 35.9582C30.2313 35.6987 30.3823 35.4044 30.664 35.3009Z" fill="#C86D02"/>
<path d="M45.4463 25.4581C45.728 25.3546 46.0337 25.481 46.1291 25.7404C46.2245 25.9999 46.0734 26.2942 45.7917 26.3978C45.51 26.5013 45.2043 26.3749 45.1089 26.1155C45.0135 25.856 45.1646 25.5617 45.4463 25.4581Z" fill="#C86D02"/>
<path d="M35.6055 26.5508C35.9229 26.4341 36.2673 26.5765 36.3748 26.8689C36.4823 27.1613 36.3121 27.4929 35.9947 27.6096C35.6772 27.7263 35.3328 27.5838 35.2253 27.2915C35.1178 26.9991 35.288 26.6675 35.6055 26.5508Z" fill="#C86D02"/>
<path d="M23.0404 36.3086C23.2182 36.2926 23.3743 36.4118 23.3889 36.5748C23.4036 36.7378 23.2713 36.883 23.0935 36.899C22.9156 36.915 22.7595 36.7958 22.7449 36.6327C22.7302 36.4697 22.8625 36.3246 23.0404 36.3086Z" fill="#FFC785"/>
<path d="M24.5338 32.2493C24.7996 32.2254 25.0329 32.4035 25.0548 32.6472C25.0767 32.8909 24.879 33.1078 24.6131 33.1317C24.3473 33.1556 24.114 32.9775 24.0921 32.7338C24.0702 32.4901 24.2679 32.2732 24.5338 32.2493Z" fill="#FFC785"/>
<path d="M26.1037 36.3306C26.4968 36.2953 26.8418 36.5588 26.8742 36.9191C26.9067 37.2795 26.6142 37.6003 26.2211 37.6357C25.8279 37.6711 25.4829 37.4076 25.4505 37.0472C25.4181 36.6868 25.7105 36.366 26.1037 36.3306Z" fill="#FFC785"/>
<path d="M29.2864 35.009C29.5958 34.9811 29.8673 35.1885 29.8928 35.4721C29.9184 35.7557 29.6882 36.0082 29.3788 36.0361C29.0694 36.0639 28.7979 35.8565 28.7724 35.5729C28.7469 35.2893 28.977 35.0368 29.2864 35.009Z" fill="#FFC785"/>
<path d="M32.3601 36.7406C32.6696 36.7127 32.9411 36.9201 32.9666 37.2037C32.9921 37.4874 32.7619 37.7398 32.4525 37.7677C32.1431 37.7955 31.8716 37.5881 31.8461 37.3045C31.8206 37.0209 32.0507 36.7684 32.3601 36.7406Z" fill="#FFC785"/>
<path d="M36.1864 33.0089C36.154 32.6485 35.809 32.385 35.4159 32.4204C35.0227 32.4557 34.7303 32.7766 34.7627 33.1369C34.7951 33.4973 35.1401 33.7608 35.5332 33.7255C35.9264 33.6901 36.2188 33.3693 36.1864 33.0089Z" fill="#FFC785"/>
<path d="M29.7295 31.9559C29.697 31.5955 29.352 31.332 28.9589 31.3674C28.5658 31.4028 28.2733 31.7236 28.3057 32.084C28.3381 32.4444 28.6831 32.7078 29.0763 32.6725C29.4694 32.6371 29.7619 32.3163 29.7295 31.9559Z" fill="#FFC785"/>
<path d="M47.7925 24.4337C48.1857 24.3983 48.5307 24.6618 48.5631 25.0222C48.5955 25.3826 48.3031 25.7034 47.9099 25.7387C47.5168 25.7741 47.1718 25.5106 47.1394 25.1502C47.1069 24.7898 47.3994 24.469 47.7925 24.4337Z" fill="#FFC785"/>
<path d="M40.1912 31.7119C40.1692 31.4682 39.936 31.29 39.6701 31.3139C39.4043 31.3378 39.2066 31.5548 39.2285 31.7984C39.2504 32.0421 39.4837 32.2203 39.7495 32.1964C40.0153 32.1725 40.2131 31.9555 40.1912 31.7119Z" fill="#FFC785"/>
<path d="M33.8632 26.7533C34.1291 26.7294 34.3624 26.9075 34.3843 27.1512C34.4062 27.3949 34.2085 27.6118 33.9426 27.6357C33.6768 27.6596 33.4435 27.4815 33.4216 27.2378C33.3997 26.9941 33.5974 26.7772 33.8632 26.7533Z" fill="#FFC785"/>
<path d="M27.1488 29.1825C27.1269 28.9388 26.8937 28.7607 26.6278 28.7846C26.362 28.8085 26.1642 29.0254 26.1862 29.2691C26.2081 29.5128 26.4414 29.691 26.7072 29.667C26.973 29.6431 27.1708 29.4262 27.1488 29.1825Z" fill="#FFC785"/>
<path d="M35.4584 39.0937C35.4365 38.8501 35.2032 38.6719 34.9374 38.6958C34.6715 38.7197 34.4738 38.9366 34.4957 39.1803C34.5176 39.424 34.7509 39.6022 35.0168 39.5783C35.2826 39.5544 35.4803 39.3374 35.4584 39.0937Z" fill="#FFC785"/>
<path d="M28.8841 40.4243C29.0619 40.4083 29.218 40.5275 29.2327 40.6905C29.2473 40.8535 29.115 40.9987 28.9372 41.0147C28.7593 41.0307 28.6033 40.9115 28.5886 40.7484C28.5739 40.5854 28.7062 40.4403 28.8841 40.4243Z" fill="#FFC785"/>
<path d="M32.1272 40.4302C32.1126 40.2671 31.9565 40.1479 31.7786 40.1639C31.6008 40.1799 31.4685 40.3251 31.4832 40.4881C31.4978 40.6511 31.6539 40.7703 31.8317 40.7543C32.0096 40.7383 32.1419 40.5932 32.1272 40.4302Z" fill="#FFC785"/>
<path d="M27.0212 38.5538C27.0066 38.3907 26.8505 38.2715 26.6727 38.2875C26.4948 38.3035 26.3625 38.4487 26.3772 38.6117C26.3918 38.7747 26.5479 38.8939 26.7258 38.8779C26.9036 38.8619 27.0359 38.7168 27.0212 38.5538Z" fill="#FFC785"/>
<path d="M31.6319 31.3133C31.8097 31.2973 31.9658 31.4165 31.9805 31.5795C31.9951 31.7425 31.8628 31.8877 31.685 31.9037C31.5071 31.9197 31.3511 31.8005 31.3364 31.6374C31.3217 31.4744 31.454 31.3293 31.6319 31.3133Z" fill="#FFC785"/>
<path d="M41.2961 28.0573C41.2815 27.8943 41.1254 27.7751 40.9475 27.7911C40.7697 27.8071 40.6374 27.9522 40.6521 28.1152C40.6667 28.2783 40.8228 28.3975 41.0007 28.3815C41.1785 28.3655 41.3108 28.2203 41.2961 28.0573Z" fill="#FFC785"/>
<path d="M49.7426 26.8528C49.9205 26.8368 50.0765 26.956 50.0912 27.119C50.1059 27.2821 49.9736 27.4272 49.7957 27.4432C49.6179 27.4592 49.4618 27.34 49.4471 27.177C49.4325 27.0139 49.5648 26.8688 49.7426 26.8528Z" fill="#FFC785"/>
<path d="M45.6139 27.2242C45.5992 27.0611 45.4431 26.9419 45.2653 26.9579C45.0874 26.9739 44.9551 27.1191 44.9698 27.2821C44.9845 27.4451 45.1405 27.5643 45.3184 27.5483C45.4962 27.5323 45.6285 27.3872 45.6139 27.2242Z" fill="#FFC785"/>
<path d="M24.9375 58.6659C22.8771 61.8343 23.618 67.6769 26.2241 71.7083C29.3129 76.4865 34.3385 77.6632 38.049 75.2646C41.7595 72.866 42.7498 67.8004 39.661 63.0221C37.055 58.9907 32.0318 55.9164 28.2967 56.4943L26.0192 52.9712C26.4533 52.0484 26.4315 50.6578 25.8704 49.2834C25.0355 47.2381 23.354 46.4957 22.0757 47.0175C21.3759 47.3032 20.942 47.9085 20.8296 48.7334C20.1231 48.6742 19.4987 48.9622 18.9972 49.4766C18.0332 50.4651 17.8885 51.9152 19.4702 53.4575C20.4391 54.4024 21.589 54.9369 22.556 54.9819L24.9375 58.6659Z" fill="#F9A23C"/>
<path fill-rule="evenodd" clip-rule="evenodd" d="M24.9375 58.666L22.5561 54.982C21.589 54.937 20.4392 54.4025 19.4702 53.4576C17.8885 51.9153 18.0332 50.4652 18.9972 49.4767C19.4987 48.9623 20.1232 48.6743 20.8296 48.7335C20.9421 47.9086 21.3759 47.3033 22.0757 47.0176C23.354 46.4958 25.0355 47.2382 25.8705 49.2835C26.4315 50.6579 26.4533 52.0485 26.0192 52.9713L28.2967 56.4944C32.0318 55.9165 37.055 58.9908 39.661 63.0222C42.7499 67.8005 41.7596 72.8661 38.049 75.2647C34.3385 77.6633 29.3129 76.4866 26.2241 71.7084C23.6181 67.677 22.8771 61.8344 24.9375 58.666ZM28.8037 55.4367C30.805 55.3208 32.9651 56.0287 34.9078 57.167C37.0833 58.4417 39.1081 60.3249 40.5008 62.4793C43.8238 67.6197 42.8618 73.3444 38.5919 76.1045C34.3221 78.8647 28.7072 77.3916 25.3843 72.2512C23.9916 70.0968 23.1057 67.4773 22.8366 64.9703C22.5962 62.7315 22.8376 60.4713 23.7649 58.694L21.9719 55.9204C20.8623 55.7246 19.7165 55.0946 18.772 54.1736C17.8637 53.2878 17.3414 52.3201 17.2809 51.3198C17.2197 50.3067 17.6428 49.4332 18.2812 48.7785C18.758 48.2895 19.3561 47.922 20.0459 47.7846C20.339 47.0279 20.8935 46.4201 21.6978 46.0918C23.66 45.2907 25.8308 46.5406 26.7963 48.9055C27.3399 50.2372 27.4776 51.6777 27.1312 52.8495L28.8037 55.4367Z" fill="#7C3705"/>
<path fill-rule="evenodd" clip-rule="evenodd" d="M21.5382 47.3418C22.0756 47.7672 22.557 48.406 22.9016 49.2605C23.4836 50.7039 23.5116 52.162 23.0694 53.1277L25.4236 56.831C29.2584 56.2402 34.4315 59.4841 37.1253 63.7215C40.318 68.744 41.2158 72.1581 37.4135 74.6579C35.8346 75.696 33.9156 76.2421 31.9965 76.2033C34.074 76.7602 36.2211 76.4463 38.049 75.2646C41.7595 72.866 42.7498 67.8004 39.661 63.0221C37.055 58.9907 32.0318 55.9164 28.2967 56.4943L26.0192 52.9712C26.4533 52.0484 26.4315 50.6578 25.8704 49.2834C25.0355 47.2381 23.354 46.4957 22.0757 47.0175C21.874 47.0999 21.6944 47.2087 21.5382 47.3418Z" fill="#D77B10"/>
<path d="M31.9011 70.8689C31.7244 69.9187 32.2139 69.0307 32.9945 68.8856C33.775 68.7405 34.551 69.3931 34.7277 70.3433C34.9043 71.2935 34.4148 72.1815 33.6343 72.3266C32.8538 72.4718 32.0778 71.8191 31.9011 70.8689Z" fill="#C86D02"/>
<path d="M27.8411 70.1859C27.3002 69.815 27.1386 69.1105 27.4802 68.6123C27.8218 68.1141 28.5372 68.0109 29.0781 68.3817C29.619 68.7526 29.7806 69.4571 29.439 69.9553C29.0974 70.4535 28.382 70.5568 27.8411 70.1859Z" fill="#C86D02"/>
<path d="M27.226 64.9946C26.5226 64.5124 26.3125 63.5962 26.7567 62.9484C27.2009 62.3006 28.1312 62.1663 28.8346 62.6486C29.5379 63.1309 29.748 64.047 29.3038 64.6949C28.8596 65.3427 27.9293 65.4769 27.226 64.9946Z" fill="#C86D02"/>
<path d="M32.0352 63.8069C32.1213 62.9585 32.8246 62.3349 33.606 62.4142C34.3875 62.4935 34.9513 63.2456 34.8652 64.0941C34.7791 64.9425 34.0758 65.5661 33.2943 65.4868C32.5128 65.4075 31.9491 64.6554 32.0352 63.8069Z" fill="#C86D02"/>
<path d="M35.3661 68.0379C35.4521 67.1895 36.1555 66.5659 36.9369 66.6452C37.7184 66.7245 38.2821 67.4766 38.1961 68.3251C38.11 69.1735 37.4067 69.7971 36.6252 69.7178C35.8437 69.6385 35.28 68.8864 35.3661 68.0379Z" fill="#C86D02"/>
<path d="M30.4595 60.07C30.1763 59.4784 30.3885 58.7874 30.9334 58.5266C31.4782 58.2658 32.1495 58.534 32.4326 59.1255C32.7158 59.7171 32.5036 60.4081 31.9587 60.6689C31.4139 60.9297 30.7426 60.6615 30.4595 60.07Z" fill="#C86D02"/>
<path d="M33.47 75.3903C32.8158 75.1603 32.4289 74.5661 32.6057 74.0632C32.7826 73.5602 33.4563 73.339 34.1105 73.5691C34.7646 73.7991 35.1516 74.3933 34.9747 74.8962C34.7979 75.3991 34.1242 75.6204 33.47 75.3903Z" fill="#C86D02"/>
<path d="M38.184 70.2776C38.4571 69.6401 39.0757 69.2936 39.5658 69.5036C40.0558 69.7135 40.2317 70.4004 39.9586 71.0378C39.6856 71.6752 39.0669 72.0218 38.5769 71.8118C38.0869 71.6019 37.911 70.915 38.184 70.2776Z" fill="#C86D02"/>
<path d="M34.3668 61.8693C33.7233 61.6109 33.3627 61.0004 33.5613 60.5057C33.76 60.011 34.4427 59.8194 35.0862 60.0778C35.7297 60.3362 36.0903 60.9467 35.8916 61.4414C35.693 61.9362 35.0102 62.1277 34.3668 61.8693Z" fill="#C86D02"/>
<path d="M25.2534 66.9542C25.2554 66.2441 25.565 65.6693 25.9449 65.6704C26.3248 65.6714 26.6311 66.248 26.6291 66.9581C26.6271 67.6682 26.3175 68.243 25.9376 68.2419C25.5577 68.2409 25.2513 67.6643 25.2534 66.9542Z" fill="#C86D02"/>
<path d="M23.978 50.8013C23.98 50.0912 24.2896 49.5164 24.6695 49.5175C25.0494 49.5186 25.3557 50.0951 25.3537 50.8052C25.3517 51.5153 25.0421 52.0901 24.6622 52.0891C24.2823 52.088 23.976 51.5115 23.978 50.8013Z" fill="#C86D02"/>
<path d="M36.4991 65.1228C36.2868 64.6793 36.4458 64.1612 36.8543 63.9657C37.2628 63.7702 37.7661 63.9712 37.9784 64.4147C38.1906 64.8582 38.0316 65.3763 37.6231 65.5718C37.2146 65.7673 36.7113 65.5663 36.4991 65.1228Z" fill="#C86D02"/>
<path d="M31.0468 67.3785C30.8346 66.935 30.9936 66.417 31.4021 66.2215C31.8106 66.0259 32.3139 66.227 32.5261 66.6705C32.7384 67.114 32.5794 67.632 32.1709 67.8276C31.7624 68.0231 31.2591 67.8221 31.0468 67.3785Z" fill="#C86D02"/>
<path d="M36.3759 73.1243C36.1637 72.6808 36.3227 72.1628 36.7312 71.9672C37.1397 71.7717 37.643 71.9728 37.8552 72.4163C38.0675 72.8598 37.9085 73.3778 37.5 73.5733C37.0915 73.7689 36.5882 73.5678 36.3759 73.1243Z" fill="#C86D02"/>
<path d="M29.3272 72.686C29.115 72.2425 29.274 71.7244 29.6825 71.5289C30.091 71.3334 30.5943 71.5344 30.8065 71.9779C31.0188 72.4214 30.8598 72.9395 30.4513 73.135C30.0428 73.3305 29.5395 73.1295 29.3272 72.686Z" fill="#C86D02"/>
<path d="M26.0789 60.8123C25.8666 60.3687 26.0256 59.8507 26.4341 59.6552C26.8426 59.4597 27.3459 59.6607 27.5582 60.1042C27.7704 60.5477 27.6114 61.0658 27.2029 61.2613C26.7944 61.4568 26.2911 61.2558 26.0789 60.8123Z" fill="#C86D02"/>
<path d="M24.4992 55.3846C24.2869 54.9411 24.446 54.423 24.8545 54.2275C25.263 54.032 25.7662 54.233 25.9785 54.6765C26.1908 55.12 26.0317 55.6381 25.6232 55.8336C25.2147 56.0291 24.7115 55.8281 24.4992 55.3846Z" fill="#C86D02"/>
<path d="M20.2013 53.0052C19.989 52.5617 20.1481 52.0436 20.5566 51.8481C20.9651 51.6526 21.4683 51.8536 21.6806 52.2971C21.8929 52.7406 21.7338 53.2587 21.3253 53.4542C20.9168 53.6497 20.4136 53.4487 20.2013 53.0052Z" fill="#C86D02"/>
<path d="M21.8113 49.0217C21.6653 48.7167 21.7747 48.3604 22.0557 48.2259C22.3366 48.0914 22.6828 48.2297 22.8288 48.5347C22.9748 48.8398 22.8654 49.1961 22.5844 49.3306C22.3034 49.4651 21.9573 49.3268 21.8113 49.0217Z" fill="#C86D02"/>
<path d="M19.3659 50.6461C19.2199 50.3411 19.3293 49.9847 19.6103 49.8503C19.8913 49.7158 20.2374 49.854 20.3834 50.1591C20.5294 50.4642 20.42 50.8205 20.139 50.955C19.8581 51.0894 19.5119 50.9512 19.3659 50.6461Z" fill="#C86D02"/>
<path d="M26.8758 58.1497C26.7297 57.8446 26.8392 57.4883 27.1201 57.3538C27.4011 57.2193 27.7472 57.3576 27.8932 57.6627C28.0393 57.9677 27.9298 58.324 27.6489 58.4585C27.3679 58.593 27.0218 58.4547 26.8758 58.1497Z" fill="#C86D02"/>
<path d="M28.7537 61.1722C28.6077 60.8672 28.7171 60.5109 28.9981 60.3764C29.2791 60.2419 29.6252 60.3802 29.7712 60.6852C29.9172 60.9903 29.8078 61.3466 29.5268 61.4811C29.2459 61.6156 28.8997 61.4773 28.7537 61.1722Z" fill="#C86D02"/>
<path d="M30.1969 64.6835C30.0509 64.3784 30.1603 64.0221 30.4413 63.8876C30.7223 63.7531 31.0684 63.8914 31.2144 64.1965C31.3604 64.5015 31.251 64.8578 30.97 64.9923C30.6891 65.1268 30.3429 64.9885 30.1969 64.6835Z" fill="#C86D02"/>
<path d="M28.5264 67.075C28.3968 66.8042 28.4939 66.488 28.7433 66.3686C28.9926 66.2493 29.2998 66.372 29.4294 66.6427C29.559 66.9135 29.4619 67.2297 29.2125 67.3491C28.9632 67.4684 28.656 67.3457 28.5264 67.075Z" fill="#C86D02"/>
<path d="M39.4207 66.9762C39.2912 66.7054 39.3883 66.3892 39.6376 66.2698C39.887 66.1505 40.1942 66.2732 40.3238 66.5439C40.4533 66.8147 40.3562 67.1309 40.1069 67.2503C39.8575 67.3696 39.5503 67.2469 39.4207 66.9762Z" fill="#C86D02"/>
<path d="M33.8802 66.9387C33.7506 66.668 33.8477 66.3517 34.0971 66.2324C34.3465 66.113 34.6537 66.2358 34.7832 66.5065C34.9128 66.7772 34.8157 67.0935 34.5664 67.2128C34.317 67.3322 34.0098 67.2094 33.8802 66.9387Z" fill="#C86D02"/>
<path d="M22.6914 53.1472C22.5618 52.8764 22.6589 52.5602 22.9083 52.4409C23.1577 52.3215 23.4649 52.4442 23.5944 52.715C23.724 52.9857 23.6269 53.3019 23.3776 53.4213C23.1282 53.5406 22.821 53.4179 22.6914 53.1472Z" fill="#C86D02"/>
<path d="M24.7044 62.8417C24.5584 62.5367 24.6678 62.1803 24.9487 62.0459C25.2297 61.9114 25.5758 62.0496 25.7219 62.3547C25.8679 62.6597 25.7585 63.0161 25.4775 63.1505C25.1965 63.285 24.8504 63.1468 24.7044 62.8417Z" fill="#C86D02"/>
<path d="M35.6 74.4339C35.5674 74.2583 35.6714 74.0918 35.8323 74.0618C35.9932 74.0319 36.1502 74.15 36.1828 74.3255C36.2154 74.5011 36.1114 74.6677 35.9505 74.6976C35.7896 74.7275 35.6327 74.6095 35.6 74.4339Z" fill="#FFC785"/>
<path d="M31.4183 73.3287C31.3695 73.0663 31.525 72.8173 31.7655 72.7726C32.006 72.7278 32.2406 72.9043 32.2894 73.1667C32.3382 73.4291 32.1827 73.6781 31.9422 73.7228C31.7017 73.7676 31.4671 73.5911 31.4183 73.3287Z" fill="#FFC785"/>
<path d="M35.334 71.382C35.2618 70.994 35.4917 70.6257 35.8475 70.5596C36.2032 70.4934 36.5501 70.7544 36.6223 71.1425C36.6944 71.5306 36.4645 71.8988 36.1088 71.965C35.7531 72.0311 35.4062 71.7701 35.334 71.382Z" fill="#FFC785"/>
<path d="M33.719 68.3377C33.6622 68.0322 33.8431 67.7424 34.1231 67.6904C34.4031 67.6383 34.6761 67.8437 34.7329 68.1491C34.7897 68.4546 34.6087 68.7444 34.3288 68.7964C34.0488 68.8485 33.7758 68.6431 33.719 68.3377Z" fill="#FFC785"/>
<path d="M35.154 65.1148C35.0972 64.8093 35.2781 64.5195 35.5581 64.4675C35.8381 64.4154 36.1111 64.6208 36.1679 64.9262C36.2247 65.2317 36.0437 65.5215 35.7638 65.5735C35.4838 65.6256 35.2108 65.4202 35.154 65.1148Z" fill="#FFC785"/>
<path d="M31.0791 61.6562C30.7234 61.7224 30.4935 62.0906 30.5657 62.4787C30.6378 62.8668 30.9847 63.1278 31.3405 63.0616C31.6962 62.9955 31.9261 62.6272 31.8539 62.2392C31.7818 61.8511 31.4349 61.5901 31.0791 61.6562Z" fill="#FFC785"/>
<path d="M30.6378 68.1836C30.2821 68.2497 30.0522 68.618 30.1244 69.006C30.1965 69.3941 30.5434 69.6551 30.8991 69.589C31.2549 69.5228 31.4848 69.1546 31.4126 68.7665C31.3405 68.3784 30.9936 68.1174 30.6378 68.1836Z" fill="#FFC785"/>
<path d="M21.4509 50.9076C21.3787 50.5195 21.6086 50.1513 21.9643 50.0852C22.3201 50.019 22.667 50.28 22.7391 50.6681C22.8113 51.0562 22.5814 51.4244 22.2256 51.4906C21.8699 51.5567 21.523 51.2957 21.4509 50.9076Z" fill="#FFC785"/>
<path d="M29.4114 57.7911C29.1708 57.8359 29.0154 58.0849 29.0642 58.3473C29.113 58.6097 29.3475 58.7861 29.5881 58.7414C29.8286 58.6967 29.9841 58.4477 29.9353 58.1853C29.8865 57.9229 29.6519 57.7464 29.4114 57.7911Z" fill="#FFC785"/>
<path d="M25.0696 64.5572C25.0208 64.2948 25.1763 64.0458 25.4168 64.001C25.6574 63.9563 25.8919 64.1328 25.9407 64.3952C25.9895 64.6576 25.8341 64.9066 25.5935 64.9513C25.353 64.996 25.1184 64.8196 25.0696 64.5572Z" fill="#FFC785"/>
<path d="M28.1193 71.0135C27.8788 71.0582 27.7233 71.3072 27.7721 71.5696C27.8209 71.832 28.0555 72.0085 28.296 71.9638C28.5365 71.919 28.692 71.67 28.6432 71.4076C28.5944 71.1452 28.3598 70.9687 28.1193 71.0135Z" fill="#FFC785"/>
<path d="M37.2055 61.809C36.965 61.8537 36.8095 62.1027 36.8583 62.3651C36.9071 62.6275 37.1417 62.804 37.3822 62.7593C37.6227 62.7146 37.7782 62.4656 37.7294 62.2032C37.6806 61.9407 37.446 61.7643 37.2055 61.809Z" fill="#FFC785"/>
<path d="M39.1482 68.2292C39.1155 68.0536 39.2195 67.887 39.3804 67.8571C39.5414 67.8272 39.6983 67.9452 39.7309 68.1208C39.7636 68.2963 39.6596 68.4629 39.4987 68.4929C39.3377 68.5228 39.1808 68.4047 39.1482 68.2292Z" fill="#FFC785"/>
<path d="M38.8491 64.9998C38.6882 65.0297 38.5842 65.1963 38.6169 65.3719C38.6495 65.5474 38.8064 65.6655 38.9674 65.6356C39.1283 65.6057 39.2323 65.4391 39.1996 65.2635C39.167 65.088 39.0101 64.9699 38.8491 64.9998Z" fill="#FFC785"/>
<path d="M37.461 70.2596C37.3001 70.2895 37.1961 70.4561 37.2288 70.6316C37.2614 70.8072 37.4183 70.9253 37.5793 70.8953C37.7402 70.8654 37.8442 70.6988 37.8115 70.5233C37.7789 70.3477 37.622 70.2296 37.461 70.2596Z" fill="#FFC785"/>
<path d="M29.8192 66.35C29.7866 66.1744 29.8906 66.0079 30.0515 65.9779C30.2124 65.948 30.3693 66.0661 30.402 66.2416C30.4346 66.4172 30.3306 66.5838 30.1697 66.6137C30.0088 66.6436 29.8518 66.5256 29.8192 66.35Z" fill="#FFC785"/>
<path d="M25.6691 57.0346C25.5082 57.0645 25.4042 57.2311 25.4369 57.4067C25.4695 57.5822 25.6264 57.7003 25.7874 57.6704C25.9483 57.6405 26.0523 57.4739 26.0196 57.2983C25.987 57.1228 25.8301 57.0047 25.6691 57.0346Z" fill="#FFC785"/>
<path d="M23.676 48.7388C23.6433 48.5632 23.7473 48.3966 23.9083 48.3667C24.0692 48.3368 24.2261 48.4548 24.2588 48.6304C24.2914 48.806 24.1874 48.9725 24.0265 49.0025C23.8656 49.0324 23.7086 48.9143 23.676 48.7388Z" fill="#FFC785"/>
<path d="M24.4338 52.8143C24.2729 52.8443 24.1689 53.0108 24.2015 53.1864C24.2342 53.362 24.3911 53.48 24.552 53.4501C24.713 53.4202 24.817 53.2536 24.7843 53.078C24.7517 52.9025 24.5947 52.7844 24.4338 52.8143Z" fill="#FFC785"/>
<path d="M57.8474 71.5114C60.395 74.3032 66.2359 75.0571 70.7935 73.5501C76.1955 71.7638 78.5997 67.1963 77.2126 63.0014C75.8255 58.8066 71.1723 56.5727 65.7703 58.359C61.2127 59.8661 56.9727 63.9535 56.5916 67.7137L52.6085 69.0308C51.8248 68.3784 50.4735 68.0493 49.002 68.2462C46.8124 68.5393 45.6705 69.9797 45.8537 71.3482C45.954 72.0974 46.4306 72.6697 47.2006 72.9862C46.9655 73.655 47.087 74.3319 47.4584 74.9467C48.1724 76.1285 49.5394 76.6337 51.4303 75.4913C52.5887 74.7914 53.3954 73.8132 53.6825 72.8886L57.8474 71.5114Z" fill="#F9A23C"/>
<path fill-rule="evenodd" clip-rule="evenodd" d="M57.8474 71.5113L53.6825 72.8885C53.3954 73.8131 52.5887 74.7913 51.4303 75.4912C49.5394 76.6335 48.1724 76.1284 47.4584 74.9466C47.087 74.3318 46.9655 73.6549 47.2006 72.9861C46.4306 72.6696 45.954 72.0973 45.8537 71.3481C45.6705 69.9796 46.8124 68.5392 49.002 68.2461C50.4735 68.0492 51.8247 68.3783 52.6085 69.0307L56.5916 67.7136C56.9727 63.9533 61.2127 59.866 65.7703 58.3589C71.1723 56.5726 75.8255 58.8065 77.2126 63.0013C78.5997 67.1962 76.1955 71.7637 70.7935 73.55C66.2359 75.057 60.395 74.3031 57.8474 71.5113ZM55.6955 66.9566C56.0873 64.9906 57.3162 63.0784 58.907 61.4848C60.6884 59.7004 63.0207 58.2149 65.4564 57.4095C71.2678 55.4878 76.5658 57.8602 78.162 62.6874C79.7582 67.5146 76.9189 72.5777 71.1075 74.4994C68.6718 75.3048 65.9136 75.5026 63.4197 75.1318C61.1924 74.8008 59.0658 73.9981 57.5792 72.6532L54.4436 73.6901C53.9747 74.7146 53.0765 75.6649 51.9474 76.3471C50.8614 77.0032 49.7934 77.265 48.8101 77.0717C47.8142 76.8759 47.0754 76.2464 46.6025 75.4637C46.2494 74.8792 46.0442 74.2078 46.085 73.5056C45.4264 73.0315 44.9778 72.3418 44.8626 71.4808C44.5814 69.3801 46.3375 67.5939 48.8694 67.255C50.295 67.0641 51.7237 67.2935 52.7706 67.9238L55.6955 66.9566Z" fill="#7C3705"/>
<path fill-rule="evenodd" clip-rule="evenodd" d="M56.2455 72.0411C55.9647 71.8866 55.6993 71.7246 55.451 71.5567L49.956 73.1533C49.6755 73.9558 48.9229 74.7959 47.8333 75.44C48.6049 76.2448 49.83 76.4581 51.4303 75.4913C52.5887 74.7914 53.3954 73.8132 53.6825 72.8886L56.2455 72.0411ZM47.318 68.789C47.8676 68.9344 48.3442 69.1471 48.7117 69.4126L51.8088 68.5558C51.0434 68.2333 50.0534 68.1055 49.002 68.2462C48.3433 68.3344 47.7795 68.5264 47.318 68.789ZM70.7935 73.5501C67.7417 74.5592 64.1146 74.5546 61.2861 73.6032C63.686 73.8892 66.3782 73.6368 69.016 72.517C74.4556 70.8958 76.3226 65.7354 74.7241 61.6656C73.1936 57.769 69.6754 57.5822 64.0879 59.0371C64.6392 58.7748 65.2023 58.5469 65.7703 58.359C71.1723 56.5727 75.8255 58.8066 77.2126 63.0014C78.5997 67.1963 76.1955 71.7638 70.7935 73.5501Z" fill="#D77B10"/>
<path d="M71.4103 67.8444C70.4462 67.7761 69.7101 67.0788 69.7662 66.2869C69.8223 65.495 70.6493 64.9083 71.6133 64.9766C72.5774 65.0448 73.3135 65.7421 73.2575 66.534C73.2014 67.326 72.3744 67.9126 71.4103 67.8444Z" fill="#C86D02"/>
<path d="M69.7271 71.6017C69.232 72.0318 68.5095 72.0107 68.1133 71.5547C67.7172 71.0987 67.7974 70.3803 68.2925 69.9502C68.7876 69.5201 69.5101 69.5412 69.9063 69.9972C70.3024 70.4532 70.2222 71.1716 69.7271 71.6017Z" fill="#C86D02"/>
<path d="M64.5482 70.8899C63.9044 71.4492 62.9649 71.4219 62.4497 70.8289C61.9346 70.2359 62.0389 69.3017 62.6828 68.7425C63.3266 68.1832 64.2661 68.2105 64.7812 68.8035C65.2964 69.3965 65.192 70.3306 64.5482 70.8899Z" fill="#C86D02"/>
<path d="M64.6096 65.9366C63.8101 65.6397 63.3838 64.802 63.6573 64.0657C63.9308 63.3293 64.8006 62.9731 65.6 63.2701C66.3995 63.567 66.8259 64.4047 66.5524 65.141C66.2789 65.8773 65.4091 66.2335 64.6096 65.9366Z" fill="#C86D02"/>
<path d="M69.5429 63.7783C68.7435 63.4813 68.3171 62.6437 68.5906 61.9074C68.8641 61.171 69.7339 60.8148 70.5334 61.1117C71.3328 61.4087 71.7592 62.2463 71.4857 62.9827C71.2122 63.719 70.3424 64.0752 69.5429 63.7783Z" fill="#C86D02"/>
<path d="M60.5963 66.5206C59.9525 66.6457 59.3372 66.2664 59.222 65.6734C59.1068 65.0805 59.5353 64.4984 60.1791 64.3733C60.8229 64.2482 61.4382 64.6275 61.5534 65.2205C61.6686 65.8134 61.2401 66.3955 60.5963 66.5206Z" fill="#C86D02"/>
<path d="M76.1811 67.4644C75.7938 68.0396 75.1213 68.2645 74.6791 67.9667C74.2369 67.6689 74.1924 66.9612 74.5798 66.386C74.9671 65.8109 75.6396 65.586 76.0818 65.8838C76.524 66.1815 76.5684 66.8892 76.1811 67.4644Z" fill="#C86D02"/>
<path d="M72.4199 61.615C71.8718 61.1902 71.6922 60.5043 72.0187 60.0829C72.3453 59.6615 73.0544 59.6642 73.6025 60.089C74.1506 60.5137 74.3302 61.1997 74.0037 61.6211C73.6771 62.0424 72.9681 62.0397 72.4199 61.615Z" fill="#C86D02"/>
<path d="M63.3215 63.1923C62.9094 63.75 62.2277 63.9453 61.7989 63.6284C61.3702 63.3116 61.3567 62.6027 61.7688 62.045C62.1809 61.4873 62.8625 61.292 63.2913 61.6088C63.72 61.9256 63.7336 62.6346 63.3215 63.1923Z" fill="#C86D02"/>
<path d="M65.948 73.2923C65.2613 73.1116 64.7829 72.6673 64.8796 72.2999C64.9763 71.9325 65.6114 71.7812 66.2981 71.9619C66.9849 72.1427 67.4632 72.587 67.3665 72.9544C67.2698 73.3218 66.6347 73.4731 65.948 73.2923Z" fill="#C86D02"/>
<path d="M49.9944 70.4597C49.3076 70.279 48.8293 69.8347 48.926 69.4673C49.0227 69.0999 49.6578 68.9486 50.3445 69.1293C51.0312 69.31 51.5096 69.7544 51.4129 70.1218C51.3162 70.4892 50.6811 70.6405 49.9944 70.4597Z" fill="#C86D02"/>
<path d="M67.007 61.9478C66.5243 62.0416 66.063 61.7572 65.9766 61.3127C65.8903 60.8681 66.2115 60.4317 66.6942 60.3379C67.1769 60.2441 67.6382 60.5285 67.7245 60.9731C67.8109 61.4176 67.4897 61.854 67.007 61.9478Z" fill="#C86D02"/>
<path d="M67.8173 67.7923C67.3346 67.8861 66.8733 67.6017 66.787 67.1572C66.7006 66.7126 67.0219 66.2762 67.5045 66.1824C67.9872 66.0886 68.4485 66.373 68.5349 66.8176C68.6213 67.2621 68.3 67.6986 67.8173 67.7923Z" fill="#C86D02"/>
<path d="M74.7197 64.0816C74.2371 64.1753 73.7758 63.891 73.6894 63.4464C73.603 63.0018 73.9243 62.5654 74.407 62.4716C74.8896 62.3779 75.3509 62.6622 75.4373 63.1068C75.5237 63.5514 75.2024 63.9878 74.7197 64.0816Z" fill="#C86D02"/>
<path d="M72.5208 70.7928C72.0381 70.8866 71.5768 70.6022 71.4905 70.1577C71.4041 69.7131 71.7254 69.2767 72.208 69.1829C72.6907 69.0891 73.152 69.3735 73.2384 69.8181C73.3248 70.2626 73.0035 70.699 72.5208 70.7928Z" fill="#C86D02"/>
<path d="M60.2117 70.947C59.7291 71.0408 59.2678 70.7564 59.1814 70.3119C59.095 69.8673 59.4163 69.4309 59.899 69.3371C60.3816 69.2433 60.8429 69.5277 60.9293 69.9723C61.0157 70.4168 60.6944 70.8533 60.2117 70.947Z" fill="#C86D02"/>
<path d="M54.5612 71.1093C54.0785 71.203 53.6172 70.9187 53.5308 70.4741C53.4445 70.0295 53.7657 69.5931 54.2484 69.4993C54.7311 69.4056 55.1924 69.6899 55.2787 70.1345C55.3651 70.5791 55.0439 71.0155 54.5612 71.1093Z" fill="#C86D02"/>
<path d="M51.1763 74.6696C50.6937 74.7634 50.2324 74.479 50.146 74.0345C50.0596 73.5899 50.3809 73.1535 50.8635 73.0597C51.3462 72.9659 51.8075 73.2503 51.8939 73.6948C51.9803 74.1394 51.659 74.5758 51.1763 74.6696Z" fill="#C86D02"/>
<path d="M47.7266 72.1086C47.3946 72.1731 47.0773 71.9775 47.0179 71.6717C46.9585 71.3659 47.1794 71.0657 47.5114 71.0012C47.8434 70.9367 48.1607 71.1323 48.2201 71.4381C48.2795 71.7439 48.0586 72.0441 47.7266 72.1086Z" fill="#C86D02"/>
<path d="M48.6829 74.8841C48.351 74.9486 48.0337 74.753 47.9742 74.4473C47.9148 74.1415 48.1358 73.8413 48.4678 73.7768C48.7998 73.7123 49.1171 73.9079 49.1765 74.2137C49.2359 74.5194 49.0149 74.8196 48.6829 74.8841Z" fill="#C86D02"/>
<path d="M57.8356 69.5054C57.5036 69.5699 57.1863 69.3743 57.1269 69.0686C57.0675 68.7628 57.2885 68.4626 57.6204 68.3981C57.9524 68.3336 58.2697 68.5292 58.3291 68.835C58.3885 69.1408 58.1676 69.4409 57.8356 69.5054Z" fill="#C86D02"/>
<path d="M61.2336 68.449C60.9016 68.5135 60.5843 68.3179 60.5249 68.0121C60.4655 67.7063 60.6865 67.4062 61.0185 67.3417C61.3505 67.2772 61.6677 67.4728 61.7272 67.7785C61.7866 68.0843 61.5656 68.3845 61.2336 68.449Z" fill="#C86D02"/>
<path d="M64.9951 67.9363C64.6631 68.0008 64.3458 67.8052 64.2864 67.4994C64.227 67.1937 64.4479 66.8935 64.7799 66.829C65.1119 66.7645 65.4292 66.9601 65.4886 67.2659C65.548 67.5716 65.3271 67.8718 64.9951 67.9363Z" fill="#C86D02"/>
<path d="M66.8889 70.1552C66.5943 70.2124 66.3127 70.0388 66.26 69.7674C66.2072 69.4961 66.4033 69.2297 66.698 69.1724C66.9926 69.1152 67.2742 69.2888 67.3269 69.5601C67.3797 69.8315 67.1836 70.0979 66.8889 70.1552Z" fill="#C86D02"/>
<path d="M69.5363 59.5869C69.2416 59.6441 68.96 59.4705 68.9073 59.1992C68.8546 58.9278 69.0507 58.6614 69.3453 58.6041C69.64 58.5469 69.9215 58.7205 69.9743 58.9919C70.027 59.2632 69.8309 59.5296 69.5363 59.5869Z" fill="#C86D02"/>
<path d="M68.105 64.9395C67.8104 64.9967 67.5288 64.8231 67.4761 64.5518C67.4234 64.2804 67.6195 64.014 67.9141 63.9567C68.2087 63.8995 68.4903 64.0731 68.5431 64.3445C68.5958 64.6158 68.3997 64.8822 68.105 64.9395Z" fill="#C86D02"/>
<path d="M51.9407 72.2955C51.6461 72.3527 51.3645 72.1791 51.3118 71.9077C51.259 71.6364 51.4551 71.37 51.7498 71.3127C52.0444 71.2555 52.326 71.4291 52.3787 71.7004C52.4315 71.9718 52.2354 72.2382 51.9407 72.2955Z" fill="#C86D02"/>
<path d="M61.8298 72.7882C61.4978 72.8527 61.1805 72.6571 61.1211 72.3513C61.0617 72.0456 61.2826 71.7454 61.6146 71.6809C61.9466 71.6164 62.2639 71.812 62.3233 72.1178C62.3827 72.4235 62.1617 72.7237 61.8298 72.7882Z" fill="#C86D02"/>
<path d="M75.7918 65.1622C75.6137 65.1496 75.4787 65.007 75.4902 64.8438C75.5018 64.6805 75.6555 64.5583 75.8337 64.5709C76.0118 64.5836 76.1468 64.7261 76.1353 64.8894C76.1237 65.0527 75.9699 65.1748 75.7918 65.1622Z" fill="#FFC785"/>
<path d="M73.6693 68.931C73.4031 68.9121 73.2013 68.699 73.2185 68.4549C73.2358 68.2109 73.4657 68.0283 73.7319 68.0472C73.9981 68.066 74.2 68.2791 74.1827 68.5232C74.1654 68.7672 73.9356 68.9498 73.6693 68.931Z" fill="#FFC785"/>
<path d="M72.7713 64.6513C72.3775 64.6234 72.0791 64.3082 72.1046 63.9473C72.1302 63.5863 72.4701 63.3163 72.8638 63.3442C73.2576 63.3721 73.5561 63.6873 73.5305 64.0482C73.505 64.4092 73.165 64.6792 72.7713 64.6513Z" fill="#FFC785"/>
<path d="M69.4184 65.4478C69.1085 65.4258 68.8736 65.1778 68.8937 64.8937C68.9138 64.6097 69.1813 64.3972 69.4912 64.4191C69.8011 64.441 70.036 64.6891 70.0159 64.9732C69.9958 65.2572 69.7282 65.4697 69.4184 65.4478Z" fill="#FFC785"/>
<path d="M66.6606 63.2475C66.3507 63.2256 66.1158 62.9775 66.1359 62.6935C66.156 62.4094 66.4235 62.1969 66.7334 62.2189C67.0433 62.2408 67.2782 62.4889 67.2581 62.7729C67.238 63.057 66.9705 63.2695 66.6606 63.2475Z" fill="#FFC785"/>
<path d="M62.2875 66.3204C62.262 66.6813 62.5605 66.9965 62.9542 67.0244C63.348 67.0522 63.6879 66.7822 63.7134 66.4213C63.739 66.0603 63.4405 65.7452 63.0467 65.7173C62.653 65.6894 62.3131 65.9594 62.2875 66.3204Z" fill="#FFC785"/>
<path d="M68.4935 68.3909C68.4679 68.7518 68.7664 69.067 69.1602 69.0949C69.5539 69.1228 69.8938 68.8528 69.9194 68.4918C69.9449 68.1309 69.6465 67.8157 69.2527 67.7878C68.859 67.7599 68.519 68.0299 68.4935 68.3909Z" fill="#FFC785"/>
<path d="M49.461 72.9322C49.0673 72.9043 48.7688 72.5892 48.7943 72.2282C48.8199 71.8673 49.1598 71.5973 49.5535 71.6251C49.9473 71.653 50.2458 71.9682 50.2202 72.3292C50.1947 72.6901 49.8548 72.9601 49.461 72.9322Z" fill="#FFC785"/>
<path d="M58.127 66.9612C58.1098 67.2053 58.3116 67.4184 58.5778 67.4373C58.8441 67.4561 59.0739 67.2735 59.0912 67.0295C59.1085 66.7854 58.9066 66.5723 58.6404 66.5535C58.3742 66.5346 58.1443 66.7172 58.127 66.9612Z" fill="#FFC785"/>
<path d="M63.582 72.8667C63.3157 72.8478 63.1139 72.6347 63.1312 72.3906C63.1484 72.1466 63.3783 71.964 63.6445 71.9829C63.9108 72.0017 64.1126 72.2148 64.0953 72.4589C64.078 72.7029 63.8482 72.8855 63.582 72.8667Z" fill="#FFC785"/>
<path d="M70.5981 71.5408C70.5808 71.7848 70.7827 71.998 71.0489 72.0168C71.3151 72.0357 71.545 71.8531 71.5623 71.609C71.5795 71.365 71.3777 71.1518 71.1115 71.133C70.8452 71.1142 70.6154 71.2967 70.5981 71.5408Z" fill="#FFC785"/>
<path d="M63.9778 60.4298C63.9606 60.6739 64.1624 60.887 64.4286 60.9059C64.6949 60.9247 64.9247 60.7421 64.942 60.4981C64.9593 60.254 64.7574 60.0409 64.4912 60.022C64.225 60.0032 63.9951 60.1858 63.9778 60.4298Z" fill="#FFC785"/>
<path d="M70.6803 60.1662C70.5022 60.1536 70.3671 60.011 70.3787 59.8477C70.3903 59.6844 70.544 59.5623 70.7221 59.5749C70.9003 59.5875 71.0353 59.7301 71.0237 59.8934C71.0122 60.0567 70.8584 60.1788 70.6803 60.1662Z" fill="#FFC785"/>
<path d="M67.4797 59.6425C67.4681 59.8058 67.6032 59.9484 67.7813 59.961C67.9594 59.9736 68.1132 59.8514 68.1248 59.6882C68.1363 59.5249 68.0013 59.3823 67.8232 59.3697C67.645 59.3571 67.4913 59.4792 67.4797 59.6425Z" fill="#FFC785"/>
<path d="M72.2205 62.3102C72.209 62.4735 72.344 62.616 72.5221 62.6286C72.7002 62.6413 72.854 62.5191 72.8656 62.3558C72.8771 62.1926 72.7421 62.05 72.564 62.0374C72.3859 62.0247 72.2321 62.1469 72.2205 62.3102Z" fill="#FFC785"/>
<path d="M66.5129 68.7215C66.3347 68.7089 66.1997 68.5663 66.2113 68.403C66.2228 68.2397 66.3766 68.1176 66.5547 68.1302C66.7328 68.1428 66.8679 68.2854 66.8563 68.4487C66.8448 68.612 66.691 68.7341 66.5129 68.7215Z" fill="#FFC785"/>
<path d="M56.4527 70.3925C56.4411 70.5557 56.5762 70.6983 56.7543 70.7109C56.9324 70.7235 57.0862 70.6014 57.0977 70.4381C57.1093 70.2748 56.9743 70.1322 56.7961 70.1196C56.618 70.107 56.4642 70.2292 56.4527 70.3925Z" fill="#FFC785"/>
<path d="M47.9223 70.2327C47.7441 70.2201 47.6091 70.0775 47.6207 69.9142C47.6322 69.751 47.786 69.6288 47.9641 69.6414C48.1422 69.654 48.2773 69.7966 48.2657 69.9599C48.2541 70.1232 48.1004 70.2453 47.9223 70.2327Z" fill="#FFC785"/>
<path d="M52.0573 70.5254C52.0458 70.6887 52.1808 70.8313 52.3589 70.8439C52.537 70.8565 52.6908 70.7344 52.7024 70.5711C52.7139 70.4078 52.5789 70.2652 52.4008 70.2526C52.2226 70.24 52.0689 70.3621 52.0573 70.5254Z" fill="#FFC785"/>
<path d="M70.1155 40.1962C72.7204 37.4578 73.06 31.5783 71.2348 27.1384C69.0716 21.876 64.3458 19.8004 60.2593 21.4802C56.1728 23.1601 54.2732 27.9594 56.4364 33.2218C58.2616 37.6616 62.6381 41.6024 66.4159 41.717L68.0109 45.5972C67.4155 46.425 67.1826 47.7962 67.483 49.25C67.93 51.4135 69.4474 52.4508 70.7996 52.1714C71.5398 52.0185 72.077 51.5027 72.3384 50.7122C73.0221 50.8996 73.6887 50.7306 74.2758 50.3166C75.4042 49.521 75.8115 48.1217 74.5385 46.3163C73.7586 45.2102 72.7258 44.4745 71.7833 44.2535L70.1155 40.1962Z" fill="#F9A23C"/>
<path fill-rule="evenodd" clip-rule="evenodd" d="M70.1154 40.1962L71.7833 44.2534C72.7258 44.4745 73.7586 45.2102 74.5385 46.3163C75.8115 48.1217 75.4042 49.521 74.2758 50.3166C73.6887 50.7306 73.0221 50.8996 72.3383 50.7122C72.077 51.5027 71.5398 52.0185 70.7996 52.1714C69.4474 52.4508 67.93 51.4135 67.483 49.25C67.1826 47.7962 67.4155 46.425 68.0109 45.5972L66.4158 41.717C62.6381 41.6024 58.2616 37.6616 56.4364 33.2218C54.2732 27.9594 56.1728 23.1601 60.2593 21.4802C64.3458 19.8004 69.0716 21.876 71.2348 27.1384C73.06 31.5783 72.7204 37.4578 70.1154 40.1962ZM65.724 42.6643C63.7353 42.4123 61.741 41.3215 60.0391 39.8472C58.1334 38.1963 56.4869 35.9747 55.5115 33.602C53.1843 27.9407 55.1766 22.4884 59.8791 20.5553C64.5816 18.6222 69.8325 21.097 72.1597 26.7582C73.1351 29.131 73.5271 31.8682 73.3335 34.3822C73.1605 36.6272 72.51 38.8052 71.2735 40.3831L72.5291 43.4376C73.5842 43.833 74.5956 44.6619 75.3557 45.74C76.0869 46.7769 76.4235 47.8238 76.3001 48.8183C76.1751 49.8255 75.5993 50.607 74.852 51.1339C74.2939 51.5275 73.6387 51.7795 72.9354 51.7884C72.5089 52.4788 71.8526 52.975 71.0019 53.1508C68.9263 53.5796 67.0205 51.9539 66.5037 49.4524C66.2127 48.0438 66.3406 46.6024 66.8954 45.5137L65.724 42.6643Z" fill="#7C3705"/>
<path fill-rule="evenodd" clip-rule="evenodd" d="M71.2348 27.1384C73.06 31.5783 72.7204 37.4578 70.1154 40.1962L71.7833 44.2535C72.7258 44.4745 73.7586 45.2102 74.5385 46.3163C75.8115 48.1217 75.4042 49.521 74.2758 50.3166C74.2226 50.3541 74.1687 50.3896 74.1143 50.4231C74.2458 49.6616 74.0217 48.7459 73.2894 47.7073C72.4361 46.4972 71.3062 45.6922 70.2749 45.4504L68.0312 40.2073C70.0625 37.176 70.9375 31.8323 68.0312 26.9261C66.5679 23.5777 63.5574 21.7811 60.4044 21.4223C64.457 19.8499 69.0971 21.9382 71.2348 27.1384Z" fill="#D77B10"/>
<path d="M65.5 26.926C65.5 27.8925 64.8564 28.676 64.0625 28.676C63.2686 28.676 62.625 27.8925 62.625 26.926C62.625 25.9595 63.2686 25.176 64.0625 25.176C64.8564 25.176 65.5 25.9595 65.5 26.926Z" fill="#C86D02"/>
<path d="M69.3667 28.3397C69.8307 28.8032 69.8608 29.5254 69.4339 29.9527C69.0069 30.3801 68.2847 30.3508 67.8207 29.8873C67.3568 29.4238 67.3267 28.7016 67.7536 28.2742C68.1805 27.8469 68.9028 27.8762 69.3667 28.3397Z" fill="#C86D02"/>
<path d="M69.0224 33.5559C69.6258 34.1586 69.6649 35.0977 69.1097 35.6534C68.5546 36.2092 67.6154 36.171 67.0121 35.5683C66.4087 34.9656 66.3697 34.0265 66.9248 33.4708C67.48 32.9151 68.4191 32.9532 69.0224 33.5559Z" fill="#C86D02"/>
<path d="M64.0772 33.8444C63.8374 34.6629 63.032 35.1473 62.2782 34.9265C61.5244 34.7057 61.1076 33.8632 61.3474 33.0448C61.5871 32.2263 62.3926 31.7419 63.1464 31.9627C63.9002 32.1835 64.3169 33.026 64.0772 33.8444Z" fill="#C86D02"/>
<path d="M61.5759 29.0758C61.3361 29.8942 60.5307 30.3787 59.7769 30.1579C59.0231 29.9371 58.6063 29.0946 58.8461 28.2761C59.0858 27.4577 59.8913 26.9733 60.6451 27.1941C61.3989 27.4149 61.8156 28.2574 61.5759 29.0758Z" fill="#C86D02"/>
<path d="M64.9431 37.8065C65.1134 38.4398 64.7785 39.0804 64.1951 39.2372C63.6117 39.394 63.0008 39.0076 62.8306 38.3743C62.6604 37.7409 62.9953 37.1004 63.5786 36.9436C64.162 36.7868 64.7729 37.1731 64.9431 37.8065Z" fill="#C86D02"/>
<path d="M64.7841 22.1939C65.3852 22.5397 65.657 23.1946 65.3912 23.6567C65.1253 24.1188 64.4226 24.2132 63.8215 23.8674C63.2204 23.5217 62.9486 22.8668 63.2144 22.4046C63.4802 21.9425 64.183 21.8482 64.7841 22.1939Z" fill="#C86D02"/>
<path d="M59.2148 26.3588C58.8298 26.9355 58.1583 27.1631 57.7149 26.8671C57.2715 26.5711 57.2241 25.8637 57.6091 25.2869C57.9941 24.7102 58.6657 24.4826 59.1091 24.7785C59.5525 25.0745 59.5998 25.782 59.2148 26.3588Z" fill="#C86D02"/>
<path d="M61.4307 35.3231C62.0161 35.6948 62.259 36.361 61.9732 36.8111C61.6875 37.2611 60.9813 37.3247 60.3959 36.953C59.8104 36.5813 59.5675 35.9151 59.8533 35.465C60.139 35.015 60.8453 34.9515 61.4307 35.3231Z" fill="#C86D02"/>
<path d="M71.3201 31.99C71.1883 32.6878 70.7788 33.1963 70.4055 33.1258C70.0322 33.0553 69.8364 32.4324 69.9682 31.7346C70.1 31.0369 70.5095 30.5283 70.8828 30.5988C71.2561 30.6694 71.4518 31.2922 71.3201 31.99Z" fill="#C86D02"/>
<path d="M69.621 48.1038C69.4892 48.8016 69.0798 49.3101 68.7065 49.2396C68.3332 49.1691 68.1374 48.5463 68.2692 47.8485C68.401 47.1507 68.8105 46.6422 69.1837 46.7127C69.557 46.7832 69.7528 47.406 69.621 48.1038Z" fill="#C86D02"/>
<path d="M59.9291 31.7347C60.0567 32.2095 59.8056 32.6898 59.3682 32.8073C58.9309 32.9249 58.4729 32.6352 58.3453 32.1604C58.2176 31.6855 58.4687 31.2053 58.9061 31.0877C59.3434 30.9702 59.8014 31.2598 59.9291 31.7347Z" fill="#C86D02"/>
<path d="M65.7018 30.5137C65.8294 30.9885 65.5783 31.4688 65.141 31.5863C64.7036 31.7039 64.2456 31.4142 64.118 30.9394C63.9903 30.4645 64.2414 29.9843 64.6788 29.8667C65.1161 29.7492 65.5741 30.0388 65.7018 30.5137Z" fill="#C86D02"/>
<path d="M61.5129 23.8905C61.6405 24.3654 61.3894 24.8456 60.9521 24.9631C60.5147 25.0807 60.0567 24.791 59.9291 24.3162C59.8014 23.8414 60.0525 23.3611 60.4899 23.2436C60.9272 23.126 61.3852 23.4157 61.5129 23.8905Z" fill="#C86D02"/>
<path d="M68.3627 25.6101C68.4903 26.0849 68.2392 26.5651 67.8018 26.6827C67.3645 26.8002 66.9065 26.5106 66.7788 26.0357C66.6512 25.5609 66.9023 25.0807 67.3397 24.9631C67.777 24.8456 68.235 25.1352 68.3627 25.6101Z" fill="#C86D02"/>
<path d="M69.3856 37.8775C69.5133 38.3524 69.2622 38.8326 68.8248 38.9501C68.3875 39.0677 67.9295 38.778 67.8018 38.3032C67.6742 37.8284 67.9253 37.3481 68.3627 37.2306C68.8 37.113 69.258 37.4027 69.3856 37.8775Z" fill="#C86D02"/>
<path d="M69.9465 43.5025C70.0741 43.9774 69.823 44.4576 69.3857 44.5751C68.9483 44.6927 68.4903 44.403 68.3627 43.9282C68.235 43.4534 68.4861 42.9731 68.9235 42.8556C69.3608 42.738 69.8188 43.0277 69.9465 43.5025Z" fill="#C86D02"/>
<path d="M73.7369 46.6275C73.8646 47.1024 73.6135 47.5826 73.1761 47.7001C72.7388 47.8177 72.2808 47.528 72.1531 47.0532C72.0255 46.5784 72.2766 46.0981 72.7139 45.9806C73.1513 45.863 73.6093 46.1527 73.7369 46.6275Z" fill="#C86D02"/>
<path d="M71.4259 50.2495C71.5137 50.5761 71.341 50.9064 71.0401 50.9873C70.7393 51.0681 70.4243 50.8689 70.3365 50.5423C70.2487 50.2157 70.4214 49.8854 70.7222 49.8045C71.0231 49.7237 71.3381 49.9229 71.4259 50.2495Z" fill="#C86D02"/>
<path d="M74.127 49.0995C74.2148 49.4261 74.0421 49.7565 73.7412 49.8373C73.4404 49.9182 73.1254 49.7189 73.0376 49.3923C72.9498 49.0657 73.1225 48.7354 73.4233 48.6546C73.7242 48.5737 74.0392 48.7729 74.127 49.0995Z" fill="#C86D02"/>
<path d="M68.1154 40.3495C68.2032 40.6761 68.0305 41.0065 67.7297 41.0873C67.4289 41.1682 67.1138 40.9689 67.0261 40.6423C66.9383 40.3157 67.111 39.9854 67.4118 39.9046C67.7126 39.8237 68.0276 40.0229 68.1154 40.3495Z" fill="#C86D02"/>
<path d="M66.8217 37.0346C66.9095 37.3612 66.7368 37.6915 66.4359 37.7724C66.1351 37.8532 65.8201 37.654 65.7323 37.3274C65.6445 37.0008 65.8172 36.6705 66.118 36.5896C66.4189 36.5088 66.7339 36.708 66.8217 37.0346Z" fill="#C86D02"/>
<path d="M66.0447 33.3187C66.1325 33.6453 65.9598 33.9756 65.6589 34.0565C65.3581 34.1373 65.0431 33.9381 64.9553 33.6115C64.8675 33.2849 65.0402 32.9546 65.341 32.8737C65.6419 32.7929 65.9569 32.9921 66.0447 33.3187Z" fill="#C86D02"/>
<path d="M68.1243 31.2729C68.2022 31.5628 68.0489 31.8559 67.7819 31.9277C67.5149 31.9994 67.2354 31.8226 67.1575 31.5328C67.0795 31.2429 67.2328 30.9498 67.4998 30.878C67.7668 30.8062 68.0464 30.9831 68.1243 31.2729Z" fill="#C86D02"/>
<path d="M57.3954 29.3784C57.4733 29.6683 57.3201 29.9615 57.0531 30.0332C56.7861 30.105 56.5065 29.9282 56.4286 29.6383C56.3507 29.3484 56.504 29.0553 56.771 28.9835C57.0379 28.9118 57.3175 29.0886 57.3954 29.3784Z" fill="#C86D02"/>
<path d="M62.8357 30.4281C62.9136 30.718 62.7604 31.0111 62.4934 31.0829C62.2264 31.1546 61.9468 30.9778 61.8689 30.688C61.791 30.3981 61.9443 30.105 62.2113 30.0332C62.4782 29.9615 62.7578 30.1383 62.8357 30.4281Z" fill="#C86D02"/>
<path d="M71.3147 46.0327C71.3926 46.3225 71.2394 46.6157 70.9724 46.6874C70.7054 46.7592 70.4258 46.5824 70.3479 46.2925C70.27 46.0027 70.4233 45.7095 70.6903 45.6378C70.9572 45.566 71.2368 45.7428 71.3147 46.0327Z" fill="#C86D02"/>
<path d="M71.108 36.1335C71.1958 36.4601 71.0231 36.7904 70.7222 36.8713C70.4214 36.9522 70.1064 36.7529 70.0186 36.4263C69.9308 36.0997 70.1035 35.7694 70.4043 35.6886C70.7052 35.6077 71.0202 35.8069 71.108 36.1335Z" fill="#C86D02"/>
<path d="M62.5151 22.745C62.5151 22.9235 62.3824 23.0683 62.2187 23.0683C62.0551 23.0683 61.9224 22.9235 61.9224 22.745C61.9224 22.5664 62.0551 22.4216 62.2187 22.4216C62.3824 22.4216 62.5151 22.5664 62.5151 22.745Z" fill="#FFC785"/>
<path d="M66.4243 24.596C66.4243 24.8629 66.226 25.0793 65.9813 25.0793C65.7366 25.0793 65.5383 24.8629 65.5383 24.596C65.5383 24.3291 65.7366 24.1127 65.9813 24.1127C66.226 24.1127 66.4243 24.3291 66.4243 24.596Z" fill="#FFC785"/>
<path d="M62.2187 25.794C62.2187 26.1888 61.9254 26.5088 61.5636 26.5088C61.2017 26.5088 60.9084 26.1888 60.9084 25.794C60.9084 25.3993 61.2017 25.0793 61.5636 25.0793C61.9254 25.0793 62.2187 25.3993 62.2187 25.794Z" fill="#FFC785"/>
<path d="M63.25 29.0823C63.25 29.393 63.0191 29.6448 62.7344 29.6448C62.4496 29.6448 62.2187 29.393 62.2187 29.0823C62.2187 28.7717 62.4496 28.5198 62.7344 28.5198C63.0191 28.5198 63.25 28.7717 63.25 29.0823Z" fill="#FFC785"/>
<path d="M61.25 31.9886C61.25 32.2992 61.0191 32.5511 60.7344 32.5511C60.4496 32.5511 60.2187 32.2992 60.2187 31.9886C60.2187 31.6779 60.4496 31.4261 60.7344 31.4261C61.0191 31.4261 61.25 31.6779 61.25 31.9886Z" fill="#FFC785"/>
<path d="M64.6239 36.1338C64.9858 36.1338 65.2791 35.8138 65.2791 35.419C65.2791 35.0243 64.9858 34.7043 64.6239 34.7043C64.2621 34.7043 63.9687 35.0243 63.9687 35.419C63.9687 35.8138 64.2621 36.1338 64.6239 36.1338Z" fill="#FFC785"/>
<path d="M66.2511 29.7971C66.6129 29.7971 66.9062 29.4771 66.9062 29.0823C66.9062 28.6876 66.6129 28.3676 66.2511 28.3676C65.8892 28.3676 65.5959 28.6876 65.5959 29.0823C65.5959 29.4771 65.8892 29.7971 66.2511 29.7971Z" fill="#FFC785"/>
<path d="M72.125 48.4614C72.125 48.8561 71.8317 49.1761 71.4698 49.1761C71.108 49.1761 70.8146 48.8561 70.8146 48.4614C70.8146 48.0666 71.108 47.7466 71.4698 47.7466C71.8317 47.7466 72.125 48.0666 72.125 48.4614Z" fill="#FFC785"/>
<path d="M65.557 40.2386C65.8017 40.2386 66 40.0222 66 39.7553C66 39.4884 65.8017 39.272 65.557 39.272C65.3123 39.272 65.114 39.4884 65.114 39.7553C65.114 40.0222 65.3123 40.2386 65.557 40.2386Z" fill="#FFC785"/>
<path d="M71.0625 34.3803C71.0625 34.6472 70.8642 34.8636 70.6195 34.8636C70.3748 34.8636 70.1765 34.6472 70.1765 34.3803C70.1765 34.1134 70.3748 33.897 70.6195 33.897C70.8642 33.897 71.0625 34.1134 71.0625 34.3803Z" fill="#FFC785"/>
<path d="M69.2445 27.4753C69.4892 27.4753 69.6875 27.2589 69.6875 26.992C69.6875 26.7251 69.4892 26.5087 69.2445 26.5087C68.9998 26.5087 68.8015 26.7251 68.8015 26.992C68.8015 27.2589 68.9998 27.4753 69.2445 27.4753Z" fill="#FFC785"/>
<path d="M58.6287 34.8636C58.8734 34.8636 59.0717 34.6472 59.0717 34.3803C59.0717 34.1134 58.8734 33.897 58.6287 33.897C58.3841 33.897 58.1857 34.1134 58.1857 34.3803C58.1857 34.6472 58.3841 34.8636 58.6287 34.8636Z" fill="#FFC785"/>
<path d="M57.8925 28.1965C57.8925 28.3751 57.7598 28.5198 57.5961 28.5198C57.4324 28.5198 57.2997 28.3751 57.2997 28.1965C57.2997 28.0179 57.4324 27.8732 57.5961 27.8732C57.7598 27.8732 57.8925 28.0179 57.8925 28.1965Z" fill="#FFC785"/>
<path d="M57.5961 31.4261C57.7598 31.4261 57.8925 31.2813 57.8925 31.1028C57.8925 30.9242 57.7598 30.7794 57.5961 30.7794C57.4324 30.7794 57.2997 30.9242 57.2997 31.1028C57.2997 31.2813 57.4324 31.4261 57.5961 31.4261Z" fill="#FFC785"/>
<path d="M59.9224 26.5087C60.0861 26.5087 60.2187 26.364 60.2187 26.1854C60.2187 26.0068 60.0861 25.8621 59.9224 25.8621C59.7587 25.8621 59.626 26.0068 59.626 26.1854C59.626 26.364 59.7587 26.5087 59.9224 26.5087Z" fill="#FFC785"/>
<path d="M66.7207 31.7494C66.7207 31.928 66.588 32.0728 66.4243 32.0728C66.2606 32.0728 66.1279 31.928 66.1279 31.7494C66.1279 31.5708 66.2606 31.4261 66.4243 31.4261C66.588 31.4261 66.7207 31.5708 66.7207 31.7494Z" fill="#FFC785"/>
<path d="M69.0979 41.6665C69.2616 41.6665 69.3943 41.5217 69.3943 41.3432C69.3943 41.1646 69.2616 41.0198 69.0979 41.0198C68.9342 41.0198 68.8015 41.1646 68.8015 41.3432C68.8015 41.5217 68.9342 41.6665 69.0979 41.6665Z" fill="#FFC785"/>
<path d="M69.5409 50.1869C69.5409 50.3655 69.4082 50.5103 69.2445 50.5103C69.0808 50.5103 68.9481 50.3655 68.9481 50.1869C68.9481 50.0083 69.0808 49.8636 69.2445 49.8636C69.4082 49.8636 69.5409 50.0083 69.5409 50.1869Z" fill="#FFC785"/>
<path d="M69.5409 46.0415C69.7046 46.0415 69.8373 45.8967 69.8373 45.7182C69.8373 45.5396 69.7046 45.3948 69.5409 45.3948C69.3772 45.3948 69.2445 45.5396 69.2445 45.7182C69.2445 45.8967 69.3772 46.0415 69.5409 46.0415Z" fill="#FFC785"/>
</svg>
