<svg width="96" height="97" viewBox="0 0 96 97" fill="none" xmlns="http://www.w3.org/2000/svg">
<path fill-rule="evenodd" clip-rule="evenodd" d="M84.6497 31.8898C84.7274 32.4366 84.3472 32.9429 83.8005 33.0207L23.0158 41.6662C22.469 41.744 21.9627 41.3638 21.885 40.817C21.8072 40.2702 22.1874 39.7639 22.7342 39.6862L83.5188 31.0406C84.0656 30.9628 84.5719 31.3431 84.6497 31.8898Z" fill="#403D3D"/>
<path d="M69.6766 25.9773C67.5368 24.9341 64.7427 26.3214 63.7059 27.7774C62.5872 29.3484 63.0424 31.5411 62.8242 34.2868C62.5515 37.7189 64.9941 38.8461 66.7506 40.4665C68.5071 42.0868 72.4639 43.6339 74.4829 40.7985C76.5019 37.9631 77.4638 36.9041 76.4571 33.4848C75.4503 30.0655 72.3513 27.2813 69.6766 25.9773Z" fill="#9F521A"/>
<path fill-rule="evenodd" clip-rule="evenodd" d="M62.0767 26.6174L62.0767 26.6174C62.8692 25.5045 64.1862 24.5726 65.5941 24.0606C67.0152 23.5438 68.844 23.3464 70.553 24.1796C73.5555 25.6435 77.1618 28.7976 78.3756 32.92C78.9481 34.8643 79.046 36.4426 78.492 38.0225C78.0635 39.2443 77.2507 40.3742 76.4396 41.5018C76.3301 41.654 76.2206 41.8062 76.1121 41.9586C74.5359 44.1722 72.1725 44.5951 70.2009 44.2781C68.3083 43.9739 66.5279 42.9822 65.3945 41.9366C65.114 41.6779 64.8271 41.4455 64.4855 41.1688C64.3613 41.0682 64.2298 40.9617 64.0889 40.846C63.6 40.4448 63.0313 39.9583 62.5187 39.3703C61.4134 38.1022 60.6464 36.4444 60.8305 34.1284C60.8793 33.5144 60.8914 32.9196 60.8968 32.3145C60.8977 32.2071 60.8984 32.0976 60.8992 31.9867C60.9025 31.4971 60.9059 30.9799 60.9297 30.4937C60.9881 29.3027 61.1758 27.8826 62.0767 26.6174ZM63.7059 27.7775C64.7427 26.3215 67.5368 24.9341 69.6765 25.9774C72.3513 27.2814 75.4503 30.0655 76.4571 33.4849C77.4079 36.7141 76.6028 37.8381 74.8096 40.3415C74.7041 40.4888 74.5951 40.641 74.4829 40.7986C72.4639 43.634 68.5071 42.0869 66.7506 40.4666C66.4188 40.1605 66.0626 39.8721 65.7048 39.5824C64.1682 38.3382 62.603 37.0708 62.8242 34.2869C62.8892 33.4689 62.8944 32.7001 62.8993 31.9821C62.9109 30.2899 62.9205 28.8805 63.7059 27.7775Z" fill="#6F3307"/>
<path d="M69.6828 32.2643C71.4522 36.077 70.4698 40.2895 67.4884 41.6732C64.507 43.0568 60.6557 41.0877 58.8862 37.2749C57.1167 33.4622 58.0992 29.2497 61.0806 27.866C64.0619 26.4824 67.9133 28.4515 69.6828 32.2643Z" fill="#CAA67B"/>
<path fill-rule="evenodd" clip-rule="evenodd" d="M71.4969 31.4224C73.5268 35.7962 72.7038 41.4576 68.3304 43.4874C63.9569 45.5171 59.1019 42.4908 57.0721 38.1169C55.0422 33.743 55.8651 28.0816 60.2386 26.0519C64.6121 24.0222 69.467 27.0485 71.4969 31.4224ZM67.4884 41.6732C70.4698 40.2896 71.4523 36.077 69.6828 32.2643C67.9133 28.4516 64.062 26.4824 61.0806 27.8661C58.0992 29.2497 57.1167 33.4622 58.8862 37.275C60.6557 41.0877 64.507 43.0569 67.4884 41.6732Z" fill="#947046"/>
<path d="M57.5945 43.2345C59.7043 44.3369 62.9386 43.0569 63.9173 41.7604C64.6825 40.7468 64.9943 37.9198 65.2889 35.1813C65.6571 31.758 62.9517 29.8925 61.241 28.2238C59.5303 26.5552 54.7203 25.0104 52.6231 27.7884C50.7526 30.2662 50.0859 32.2735 50.997 35.7196C51.9081 39.1657 54.9571 41.8564 57.5945 43.2345Z" fill="#9F521A"/>
<path fill-rule="evenodd" clip-rule="evenodd" d="M61.7339 45.3188C60.2761 45.7389 58.3549 45.8883 56.6683 45.007C53.7682 43.4917 50.1744 40.4326 49.0634 36.2308C48.5513 34.2937 48.4382 32.5879 48.8181 30.9413C49.1942 29.311 50.0111 27.929 51.0269 26.5834C52.7047 24.3608 55.3411 24.0609 57.3688 24.36C59.3912 24.6582 61.432 25.6162 62.6375 26.7921C62.7987 26.9493 63.0025 27.136 63.2325 27.3467C63.9446 27.9992 64.9077 28.8817 65.6327 29.8289C66.6958 31.2178 67.5309 33.0391 67.2774 35.3951C67.1319 36.7479 66.9734 38.2123 66.7483 39.47C66.6353 40.1015 66.4978 40.7267 66.3211 41.2892C66.1531 41.8241 65.9074 42.4437 65.5135 42.9654M61.7339 45.3188C63.1656 44.9062 64.67 44.0827 65.5135 42.9654L61.7339 45.3188ZM63.9173 41.7604C62.9386 43.0568 59.7043 44.3369 57.5945 43.2344C54.9571 41.8564 51.9081 39.1656 50.997 35.7196C50.0859 32.2735 50.7526 30.2661 52.6231 27.7884C54.7203 25.0103 59.5303 26.5551 61.241 28.2238C61.4813 28.4581 61.7412 28.6964 62.0094 28.9423C63.6511 30.4472 65.6054 32.2388 65.2889 35.1812C64.9943 37.9198 64.6825 40.7468 63.9173 41.7604Z" fill="#6F3307"/>
<path d="M60.6353 30.2025C61.2841 31.1462 61.1926 32.3359 60.4307 32.8598C59.6688 33.3836 58.5252 33.0433 57.8763 32.0996C57.2274 31.1559 57.319 29.9662 58.0809 29.4423C58.8427 28.9185 59.9864 29.2588 60.6353 30.2025Z" fill="#904712"/>
<path d="M57.8358 33.1095C59.6053 36.9222 58.6228 41.1347 55.6415 42.5184C52.6601 43.902 48.8087 41.9329 47.0392 38.1201C45.2698 34.3074 46.2522 30.0949 49.2336 28.7112C52.215 27.3276 56.0663 29.2967 57.8358 33.1095Z" fill="#90D61F"/>
<path fill-rule="evenodd" clip-rule="evenodd" d="M59.65 32.2676C61.6799 36.6414 60.8569 42.3029 56.4834 44.3326C52.1099 46.3623 47.255 43.336 45.2251 38.9621C43.1952 34.5882 44.0182 28.9268 48.3917 26.8971C52.7651 24.8674 57.6201 27.8937 59.65 32.2676ZM55.6415 42.5184C58.6229 41.1348 59.6053 36.9223 57.8358 33.1095C56.0663 29.2968 52.215 27.3276 49.2336 28.7113C46.2522 30.0949 45.2698 34.3074 47.0392 38.1202C48.8087 41.9329 52.6601 43.9021 55.6415 42.5184Z" fill="#6DA90C"/>
<path d="M45.4734 44.9571C47.6956 45.8107 49.8988 43.2241 50.7227 41.8242C51.4427 41.1199 52.8776 39.0229 52.8567 36.2686C52.8305 32.8257 49.3049 31.4715 47.4144 30.0097C45.5239 28.5479 41.8504 27.2594 40.085 30.2593C38.3197 33.2593 37.7777 34.0319 39.0774 37.351C40.3771 40.67 42.6956 43.8901 45.4734 44.9571Z" fill="#9F521A"/>
<path fill-rule="evenodd" clip-rule="evenodd" d="M49.8401 45.8223C48.6807 46.712 46.8244 47.6184 44.7563 46.824C42.9296 46.1224 41.3874 44.7735 40.1632 43.2526C38.9278 41.7179 37.9275 39.8995 37.2151 38.0802C36.5273 36.3238 36.1625 34.857 36.4695 33.2988C36.7225 32.0148 37.4291 30.8208 38.162 29.5823C38.2284 29.4702 38.2949 29.3578 38.3613 29.2449C39.7174 26.9405 41.9124 26.2834 43.8907 26.4702C45.7383 26.6446 47.479 27.5315 48.6378 28.4274C48.9623 28.6784 49.3478 28.9268 49.8455 29.2476C49.9412 29.3092 50.0411 29.3736 50.1455 29.4412C50.7489 29.8318 51.4621 30.3053 52.129 30.8715C53.4897 32.0266 54.8374 33.7274 54.8566 36.2534C54.8809 39.4567 53.3462 41.9371 52.3164 43.0525C51.7934 43.8885 50.9325 44.9839 49.8401 45.8223ZM50.7227 41.8241C49.8988 43.2241 47.6956 45.8106 45.4734 44.957C42.6956 43.89 40.3771 40.67 39.0774 37.3509C37.8114 34.118 38.2928 33.301 39.9501 30.4884C39.9942 30.4135 40.0392 30.3371 40.085 30.2593C41.8504 27.2593 45.5239 28.5478 47.4144 30.0096C47.8131 30.3179 48.2844 30.6214 48.7804 30.9407C50.6363 32.1355 52.8361 33.5517 52.8567 36.2686C52.8776 39.0229 51.4427 41.1199 50.7227 41.8241Z" fill="#6F3307"/>
<path d="M50.7562 36.4085C51.2641 37.435 51.004 38.5995 50.1753 39.0095C49.3466 39.4195 48.2631 38.9198 47.7552 37.8933C47.2473 36.8668 47.5074 35.7023 48.3361 35.2923C49.1648 34.8823 50.2483 35.382 50.7562 36.4085Z" fill="#904712"/>
<path d="M45.8497 34.9227C47.6191 38.7355 46.6367 42.948 43.6553 44.3316C40.6739 45.7153 36.8226 43.7461 35.0531 39.9334C33.2836 36.1206 34.266 31.9081 37.2474 30.5245C40.2288 29.1408 44.0802 31.11 45.8497 34.9227Z" fill="#CAA67B"/>
<path fill-rule="evenodd" clip-rule="evenodd" d="M47.6638 34.0808C49.6937 38.4547 48.8707 44.1161 44.4972 46.1458C40.1238 48.1755 35.2688 45.1492 33.2389 40.7753C31.209 36.4015 32.032 30.7401 36.4055 28.7104C40.779 26.6806 45.6339 29.7069 47.6638 34.0808ZM43.6553 44.3317C46.6367 42.948 47.6191 38.7355 45.8497 34.9228C44.0802 31.11 40.2288 29.1408 37.2474 30.5245C34.266 31.9082 33.2836 36.1207 35.0531 39.9334C36.8226 43.7461 40.6739 45.7153 43.6553 44.3317Z" fill="#947046"/>
<path d="M34.1486 30.556C32.0088 29.5128 28.8115 30.8825 27.8693 32.2057C27.1326 33.2402 26.8997 36.0748 26.6815 38.8205C26.4088 42.2526 29.1651 44.0421 30.9217 45.6624C32.6782 47.2828 37.5293 48.693 39.5484 45.8575C41.3491 43.3286 41.9596 41.3035 40.9529 37.8841C39.9461 34.4648 36.8233 31.86 34.1486 30.556Z" fill="#A95C24"/>
<path fill-rule="evenodd" clip-rule="evenodd" d="M29.9527 28.5879C31.3982 28.1273 33.3144 27.9244 35.025 28.7584C37.9661 30.1923 41.6438 33.1501 42.8714 37.3193C43.4373 39.2414 43.5979 40.9433 43.264 42.5999C42.9335 44.24 42.1555 45.6443 41.1775 47.0177C39.5623 49.2861 36.9353 49.6593 34.9 49.4169C32.8701 49.1752 30.8034 48.2744 29.5656 47.1326C29.4001 46.9799 29.1912 46.7989 28.9554 46.5947C28.2254 45.9623 27.2381 45.107 26.4869 44.1804C25.3856 42.8217 24.5001 41.0243 24.6878 38.6621C24.7956 37.3059 24.9132 35.8375 25.1032 34.5741C25.1985 33.9397 25.3186 33.3109 25.4795 32.7438C25.6325 32.2044 25.8609 31.5781 26.2401 31.0457M29.9527 28.5879C28.533 29.0402 27.0521 29.9053 26.2401 31.0456L29.9527 28.5879ZM27.8693 32.2057C28.8115 30.8825 32.0088 29.5129 34.1485 30.5561C36.8233 31.8601 39.9461 34.4649 40.9528 37.8842C41.9596 41.3035 41.3491 43.3287 39.5484 45.8576C37.5293 48.693 32.6782 47.2828 30.9217 45.6625C30.6749 45.4349 30.4085 45.204 30.1335 44.9657C28.4506 43.5071 26.4471 41.7707 26.6815 38.8206C26.8997 36.0748 27.1326 33.2403 27.8693 32.2057Z" fill="#6F3307"/>
<path d="M34.7617 32.9928C34.975 33.8257 34.6029 34.6405 33.9305 34.8127C33.2581 34.9849 32.5401 34.4493 32.3268 33.6165C32.1134 32.7836 32.4856 31.9688 33.158 31.7966C33.8304 31.6244 34.5484 32.1599 34.7617 32.9928Z" fill="#964B15"/>
<path d="M38.0714 43.5108C38.2558 44.2306 37.9342 44.9347 37.3531 45.0835C36.7721 45.2323 36.1516 44.7695 35.9673 44.0498C35.7829 43.33 36.1045 42.6259 36.6856 42.4771C37.2666 42.3283 37.8871 42.7911 38.0714 43.5108Z" fill="#964B15"/>
<path d="M39.3421 38.2376C39.6263 39.3471 39.1305 40.4324 38.2349 40.6619C37.3392 40.8913 36.3828 40.1778 36.0986 39.0684C35.8144 37.959 36.3102 36.8736 37.2058 36.6442C38.1015 36.4148 39.058 37.1282 39.3421 38.2376Z" fill="#964B15"/>
<path d="M35.2807 41.0042C35.5648 42.1137 35.0691 43.199 34.1734 43.4285C33.2778 43.6579 32.3213 42.9444 32.0372 41.835C31.753 40.7256 32.2487 39.6402 33.1444 39.4108C34.0401 39.1814 34.9965 39.8948 35.2807 41.0042Z" fill="#964B15"/>
<path d="M32.3131 36.0213C34.0825 39.8341 33.1001 44.0466 30.1187 45.4302C27.1373 46.8139 23.286 44.8447 21.5165 41.032C19.747 37.2193 20.7295 33.0067 23.7108 31.6231C26.6922 30.2394 30.5436 32.2086 32.3131 36.0213Z" fill="#90D61F"/>
<path fill-rule="evenodd" clip-rule="evenodd" d="M34.1272 35.1794C36.1571 39.5533 35.3341 45.2147 30.9606 47.2444C26.5872 49.2742 21.7322 46.2478 19.7023 41.874C17.6724 37.5001 18.4954 31.8387 22.8689 29.809C27.2424 27.7793 32.0973 30.8056 34.1272 35.1794ZM30.1187 45.4303C33.1001 44.0466 34.0825 39.8341 32.3131 36.0214C30.5436 32.2086 26.6922 30.2395 23.7108 31.6231C20.7295 33.0068 19.747 37.2193 21.5165 41.032C23.286 44.8448 27.1373 46.8139 30.1187 45.4303Z" fill="#6DA90C"/>
<path d="M22.1276 31.3163C19.9878 30.2731 17.5685 32.6587 16.6263 33.9819C15.8478 34.6209 14.2364 36.5855 14.0182 39.3313C13.7455 42.7634 17.1403 44.4185 18.8969 46.0389C20.6534 47.6592 24.2012 49.2616 26.2202 46.4262C28.2393 43.5907 28.8462 42.8681 27.8395 39.4487C26.8327 36.0294 24.8023 32.6203 22.1276 31.3163Z" fill="#A95C24"/>
<path fill-rule="evenodd" clip-rule="evenodd" d="M17.8525 30.0754C19.0846 29.2896 21.0127 28.5477 23.0041 29.5186C24.7629 30.3761 26.1823 31.8537 27.2699 33.4751C28.3674 35.1112 29.2062 37.0095 29.758 38.8838C30.2908 40.6933 30.527 42.1862 30.0858 43.7119C29.7224 44.9691 28.9148 46.0973 28.0772 47.2675C28.0014 47.3734 27.9254 47.4796 27.8494 47.5863C26.2985 49.7643 24.0547 50.2285 22.1001 49.8708C20.2747 49.5367 18.6174 48.5021 17.5408 47.5089C17.2392 47.2308 16.8768 46.9499 16.4089 46.5872C16.3189 46.5174 16.2249 46.4446 16.1268 46.3682C15.5595 45.9267 14.8901 45.393 14.2748 44.7711C13.0195 43.5023 11.8244 41.691 12.0245 39.1729C12.2783 35.9795 14.0224 33.6417 15.1452 32.6198C15.7387 31.8324 16.6914 30.8158 17.8525 30.0754ZM16.6263 33.9819C17.5685 32.6587 19.9878 30.2731 22.1276 31.3163C24.8023 32.6203 26.8327 36.0294 27.8395 39.4487C28.8201 42.7793 28.2697 43.5514 26.3746 46.2096C26.3241 46.2804 26.2726 46.3526 26.2203 46.4262C24.2012 49.2616 20.6534 47.6592 18.8969 46.0389C18.5264 45.6972 18.0832 45.3539 17.6168 44.9928C15.8716 43.6415 13.803 42.0397 14.0182 39.3313C14.2364 36.5856 15.8478 34.621 16.6263 33.9819Z" fill="#6F3307"/>
<path fill-rule="evenodd" clip-rule="evenodd" d="M19.2648 33.2549C19.3594 32.7107 19.8772 32.3463 20.4213 32.441C21.056 32.5513 21.8616 32.8906 22.5522 33.2584C23.2385 33.6241 23.9805 34.1078 24.426 34.5957C24.7984 35.0035 24.7696 35.6361 24.3618 36.0084C23.9539 36.3808 23.3214 36.3521 22.949 35.9442C22.7382 35.7134 22.2406 35.3585 21.6119 35.0236C20.9873 34.6909 20.4023 34.4677 20.0786 34.4114C19.5345 34.3168 19.1701 33.799 19.2648 33.2549Z" fill="#D87A36"/>
<path d="M19.5942 37.6421C20.7053 36.9551 22.3883 37.6636 23.3533 39.2245C24.3183 40.7853 24.1999 42.6076 23.0887 43.2945C21.9776 43.9814 20.2946 43.273 19.3296 41.7121C18.3646 40.1512 18.483 38.329 19.5942 37.6421Z" fill="#94460E"/>
<path fill-rule="evenodd" clip-rule="evenodd" d="M21.9697 40.5135C22.0726 41.3355 21.4896 42.0853 20.6676 42.1882L8.87383 43.6646C8.05182 43.7675 7.30202 43.1846 7.19912 42.3626C7.09621 41.5406 7.67916 40.7908 8.50117 40.6879L20.295 39.2114C21.117 39.1085 21.8668 39.6914 21.9697 40.5135Z" fill="#8A8989"/>
<path fill-rule="evenodd" clip-rule="evenodd" d="M89.081 29.6198C89.3882 30.0787 89.2652 30.6999 88.8063 31.0071L29.4313 70.7571C28.9724 71.0643 28.3513 70.9414 28.044 70.4824C27.7368 70.0235 27.8598 69.4024 28.3187 69.0952L87.6937 29.3452C88.1526 29.0379 88.7737 29.1609 89.081 29.6198Z" fill="#403D3D"/>
<path d="M71.625 30.926C69.025 30.926 66.946 33.6254 66.625 35.551C66.2787 37.6287 67.775 39.5635 68.875 42.3635C70.25 45.8635 73.1875 45.801 75.6875 46.551C78.1875 47.301 82.8125 46.926 83.4375 43.176C84.0625 39.426 84.5 37.926 81.875 35.051C79.25 32.176 74.875 30.926 71.625 30.926Z" fill="#A95C24"/>
<path fill-rule="evenodd" clip-rule="evenodd" d="M64.6522 35.2222L64.6522 35.2222C64.8904 33.7933 65.7164 32.281 66.8323 31.1265C67.9579 29.9618 69.614 28.926 71.625 28.926C75.2397 28.926 80.2328 30.2862 83.352 33.7025C84.8294 35.3206 85.6552 36.7887 85.8615 38.5532C86.0223 39.9292 85.7704 41.3984 85.5134 42.8979C85.4788 43.0997 85.4441 43.3021 85.4103 43.5048C84.9372 46.3435 82.8874 47.8464 80.8456 48.4651C78.8805 49.0606 76.6953 48.9414 75.1128 48.4667C74.7075 48.3451 74.3067 48.2525 73.8366 48.1438C73.6674 48.1047 73.4893 48.0635 73.2987 48.0182C72.6288 47.8588 71.85 47.6562 71.0801 47.3305C69.4279 46.6315 67.921 45.4049 67.0135 43.0948C66.7651 42.4624 66.49 41.8679 66.2052 41.2704C66.1543 41.1637 66.1024 41.0552 66.0498 40.9456C65.8188 40.4635 65.5768 39.9586 65.3692 39.4738C64.8602 38.2854 64.3822 36.842 64.6522 35.2222ZM66.625 35.551C66.946 33.6254 69.025 30.926 71.625 30.926C74.875 30.926 79.25 32.176 81.875 35.051C84.3541 37.7662 84.1017 39.255 83.5395 42.5709C83.5064 42.7661 83.4722 42.9676 83.4375 43.176C82.8125 46.926 78.1875 47.301 75.6875 46.551C75.2153 46.4094 74.7275 46.2967 74.2376 46.1835C72.1336 45.6976 69.9903 45.2025 68.875 42.3635C68.5473 41.5294 68.1845 40.7721 67.8456 40.0649C67.047 38.3981 66.3819 37.0098 66.625 35.551Z" fill="#6F3307"/>
<path d="M73.1654 32.8927C73.7786 33.4954 73.8812 34.3852 73.3947 34.8803C72.9082 35.3753 72.0167 35.2881 71.4035 34.6854C70.7903 34.0828 70.6876 33.1929 71.1741 32.6979C71.6607 32.2029 72.5522 32.2901 73.1654 32.8927Z" fill="#964B15"/>
<path d="M81.4361 40.1848C81.966 40.7056 82.0547 41.4746 81.6343 41.9023C81.2138 42.3301 80.4434 42.2548 79.9136 41.734C79.3837 41.2132 79.2949 40.4442 79.7154 40.0164C80.1358 39.5886 80.9062 39.664 81.4361 40.1848Z" fill="#964B15"/>
<path d="M79.7976 35.014C80.6144 35.8168 80.7512 37.0021 80.1031 37.6616C79.455 38.321 78.2675 38.2048 77.4506 37.402C76.6338 36.5993 76.4971 35.4139 77.1451 34.7545C77.7932 34.0951 78.9808 34.2113 79.7976 35.014Z" fill="#964B15"/>
<path d="M77.7514 39.4821C78.5683 40.2848 78.705 41.4702 78.0569 42.1296C77.4088 42.789 76.2213 42.6728 75.4045 41.87C74.5877 41.0673 74.4509 39.8819 75.099 39.2225C75.7471 38.5631 76.9346 38.6793 77.7514 39.4821Z" fill="#964B15"/>
<path d="M74.6403 37.0952C78.2024 39.9914 79.2542 44.5972 76.9895 47.3826C74.7248 50.1679 70.0013 50.0781 66.4392 47.182C62.8772 44.2858 61.8254 39.68 64.0901 36.8946C66.3548 34.1093 71.0783 34.1991 74.6403 37.0952Z" fill="#FB4C26"/>
<path fill-rule="evenodd" clip-rule="evenodd" d="M75.9021 35.5436C79.9441 38.83 81.7741 44.6683 78.5413 48.6445C75.3085 52.6206 69.2196 52.0204 65.1775 48.7339C61.1355 45.4475 59.3055 39.6092 62.5383 35.6331C65.7711 31.657 71.86 32.2572 75.9021 35.5436ZM76.9895 47.3828C79.2542 44.5974 78.2024 39.9916 74.6403 37.0954C71.0783 34.1993 66.3548 34.1094 64.0901 36.8948C61.8254 39.6802 62.8772 44.286 66.4393 47.1821C70.0013 50.0783 74.7248 50.1681 76.9895 47.3828Z" fill="#AA2D11"/>
<path d="M68.0235 53.6509C70.6225 53.7234 73.1849 50.9187 73.5253 49.1775C73.7913 47.8161 72.7444 44.8916 71.7228 42.062C70.4459 38.525 66.8969 37.9885 64.4188 37.1691C61.9407 36.3497 56.4792 37.1353 55.7499 40.8665C55.0995 44.1942 55.4058 46.4841 57.9496 49.4311C60.4935 52.3781 64.7747 53.5604 68.0235 53.6509Z" fill="#A95C24"/>
<path fill-rule="evenodd" clip-rule="evenodd" d="M72.9613 53.579C71.75 54.6723 69.9797 55.7062 67.9677 55.6501C64.4227 55.5513 59.4903 54.2767 56.4357 50.7379C55.019 49.0968 54.1098 47.5026 53.7032 45.7414C53.3004 43.9967 53.4362 42.278 53.7871 40.4828C54.352 37.5923 56.721 36.0721 58.8237 35.405C60.9214 34.7395 63.3432 34.7069 65.0467 35.2702C65.2889 35.3503 65.5852 35.4381 65.917 35.5365C66.9274 35.8359 68.2674 36.2331 69.4161 36.8078C71.0948 37.6476 72.7454 39.0047 73.604 41.3828C74.1091 42.782 74.652 44.2892 75.0309 45.6243C75.2211 46.2944 75.3831 46.9657 75.4773 47.5917C75.5672 48.1892 75.6191 48.8908 75.4881 49.5611M72.9613 53.579C74.1526 52.5039 75.2052 51.0086 75.4881 49.5611L72.9613 53.579ZM73.5253 49.1775C73.1849 50.9187 70.6224 53.7234 68.0235 53.6509C64.7747 53.5603 60.4935 52.3781 57.9496 49.4311C55.4058 46.4841 55.0995 44.1942 55.7499 40.8665C56.4792 37.1353 61.9407 36.3497 64.4188 37.1691C64.7669 37.2841 65.1361 37.3937 65.5171 37.5067C67.849 38.1984 70.6252 39.0218 71.7228 42.062C72.7444 44.8915 73.7913 47.8161 73.5253 49.1775Z" fill="#6F3307"/>
<path d="M63.3952 39.3583C64.0084 39.961 64.1111 40.8508 63.6245 41.3459C63.138 41.8409 62.2465 41.7537 61.6333 41.151C61.0201 40.5484 60.9175 39.6585 61.404 39.1635C61.8905 38.6684 62.782 38.7557 63.3952 39.3583Z" fill="#964B15"/>
<path d="M71.6659 46.6504C72.1958 47.1712 72.2845 47.9401 71.8641 48.3679C71.4437 48.7957 70.6733 48.7203 70.1434 48.1995C69.6135 47.6788 69.5248 46.9098 69.9452 46.482C70.3656 46.0542 71.136 46.1296 71.6659 46.6504Z" fill="#964B15"/>
<path d="M70.0274 41.4796C70.8442 42.2824 70.981 43.4677 70.3329 44.1271C69.6848 44.7866 68.4973 44.6704 67.6805 43.8676C66.8637 43.0648 66.7269 41.8795 67.375 41.2201C68.0231 40.5606 69.2106 40.6768 70.0274 41.4796Z" fill="#964B15"/>
<path d="M67.9813 45.9476C68.7981 46.7504 68.9349 47.9357 68.2868 48.5952C67.6387 49.2546 66.4512 49.1384 65.6343 48.3356C64.8175 47.5329 64.6808 46.3475 65.3288 45.6881C65.9769 45.0287 67.1645 45.1449 67.9813 45.9476Z" fill="#964B15"/>
<path d="M63.4143 43.5952C66.9763 46.4914 68.0281 51.0972 65.7634 53.8826C63.4987 56.6679 58.7752 56.5781 55.2132 53.682C51.6511 50.7858 50.5994 46.18 52.864 43.3946C55.1287 40.6093 59.8522 40.6991 63.4143 43.5952Z" fill="#FF9B26"/>
<path fill-rule="evenodd" clip-rule="evenodd" d="M64.676 42.0436C68.718 45.33 70.548 51.1683 67.3152 55.1445C64.0824 59.1206 57.9935 58.5204 53.9515 55.2339C49.9094 51.9475 48.0794 46.1092 51.3122 42.1331C54.5451 38.157 60.6339 38.7572 64.676 42.0436ZM65.7634 53.8828C68.0281 51.0974 66.9763 46.4916 63.4143 43.5954C59.8522 40.6993 55.1287 40.6094 52.864 43.3948C50.5994 46.1802 51.6511 50.786 55.2132 53.6821C58.7752 56.5783 63.4987 56.6681 65.7634 53.8828Z" fill="#EE7319"/>
<path d="M56.9484 61.1436C59.5385 60.9179 60.4635 57.3241 60.6022 55.5554C60.9721 54.5194 61.377 51.7739 60.0382 49.0799C58.3647 45.7125 54.2552 46.0704 51.6996 45.5402C49.1439 45.0099 44.9208 45.5033 44.6236 49.2934C44.3263 53.0834 44.164 54.1014 47.0286 56.7377C49.8932 59.3741 53.7106 61.4256 56.9484 61.1436Z" fill="#A95C24"/>
<path fill-rule="evenodd" clip-rule="evenodd" d="M61.4844 59.8207C60.7839 61.2253 59.4383 62.9342 57.1219 63.136C55.0358 63.3177 52.9096 62.7437 50.9977 61.845C49.0698 60.9388 47.2328 59.6437 45.6742 58.2093C44.1654 56.8207 43.1377 55.585 42.7071 53.9605C42.3495 52.6113 42.4688 51.1334 42.596 49.5578C42.6073 49.4183 42.6186 49.278 42.6297 49.137C42.8513 46.3114 44.6317 44.6684 46.611 43.9245C48.4674 43.2268 50.5638 43.2619 52.1059 43.5819C52.553 43.6746 53.0596 43.7351 53.7016 43.8117C53.8247 43.8264 53.9528 43.8417 54.0864 43.858C54.8651 43.9525 55.7817 44.0749 56.695 44.3084C58.5556 44.7839 60.6344 45.7856 61.8292 48.1898C63.3671 51.2843 63.0422 54.4163 62.5732 55.9621C62.4633 57.0179 62.1471 58.4917 61.4844 59.8207ZM60.6022 55.5554C60.4635 57.3241 59.5385 60.9179 56.9484 61.1435C53.7106 61.4256 49.8932 59.3741 47.0286 56.7377C44.2384 54.1698 44.3199 53.1373 44.6007 49.5829C44.6082 49.4882 44.6158 49.3917 44.6236 49.2933C44.9208 45.5032 49.1439 45.0099 51.6996 45.5401C52.2385 45.652 52.8465 45.7243 53.4862 45.8004C55.8801 46.0851 58.7176 46.4226 60.0382 49.0799C61.377 51.7739 60.972 54.5194 60.6022 55.5554Z" fill="#6F3307"/>
<path d="M50.7593 46.6171C51.3725 47.2198 51.4752 48.1096 50.9887 48.6046C50.5021 49.0997 49.6106 49.0124 48.9975 48.4098C48.3843 47.8071 48.2816 46.9173 48.7681 46.4223C49.2546 45.9272 50.1461 46.0145 50.7593 46.6171Z" fill="#964B15"/>
<path d="M59.03 53.9092C59.5599 54.43 59.6487 55.1989 59.2282 55.6267C58.8078 56.0545 58.0374 55.9791 57.5075 55.4583C56.9776 54.9376 56.8889 54.1686 57.3093 53.7408C57.7298 53.313 58.5002 53.3884 59.03 53.9092Z" fill="#964B15"/>
<path d="M57.3915 48.7384C58.2084 49.5412 58.3451 50.7265 57.697 51.3859C57.049 52.0454 55.8614 51.9292 55.0446 51.1264C54.2278 50.3236 54.091 49.1383 54.7391 48.4789C55.3872 47.8194 56.5747 47.9356 57.3915 48.7384Z" fill="#964B15"/>
<path d="M55.3454 53.2064C56.1622 54.0092 56.299 55.1945 55.6509 55.854C55.0028 56.5134 53.8153 56.3972 52.9985 55.5944C52.1817 54.7916 52.0449 53.6063 52.693 52.9469C53.3411 52.2874 54.5286 52.4037 55.3454 53.2064Z" fill="#964B15"/>
<path d="M52.5149 51.1123C56.077 54.0085 57.1287 58.6143 54.864 61.3997C52.5994 64.185 47.8759 64.0952 44.3138 61.199C40.7517 58.3029 39.7 53.6971 41.9647 50.9117C44.2293 48.1263 48.9528 48.2162 52.5149 51.1123Z" fill="#FB4C26"/>
<path fill-rule="evenodd" clip-rule="evenodd" d="M53.7766 49.5605C57.8186 52.8469 59.6487 58.6852 56.4158 62.6613C53.183 66.6374 47.0941 66.0372 43.0521 62.7508C39.01 59.4644 37.18 53.6261 40.4129 49.6499C43.6457 45.6738 49.7346 46.274 53.7766 49.5605ZM54.864 61.3996C57.1287 58.6142 56.077 54.0084 52.5149 51.1123C48.9528 48.2161 44.2293 48.1263 41.9647 50.9117C39.7 53.697 40.7517 58.3028 44.3138 61.199C47.8759 64.0952 52.5994 64.185 54.864 61.3996Z" fill="#AA2D11"/>
<path d="M38.9375 52.426C36.3375 52.426 33.8542 55.301 33.5625 57.051C33.3344 58.4193 34.4625 61.3135 35.5625 64.1135C36.9375 67.6135 40.5 68.051 43 68.801C45.5 69.551 50.9375 68.6135 51.5625 64.8635C52.1199 61.5189 51.75 59.2385 49.125 56.3635C46.5 53.4885 42.1875 52.426 38.9375 52.426Z" fill="#A95C24"/>
<path fill-rule="evenodd" clip-rule="evenodd" d="M34.0035 52.6355C35.184 51.5089 36.9247 50.426 38.9375 50.426C42.4839 50.426 47.4499 51.5627 50.602 55.015C52.0638 56.616 53.0171 58.1843 53.4726 59.9334C53.9239 61.6662 53.836 63.3881 53.5353 65.1923C53.0511 68.0975 50.7254 69.6831 48.6421 70.4085C46.5637 71.1322 44.1438 71.2322 42.4253 70.7167C42.1809 70.6434 41.8823 70.5638 41.5478 70.4748C40.5295 70.2035 39.179 69.8439 38.0147 69.3014C36.3133 68.5087 34.6255 67.1981 33.701 64.8448C33.1571 63.4603 32.5724 61.9688 32.1564 60.6448C31.9476 59.9803 31.767 59.3137 31.6554 58.6905C31.5489 58.0958 31.4774 57.3959 31.5897 56.7222M34.0035 52.6355C32.8427 53.7433 31.8322 55.2674 31.5897 56.7222L34.0035 52.6355ZM33.5625 57.051C33.8542 55.301 36.3375 52.426 38.9375 52.426C42.1875 52.426 46.5 53.4885 49.125 56.3635C51.75 59.2385 52.1199 61.5189 51.5625 64.8635C50.9375 68.6135 45.5 69.551 43 68.801C42.6489 68.6957 42.2768 68.5965 41.8927 68.4942C39.5424 67.8677 36.7444 67.1219 35.5625 64.1135C34.4625 61.3135 33.3344 58.4193 33.5625 57.051Z" fill="#6F3307"/>
<path d="M41.1654 54.8927C41.7786 55.4954 41.8812 56.3852 41.3947 56.8803C40.9082 57.3753 40.0167 57.2881 39.4035 56.6854C38.7903 56.0828 38.6876 55.1929 39.1741 54.6979C39.6607 54.2029 40.5522 54.2901 41.1654 54.8927Z" fill="#964B15"/>
<path d="M49.4361 62.1848C49.966 62.7056 50.0547 63.4746 49.6343 63.9023C49.2138 64.3301 48.4434 64.2548 47.9136 63.734C47.3837 63.2132 47.2949 62.4442 47.7154 62.0164C48.1358 61.5886 48.9062 61.664 49.4361 62.1848Z" fill="#964B15"/>
<path d="M47.7976 57.014C48.6144 57.8168 48.7512 59.0021 48.1031 59.6616C47.455 60.321 46.2675 60.2048 45.4506 59.402C44.6338 58.5993 44.4971 57.4139 45.1451 56.7545C45.7932 56.0951 46.9808 56.2113 47.7976 57.014Z" fill="#964B15"/>
<path d="M45.7514 61.4821C46.5683 62.2848 46.705 63.4702 46.0569 64.1296C45.4088 64.789 44.2213 64.6728 43.4045 63.87C42.5877 63.0673 42.4509 61.8819 43.099 61.2225C43.7471 60.5631 44.9346 60.6793 45.7514 61.4821Z" fill="#964B15"/>
<path d="M39.7514 58.6699C43.3135 61.5661 44.3652 66.1719 42.1005 68.9573C39.8359 71.7426 35.1124 71.6528 31.5503 68.7567C27.9882 65.8605 26.9365 61.2547 29.2012 58.4693C31.4658 55.684 36.1893 55.7738 39.7514 58.6699Z" fill="#FF9B26"/>
<path fill-rule="evenodd" clip-rule="evenodd" d="M41.0131 57.1181C45.0552 60.4045 46.8852 66.2428 43.6524 70.2189C40.4195 74.1951 34.3306 73.5948 30.2886 70.3084C26.2466 67.022 24.4165 61.1837 27.6494 57.2076C30.8822 53.2314 36.9711 53.8317 41.0131 57.1181ZM42.1005 68.9572C44.3652 66.1718 43.3135 61.566 39.7514 58.6699C36.1893 55.7737 31.4658 55.6839 29.2012 58.4693C26.9365 61.2546 27.9883 65.8604 31.5503 68.7566C35.1124 71.6528 39.8359 71.7426 42.1005 68.9572Z" fill="#EE7319"/>
<path d="M27.5 58.926C24.9 58.926 23.6667 62.426 23.375 64.176C22.9167 65.176 22.275 67.876 23.375 70.676C24.75 74.176 28.875 74.176 31.375 74.926C33.875 75.676 38.125 75.551 38.75 71.801C39.375 68.051 39.625 67.051 37 64.176C34.375 61.301 30.75 58.926 27.5 58.926Z" fill="#A95C24"/>
<path fill-rule="evenodd" clip-rule="evenodd" d="M22.8663 59.8503C23.686 58.5117 25.1748 56.926 27.5 56.926C29.594 56.926 31.6624 57.6823 33.489 58.7436C35.3311 59.8137 37.0487 61.2632 38.477 62.8275C39.8596 64.3418 40.7762 65.662 41.0642 67.3177C41.3033 68.6929 41.0563 70.1549 40.7928 71.7135C40.7695 71.8515 40.746 71.9903 40.7228 72.1298C40.2568 74.9255 38.3406 76.4078 36.3041 76.9772C34.3943 77.5111 32.3088 77.2942 30.8003 76.8417C30.3629 76.7105 29.8634 76.6062 29.2305 76.4742C29.1091 76.4488 28.9828 76.4225 28.8511 76.3947C28.0837 76.233 27.1811 76.0315 26.2916 75.7197C24.4792 75.0844 22.4952 73.9062 21.5135 71.4073C20.25 68.191 20.8453 65.099 21.4468 63.5999C21.6479 62.5575 22.0908 61.1167 22.8663 59.8503ZM23.375 64.176C23.6667 62.426 24.9 58.926 27.5 58.926C30.75 58.926 34.375 61.301 37 64.176C39.5569 66.9764 39.386 67.9979 38.7979 71.5146C38.7822 71.6082 38.7662 71.7037 38.75 71.801C38.125 75.551 33.875 75.676 31.375 74.926C30.8478 74.7679 30.2483 74.6431 29.6176 74.5117C27.2575 74.0204 24.46 73.4379 23.375 70.676C22.275 67.876 22.9167 65.176 23.375 64.176Z" fill="#6F3307"/>
<path fill-rule="evenodd" clip-rule="evenodd" d="M27.1432 60.9859C27.2482 60.4437 27.7728 60.0892 28.315 60.1942C29.048 60.3361 30.8128 60.8493 32.3047 61.8439C32.7642 62.1503 32.8884 62.7711 32.582 63.2307C32.2757 63.6902 31.6548 63.8144 31.1953 63.508C29.9872 62.7026 28.4936 62.2659 27.935 62.1577C27.3928 62.0528 27.0383 61.5282 27.1432 60.9859Z" fill="#D87D3C"/>
<path d="M28.3417 65.2454C29.3631 64.2166 31.3627 64.5456 32.808 65.9804C34.2533 67.4153 34.5969 69.4124 33.5756 70.4413C32.5542 71.4701 30.5545 71.1411 29.1092 69.7063C27.6639 68.2715 27.3203 66.2743 28.3417 65.2454Z" fill="#94460E"/>
<path fill-rule="evenodd" clip-rule="evenodd" d="M31.6382 68.1171C32.0849 68.8147 31.8815 69.7424 31.1839 70.1892L16.9339 79.3142C16.2362 79.7609 15.3085 79.5575 14.8618 78.8599C14.415 78.1622 14.6185 77.2345 15.3161 76.7878L29.5661 67.6628C30.2637 67.216 31.1915 67.4194 31.6382 68.1171Z" fill="#8A8989"/>
</svg>
