<svg width="96" height="97" viewBox="0 0 96 97" fill="none" xmlns="http://www.w3.org/2000/svg">
<path d="M74 71.907C74 78.0617 63.0869 83.051 49.625 83.051C36.1631 83.051 25.25 78.0617 25.25 71.907C25.25 65.7523 36.1631 60.7629 49.625 60.7629C63.0869 60.7629 74 65.7523 74 71.907Z" fill="#E0C32A"/>
<path fill-rule="evenodd" clip-rule="evenodd" d="M67.6923 81.6059C62.9654 83.7671 56.5757 85.051 49.625 85.051C42.6743 85.051 36.2846 83.7671 31.5577 81.6059C27.0072 79.5255 23.25 76.2447 23.25 71.907C23.25 67.5693 27.0072 64.2885 31.5577 62.208C36.2846 60.0469 42.6743 58.7629 49.625 58.7629C56.5757 58.7629 62.9654 60.0469 67.6923 62.208C72.2428 64.2885 76 67.5693 76 71.907C76 76.2447 72.2428 79.5255 67.6923 81.6059ZM49.625 83.051C63.0869 83.051 74 78.0617 74 71.907C74 65.7523 63.0869 60.7629 49.625 60.7629C36.1631 60.7629 25.25 65.7523 25.25 71.907C25.25 78.0617 36.1631 83.051 49.625 83.051Z" fill="#D8AB0A"/>
<path d="M86.125 62.3635C86.125 71.5798 69.7834 79.051 49.625 79.051C29.4666 79.051 13.125 71.5798 13.125 62.3635C13.125 53.1473 29.4666 45.676 49.625 45.676C69.7834 45.676 86.125 53.1473 86.125 62.3635Z" fill="#EBD24F"/>
<path fill-rule="evenodd" clip-rule="evenodd" d="M76.266 75.9823C69.3449 79.1466 59.9239 81.051 49.625 81.051C39.3261 81.051 29.9051 79.1466 22.984 75.9823C16.2393 72.8987 11.125 68.232 11.125 62.3635C11.125 56.495 16.2393 51.8284 22.984 48.7448C29.9051 45.5805 39.3261 43.676 49.625 43.676C59.9239 43.676 69.3449 45.5805 76.266 48.7448C83.0107 51.8284 88.125 56.495 88.125 62.3635C88.125 68.232 83.0107 72.8987 76.266 75.9823ZM49.625 79.051C69.7834 79.051 86.125 71.5798 86.125 62.3635C86.125 53.1473 69.7834 45.676 49.625 45.676C29.4666 45.676 13.125 53.1473 13.125 62.3635C13.125 71.5798 29.4666 79.051 49.625 79.051Z" fill="#D8AB0A"/>
<path fill-rule="evenodd" clip-rule="evenodd" d="M17.3428 67.1067C17.7263 66.7093 18.3593 66.6979 18.7568 67.0813C20.3904 68.6573 25.7177 72.3418 33.3691 73.7552C33.9122 73.8555 34.2712 74.3771 34.1709 74.9202C34.0705 75.4633 33.549 75.8222 33.0059 75.7219C24.9573 74.2352 19.2762 70.3614 17.3682 68.5207C16.9707 68.1373 16.9594 67.5042 17.3428 67.1067Z" fill="#FCEDA2"/>
<path d="M77.7205 60.6135C77.7205 67.7587 65.0512 73.551 49.4228 73.551C33.7943 73.551 21.125 67.7587 21.125 60.6135C21.125 53.4683 33.7943 47.676 49.4228 47.676C65.0512 47.676 77.7205 53.4683 77.7205 60.6135Z" fill="#C09B16"/>
<path d="M54.8605 20.8766L50.2485 26.0329L50.852 28.3206L56.317 22.2569C58.0556 22.9598 59.6869 22.2152 60.2274 21.1727C60.7679 20.1302 60.3462 18.5943 58.219 18.9483C58.5549 16.661 55.6818 16.7515 55.0637 17.6515C54.2037 18.9039 54.4326 20.3076 54.8605 20.8766Z" fill="#FFF2E3"/>
<path fill-rule="evenodd" clip-rule="evenodd" d="M48.3146 26.5431C48.1432 25.8932 48.3097 25.2006 48.7578 24.6996L52.5675 20.4403C52.5096 20.139 52.4808 19.8324 52.4792 19.5314C52.4739 18.5819 52.7339 17.5112 53.415 16.5194C53.9375 15.7585 54.7351 15.3939 55.3203 15.2283C55.9554 15.0487 56.6834 15.0018 57.3916 15.1436C58.1011 15.2856 58.9325 15.6509 59.5356 16.4292C59.6846 16.6215 59.8084 16.8245 59.9086 17.0353C60.7039 17.2413 61.4119 17.6908 61.9033 18.4513C62.6905 19.6694 62.5156 21.1044 62.003 22.0932C61.1278 23.7815 59.1114 24.7506 57.0007 24.4857L52.3377 29.6596C51.846 30.2052 51.0947 30.4373 50.3809 30.2643C49.6671 30.0913 49.1056 29.541 48.9182 28.8308L48.3146 26.5431ZM56.3169 22.257C58.0556 22.9598 59.6869 22.2153 60.2274 21.1727C60.572 20.5079 60.5254 19.6425 59.8948 19.1945C59.5365 18.9399 58.9897 18.8201 58.219 18.9484C58.2949 18.4319 58.2071 18.0367 58.0187 17.7447C57.3725 16.7432 55.5422 16.9547 55.0637 17.6515C54.2037 18.9039 54.4326 20.3076 54.8605 20.8766L50.2485 26.0329L50.852 28.3206L56.3169 22.257Z" fill="#B3987A"/>
<path d="M52.5409 33.4997C55.7032 27.5087 53.4376 24.6793 51.9096 24.0135C47.4461 22.4157 39.5763 28.5398 36.8343 32.3153C34.4559 35.5902 31.6471 42.7707 36.4973 43.9233C41.3475 45.0758 48.5881 40.9884 52.5409 33.4997Z" fill="#DC8927"/>
<path fill-rule="evenodd" clip-rule="evenodd" d="M52.6469 22.153L52.7085 22.1798C54.0497 22.7642 55.4243 24.1473 55.931 26.3015C56.438 28.4569 56.0348 31.1648 54.3097 34.4331C52.1728 38.4815 49.1329 41.6428 45.9134 43.6492C42.7394 45.6273 39.1629 46.6122 36.0349 45.8689C34.2463 45.4439 32.9792 44.3773 32.3323 42.8744C31.7366 41.4907 31.7547 39.9455 31.9825 38.5847C32.439 35.8585 33.8937 32.9607 35.216 31.1399C36.7617 29.0116 39.6167 26.3706 42.6619 24.4561C44.1953 23.492 45.8564 22.6612 47.4995 22.1846C49.121 21.7144 50.9183 21.5342 52.5836 22.1303L52.6469 22.153ZM51.9096 24.0133C47.4461 22.4155 39.5763 28.5396 36.8343 32.3152C34.4559 35.5901 31.6471 42.7706 36.4973 43.9231C41.3475 45.0757 48.5881 40.9883 52.5409 33.4995C55.7032 27.5085 53.4376 24.6791 51.9096 24.0133Z" fill="#8B4E05"/>
<path d="M41.6826 30.0857C41.1125 29.9152 40.5122 30.2391 40.3417 30.8092C40.1713 31.3793 40.4952 31.9796 41.0653 32.1501C41.6353 32.3205 42.2356 31.9966 42.4061 31.4266C42.5766 30.8565 42.2527 30.2562 41.6826 30.0857Z" fill="#F4A03D"/>
<path d="M44.8802 27.2605C44.3102 27.09 43.7099 27.4139 43.5394 27.984C43.3689 28.5541 43.6928 29.1544 44.2629 29.3249C44.8329 29.4953 45.4333 29.1714 45.6038 28.6014C45.7742 28.0313 45.4503 27.431 44.8802 27.2605Z" fill="#F4A03D"/>
<path d="M44.5837 30.421C44.2216 30.3127 43.8403 30.5185 43.7321 30.8805C43.6238 31.2426 43.8295 31.6239 44.1916 31.7322C44.5537 31.8404 44.9349 31.6347 45.0432 31.2726C45.1515 30.9106 44.9458 30.5293 44.5837 30.421Z" fill="#F4A03D"/>
<path d="M39.3714 31.4029C39.0094 31.2947 38.6281 31.5004 38.5198 31.8625C38.4115 32.2245 38.6173 32.6058 38.9793 32.7141C39.3414 32.8224 39.7227 32.6166 39.831 32.2546C39.9392 31.8925 39.7335 31.5112 39.3714 31.4029Z" fill="#F4A03D"/>
<path d="M47.0199 26.3048C46.6579 26.1965 46.2766 26.4023 46.1683 26.7643C46.06 27.1264 46.2658 27.5077 46.6278 27.616C46.9899 27.7242 47.3712 27.5185 47.4795 27.1564C47.5877 26.7944 47.382 26.4131 47.0199 26.3048Z" fill="#F4A03D"/>
<path d="M46.8274 28.473C46.5963 28.4039 46.3529 28.5352 46.2838 28.7663C46.2147 28.9974 46.346 29.2408 46.5772 29.3099C46.8083 29.379 47.0516 29.2477 47.1207 29.0166C47.1899 28.7855 47.0585 28.5421 46.8274 28.473Z" fill="#F4A03D"/>
<path d="M48.9046 25.556C48.6735 25.4869 48.4301 25.6182 48.361 25.8493C48.2919 26.0804 48.4232 26.3238 48.6543 26.3929C48.8854 26.462 49.1288 26.3307 49.1979 26.0996C49.267 25.8685 49.1357 25.6251 48.9046 25.556Z" fill="#F4A03D"/>
<path d="M43.22 32.8121C42.9889 32.743 42.7456 32.8743 42.6764 33.1054C42.6073 33.3365 42.7387 33.5799 42.9698 33.649C43.2009 33.7181 43.4442 33.5868 43.5134 33.3557C43.5825 33.1246 43.4511 32.8812 43.22 32.8121Z" fill="#F4A03D"/>
<path d="M42.4113 28.5858C42.1802 28.5167 41.9368 28.648 41.8677 28.8791C41.7986 29.1102 41.9299 29.3536 42.161 29.4227C42.3921 29.4918 42.6355 29.3605 42.7046 29.1294C42.7738 28.8983 42.6424 28.6549 42.4113 28.5858Z" fill="#F4A03D"/>
<path d="M40.4247 33.1462C40.1214 33.0555 39.802 33.2279 39.7113 33.5312C39.6206 33.8345 39.7929 34.154 40.0963 34.2447C40.3996 34.3354 40.719 34.163 40.8097 33.8597C40.9004 33.5564 40.7281 33.237 40.4247 33.1462Z" fill="#F4A03D"/>
<path d="M38.0167 33.5448C37.8361 33.4908 37.646 33.5934 37.592 33.7739C37.538 33.9545 37.6406 34.1446 37.8212 34.1986C38.0017 34.2526 38.1918 34.15 38.2458 33.9695C38.2998 33.7889 38.1972 33.5988 38.0167 33.5448Z" fill="#F4A03D"/>
<path d="M38.6718 35.107C38.4658 35.0454 38.249 35.1624 38.1874 35.3683C38.1259 35.5742 38.2429 35.791 38.4488 35.8526C38.6547 35.9142 38.8715 35.7972 38.9331 35.5913C38.9947 35.3854 38.8777 35.1685 38.6718 35.107Z" fill="#F4A03D"/>
<path d="M46.5 69.6137C36.7 69.9137 31.625 65.8845 28.25 64.4262C24.65 62.4262 23.4642 60.377 23.25 58.8012C21.5 45.9262 31.375 43.0512 37 38.9262C42.625 34.8012 49.5 34.4262 54.5 36.3012C59.5 38.1762 62.25 38.1762 68.25 40.6762C73.05 42.6762 75.9167 47.5928 76.75 49.8012C78.85 56.0012 78.25 58.2803 76.75 61.2387C75.0625 63.1137 72.5625 65.7387 65.625 66.1762C58.0603 66.6532 58.75 69.2387 46.5 69.6137Z" fill="#D47F1B"/>
<path fill-rule="evenodd" clip-rule="evenodd" d="M27.4567 66.262C27.396 66.2358 27.3366 66.2065 27.2787 66.1744C23.3497 63.9916 21.5966 61.4859 21.2682 59.0705C20.7946 55.586 21.0941 52.6625 21.9861 50.1701C22.8784 47.6771 24.3226 45.7301 25.9721 44.1417C27.6051 42.5692 29.4583 41.3314 31.1762 40.2629C31.671 39.9552 32.1464 39.666 32.6034 39.388C33.7945 38.6634 34.8603 38.0151 35.8173 37.3133C42.0216 32.7635 49.6121 32.3321 55.2023 34.4284C57.2921 35.2121 58.9535 35.6484 60.7427 36.1182C60.9962 36.1848 61.2524 36.252 61.5126 36.321C63.6204 36.8799 65.9034 37.5317 69.0193 38.8299C71.8179 39.996 73.9857 41.9795 75.542 43.9021C77.0963 45.8221 78.1286 47.7896 78.6212 49.095C78.6293 49.1164 78.637 49.1379 78.6443 49.1595C79.7279 52.3586 80.1888 54.7499 80.0981 56.8229C80.0049 58.9538 79.3353 60.5624 78.5338 62.1431C78.4543 62.3 78.3543 62.4457 78.2366 62.5765C77.3611 63.5493 76.1325 64.8819 74.1269 65.9951C72.121 67.1085 69.4627 67.9381 65.7509 68.1721C62.7997 68.3582 61.3002 68.8676 59.4661 69.4906C59.1383 69.6019 58.7999 69.7168 58.4406 69.8342C55.9439 70.6499 52.8644 71.4197 46.5612 71.6127C38.0908 71.872 32.7121 69.0065 29.4 67.242C28.6503 66.8426 28.0065 66.4996 27.4567 66.262ZM76.75 61.2386C75.0625 63.1136 72.5625 65.7386 65.625 66.1761C62.3991 66.3795 60.6742 66.9664 58.8069 67.6018C56.2954 68.4563 53.5261 69.3985 46.5 69.6136C38.6261 69.8546 33.8024 67.301 30.4599 65.5315C29.6423 65.0986 28.9133 64.7127 28.25 64.4261C24.65 62.4261 23.4642 60.377 23.25 58.8011C21.8211 48.2879 28.1432 44.4424 33.5733 41.1395C34.7933 40.3974 35.9682 39.6828 37 38.9261C42.625 34.8011 49.5 34.4261 54.5 36.3011C56.6908 37.1227 58.4497 37.5842 60.2392 38.0539C62.5339 38.6561 64.879 39.2715 68.25 40.6761C73.05 42.6761 75.9167 47.5928 76.75 49.8011C78.85 56.0011 78.25 58.2803 76.75 61.2386Z" fill="#8B4E05"/>
<path d="M46.5 69.6138C36.7 69.9138 31.625 65.8846 28.25 64.4263C31.4583 65.5929 39.125 67.5763 44.125 66.1763C50.375 64.4263 51.5 62.0513 55 62.0513C58.5 62.0513 66.25 57.1763 66.625 52.4263C67 47.6763 64.5001 42.6763 68.25 40.6763C73.05 42.6763 75.9167 47.5929 76.75 49.8013C78.85 56.0013 78.25 58.2804 76.75 61.2388C75.0625 63.1138 72.5625 65.7388 65.625 66.1763C58.0603 66.6533 58.75 69.2388 46.5 69.6138Z" fill="#BC6B0C"/>
<path d="M25.375 52.9262C25.775 49.7762 29.7917 46.0303 31.75 44.5512C35.375 42.1137 38.875 43.1762 37.625 44.5512C36.375 45.9262 36 49.8012 35.5625 51.8637C35.125 53.9262 35.25 56.2387 33.25 58.0512C31.25 59.8637 28.125 58.8012 27.625 58.6762C27.125 58.5512 24.875 56.8637 25.375 52.9262Z" fill="#F79826"/>
<path fill-rule="evenodd" clip-rule="evenodd" d="M30.5864 48.1678C30.9362 48.5953 30.8732 49.2253 30.4457 49.575C29.8354 50.0744 28.9671 50.8597 28.4548 52.5047C28.2905 53.032 27.7299 53.3263 27.2026 53.1621C26.6753 52.9978 26.381 52.4372 26.5452 51.9099C27.2204 49.7424 28.4146 48.6527 29.1793 48.0271C29.6067 47.6774 30.2367 47.7404 30.5864 48.1678Z" fill="#FED7A9"/>
<path d="M74.4644 27.1077L69.625 32.0512L70.125 34.3637L75.8572 28.5522C77.5625 29.3325 79.2257 28.6621 79.8125 27.645C80.3993 26.6278 80.0472 25.0745 77.9062 25.3325C78.3447 23.0626 75.4704 23.0237 74.8125 23.895C73.897 25.1074 74.0625 26.52 74.4644 27.1077Z" fill="#FFF2E3"/>
<path fill-rule="evenodd" clip-rule="evenodd" d="M67.6702 32.4739C67.5281 31.8169 67.7256 31.1325 68.1958 30.6522L72.1933 26.5686C72.1491 26.265 72.1341 25.9575 72.146 25.6567C72.1835 24.7079 72.4914 23.65 73.2164 22.6898C73.7726 21.9532 74.5858 21.6248 75.1778 21.4858C75.8204 21.3349 76.5497 21.3209 77.2508 21.4943C77.9533 21.6681 78.7674 22.0705 79.3348 22.8751C79.4751 23.074 79.5896 23.2822 79.6802 23.4974C80.4654 23.739 81.1524 24.2199 81.6092 25.0017C82.3408 26.254 82.1015 27.6797 81.5449 28.6444C80.5946 30.2916 78.5366 31.169 76.44 30.8094L71.5489 35.7682C71.0331 36.2911 70.2722 36.4892 69.5669 36.2843C68.8616 36.0794 68.3254 35.5043 68.1702 34.7864L67.6702 32.4739ZM75.8572 28.5522C77.5625 29.3325 79.2257 28.6621 79.8125 27.645C80.1867 26.9964 80.1791 26.1297 79.5693 25.6537C79.2228 25.3833 78.6819 25.239 77.9063 25.3325C78.0053 24.82 77.9354 24.4212 77.7603 24.121C77.1598 23.0914 75.3219 23.2204 74.8125 23.895C73.897 25.1074 74.0625 26.52 74.4644 27.1077L69.625 32.0512L70.125 34.3637L75.8572 28.5522Z" fill="#B3987A"/>
<path d="M52.625 38.6761C48.0396 44.3951 49.1181 47.8935 51.2019 49.9417C57.1905 55.8283 65.0797 48.4686 67.7115 44.9737C70.3433 41.4788 73.724 33.862 70.4875 31.5415C67.7115 29.5511 58.4024 31.4703 52.625 38.6761Z" fill="#DC8927"/>
<path fill-rule="evenodd" clip-rule="evenodd" d="M47.413 45.6388C47.4702 43.1912 48.6209 40.4728 51.0646 37.425C54.2218 33.4873 58.3324 31.0014 62.0495 29.7628C63.9084 29.1434 65.7212 28.8183 67.3192 28.8034C68.8548 28.7891 70.4588 29.06 71.6529 29.9161C73.083 30.9415 73.6514 32.4851 73.7814 33.9512C73.9091 35.3913 73.6407 36.9391 73.2197 38.3787C72.3759 41.2632 70.7558 44.2557 69.3092 46.1768C67.879 48.076 65.0284 51.0374 61.6174 52.7609C59.895 53.6311 57.9136 54.2443 55.8354 54.1377C53.705 54.0285 51.632 53.169 49.7998 51.368C48.4585 50.0496 47.3543 48.1567 47.413 45.6388ZM51.2018 49.9417C49.1181 47.8935 48.0396 44.3951 52.625 38.6761C58.4024 31.4703 67.7115 29.5511 70.4875 31.5415C73.724 33.8621 70.3433 41.4788 67.7115 44.9737C65.0797 48.4686 57.1905 55.8283 51.2018 49.9417Z" fill="#8B4E05"/>
<path d="M52.0656 40.9549C50.1269 44.334 50.9484 46.1161 52.18 47.0529C55.7197 49.7454 56.842 44.4523 57.9387 42.3999C59.0354 40.3474 63.723 35.1734 61.875 34.1762C60.2899 33.3209 54.5083 36.6974 52.0656 40.9549Z" fill="#E79433"/>
<path d="M34.6286 56.8096C34.8162 57.6227 34.2059 58.4577 33.2655 58.6748C32.325 58.8918 31.4105 58.4086 31.2228 57.5955C31.0352 56.7824 31.6455 55.9473 32.5859 55.7303C33.5264 55.5133 34.4409 55.9965 34.6286 56.8096Z" fill="#FC9821"/>
<path d="M40.3477 48.5788C40.5354 49.3919 39.9251 50.227 38.9846 50.4441C38.0442 50.6611 37.1296 50.1779 36.942 49.3648C36.7544 48.5517 37.3646 47.7166 38.3051 47.4996C39.2456 47.2825 40.1601 47.7657 40.3477 48.5788Z" fill="#FC9821"/>
<path d="M46.2966 56.0237C46.4842 56.8368 45.874 57.6719 44.9335 57.8889C43.993 58.1059 43.0785 57.6227 42.8909 56.8096C42.7032 55.9965 43.3135 55.1615 44.254 54.9444C45.1944 54.7274 46.1089 55.2106 46.2966 56.0237Z" fill="#FC9821"/>
<path d="M39.8407 61.9636C39.9724 62.5346 39.5439 63.121 38.8835 63.2734C38.2231 63.4258 37.5809 63.0865 37.4491 62.5155C37.3173 61.9446 37.7459 61.3581 38.4063 61.2057C39.0667 61.0533 39.7089 61.3926 39.8407 61.9636Z" fill="#FC9821"/>
<path d="M51.3864 63.3298C51.5182 63.9008 51.0897 64.4872 50.4292 64.6396C49.7688 64.792 49.1266 64.4527 48.9949 63.8817C48.8631 63.3108 49.2917 62.7243 49.9521 62.5719C50.6125 62.4195 51.2547 62.7588 51.3864 63.3298Z" fill="#FC9821"/>
<path d="M72.5622 50.6336C72.6651 51.0795 72.3304 51.5375 71.8147 51.6565C71.299 51.7755 70.7975 51.5105 70.6946 51.0646C70.5917 50.6188 70.9264 50.1608 71.4421 50.0418C71.9578 49.9228 72.4593 50.1878 72.5622 50.6336Z" fill="#FC9821"/>
<path d="M66.1301 60.0306C66.233 60.4765 65.8983 60.9344 65.3826 61.0534C64.8669 61.1725 64.3654 60.9075 64.2625 60.4616C64.1596 60.0157 64.4943 59.5578 65.01 59.4388C65.5257 59.3198 66.0272 59.5847 66.1301 60.0306Z" fill="#FC9821"/>
<path d="M58.7103 58.8524C58.8132 59.2983 58.4786 59.7562 57.9629 59.8752C57.4471 59.9942 56.9456 59.7293 56.8427 59.2834C56.7398 58.8375 57.0745 58.3796 57.5902 58.2606C58.1059 58.1416 58.6074 58.4065 58.7103 58.8524Z" fill="#FC9821"/>
<path d="M47.8321 42.5439C47.9639 43.1149 47.5353 43.7013 46.8749 43.8537C46.2145 44.0061 45.5723 43.6668 45.4406 43.0958C45.3088 42.5249 45.7373 41.9385 46.3977 41.786C47.0582 41.6336 47.7003 41.9729 47.8321 42.5439Z" fill="#FC9821"/>
<path d="M33.5642 49.6163C33.6645 50.0508 33.3384 50.4971 32.8358 50.6131C32.3332 50.7291 31.8444 50.4709 31.7441 50.0363C31.6439 49.6018 31.97 49.1555 32.4726 49.0395C32.9752 48.9235 33.464 49.1817 33.5642 49.6163Z" fill="#FC9821"/>
<path d="M57.7424 37.4061C57.1335 37.2138 56.4839 37.5516 56.2916 38.1605C56.0993 38.7695 56.4371 39.419 57.046 39.6113C57.655 39.8036 58.3045 39.4658 58.4968 38.8569C58.6891 38.248 58.3513 37.5984 57.7424 37.4061Z" fill="#FFAF50"/>
<path d="M60.6471 34.2269C60.0381 34.0346 59.3886 34.3724 59.1963 34.9813C59.004 35.5903 59.3418 36.2398 59.9507 36.4321C60.5596 36.6244 61.2092 36.2866 61.4015 35.6777C61.5938 35.0688 61.256 34.4192 60.6471 34.2269Z" fill="#FFAF50"/>
<path d="M60.8094 37.6044C60.4227 37.4822 60.0101 37.6967 59.888 38.0835C59.7658 38.4703 59.9804 38.8828 60.3671 39.0049C60.7539 39.1271 61.1664 38.9125 61.2886 38.5258C61.4107 38.139 61.1962 37.7265 60.8094 37.6044Z" fill="#FFAF50"/>
<path d="M54.6676 38.5817C54.2808 38.4595 53.8683 38.674 53.7461 39.0608C53.624 39.4476 53.8385 39.8601 54.2253 39.9822C54.612 40.1044 55.0246 39.8898 55.1467 39.5031C55.2688 39.1163 55.0543 38.7038 54.6676 38.5817Z" fill="#FFAF50"/>
<path d="M62.9589 33.2364C62.5721 33.1143 62.1596 33.3288 62.0375 33.7156C61.9153 34.1023 62.1298 34.5149 62.5166 34.637C62.9034 34.7591 63.3159 34.5446 63.438 34.1579C63.5602 33.7711 63.3456 33.3586 62.9589 33.2364Z" fill="#FFAF50"/>
<path d="M62.7167 35.5601C62.4698 35.4821 62.2065 35.619 62.1285 35.8659C62.0506 36.1128 62.1875 36.3761 62.4344 36.4541C62.6813 36.532 62.9446 36.3951 63.0225 36.1482C63.1005 35.9014 62.9636 35.638 62.7167 35.5601Z" fill="#FFAF50"/>
<path d="M64.7493 32.2366C64.5025 32.1586 64.2392 32.2956 64.1612 32.5424C64.0832 32.7893 64.2202 33.0526 64.467 33.1306C64.7139 33.2085 64.9772 33.0716 65.0552 32.8247C65.1331 32.5779 64.9962 32.3145 64.7493 32.2366Z" fill="#FFAF50"/>
<path d="M58.7744 40.157C58.5275 40.079 58.2642 40.216 58.1863 40.4628C58.1083 40.7097 58.2452 40.973 58.4921 41.051C58.739 41.1289 59.0023 40.992 59.0802 40.7451C59.1582 40.4983 59.0213 40.235 58.7744 40.157Z" fill="#FFAF50"/>
<path d="M58.0671 35.7554C57.8202 35.6774 57.5569 35.8144 57.4789 36.0612C57.401 36.3081 57.5379 36.5714 57.7848 36.6494C58.0316 36.7273 58.2949 36.5904 58.3729 36.3435C58.4509 36.0967 58.3139 35.8333 58.0671 35.7554Z" fill="#FFAF50"/>
<path d="M55.7693 40.4697C55.4453 40.3674 55.0996 40.5471 54.9973 40.8712C54.895 41.1952 55.0747 41.5408 55.3987 41.6431C55.7227 41.7454 56.0684 41.5657 56.1707 41.2417C56.273 40.9177 56.0933 40.5721 55.7693 40.4697Z" fill="#FFAF50"/>
<path d="M53.1787 40.8578C52.9858 40.7969 52.7801 40.9039 52.7192 41.0967C52.6583 41.2896 52.7652 41.4953 52.9581 41.5562C53.151 41.6171 53.3567 41.5102 53.4176 41.3173C53.4785 41.1244 53.3715 40.9187 53.1787 40.8578Z" fill="#FFAF50"/>
<path d="M53.856 42.545C53.636 42.4755 53.4014 42.5975 53.332 42.8175C53.2625 43.0375 53.3845 43.2721 53.6045 43.3415C53.8244 43.411 54.059 43.289 54.1285 43.069C54.1979 42.8491 54.0759 42.6145 53.856 42.545Z" fill="#FFAF50"/>
<path d="M71.0935 61.0056C71.0935 61.5853 70.6235 62.0553 70.0438 62.0553C69.464 62.0553 68.994 61.5853 68.994 61.0056C68.994 60.4258 69.464 59.9558 70.0438 59.9558C70.6235 59.9558 71.0935 60.4258 71.0935 61.0056Z" fill="#9C5706"/>
<path d="M66.2347 63.8661C66.2347 64.3694 65.8267 64.7774 65.3234 64.7774C64.8202 64.7774 64.4122 64.3694 64.4122 63.8661C64.4122 63.3628 64.8202 62.9548 65.3234 62.9548C65.8267 62.9548 66.2347 63.3628 66.2347 63.8661Z" fill="#9C5706"/>
<path d="M76.3428 58.1095C76.3428 58.6128 75.9348 59.0208 75.4315 59.0208C74.9282 59.0208 74.5202 58.6128 74.5202 58.1095C74.5202 57.6062 74.9282 57.1982 75.4315 57.1982C75.9348 57.1982 76.3428 57.6062 76.3428 58.1095Z" fill="#9C5706"/>
<path d="M73.9512 60.8534C73.9512 61.1695 73.6949 61.4258 73.3788 61.4258C73.0627 61.4258 72.8064 61.1695 72.8064 60.8534C72.8064 60.5373 73.0627 60.281 73.3788 60.281C73.6949 60.281 73.9512 60.5373 73.9512 60.8534Z" fill="#9C5706"/>
<path d="M76.9152 55.432C76.9152 55.7481 76.6589 56.0044 76.3428 56.0044C76.0267 56.0044 75.7704 55.7481 75.7704 55.432C75.7704 55.1159 76.0267 54.8596 76.3428 54.8596C76.6589 54.8596 76.9152 55.1159 76.9152 55.432Z" fill="#9C5706"/>
<path d="M75.0959 53.6107C75.0959 53.9268 74.8397 54.1831 74.5236 54.1831C74.2074 54.1831 73.9512 53.9268 73.9512 53.6107C73.9512 53.2946 74.2074 53.0383 74.5236 53.0383C74.8397 53.0383 75.0959 53.2946 75.0959 53.6107Z" fill="#9C5706"/>
<path d="M69.3249 64.2084C69.3249 64.5245 69.0687 64.7808 68.7525 64.7808C68.4364 64.7808 68.1801 64.5245 68.1801 64.2084C68.1801 63.8923 68.4364 63.636 68.7525 63.636C69.0687 63.636 69.3249 63.8923 69.3249 64.2084Z" fill="#9C5706"/>
<path d="M67.6999 61.3227C67.6999 61.7273 67.3719 62.0552 66.9673 62.0552C66.5627 62.0552 66.2347 61.7273 66.2347 61.3227C66.2347 60.9181 66.5627 60.5901 66.9673 60.5901C67.3719 60.5901 67.6999 60.9181 67.6999 61.3227Z" fill="#9C5706"/>
<path d="M74.5202 55.5922C74.5202 55.9968 74.1922 56.3248 73.7876 56.3248C73.383 56.3248 73.0551 55.9968 73.0551 55.5922C73.0551 55.1876 73.383 54.8596 73.7876 54.8596C74.1922 54.8596 74.5202 55.1876 74.5202 55.5922Z" fill="#9C5706"/>
<path d="M73.4709 57.7706C73.4709 58.0867 73.2146 58.343 72.8985 58.343C72.5824 58.343 72.3261 58.0867 72.3261 57.7706C72.3261 57.4545 72.5824 57.1982 72.8985 57.1982C73.2146 57.1982 73.4709 57.4545 73.4709 57.7706Z" fill="#9C5706"/>
<path d="M69.3249 58.5968C69.3249 58.9129 69.0687 59.1692 68.7525 59.1692C68.4364 59.1692 68.1801 58.9129 68.1801 58.5968C68.1801 58.2807 68.4364 58.0244 68.7525 58.0244C69.0687 58.0244 69.3249 58.2807 69.3249 58.5968Z" fill="#9C5706"/>
<path d="M71.2297 58.1836C71.2297 58.4117 71.0447 58.5967 70.8166 58.5967C70.5884 58.5967 70.4035 58.4117 70.4035 58.1836C70.4035 57.9555 70.5884 57.7705 70.8166 57.7705C71.0447 57.7705 71.2297 57.9555 71.2297 58.1836Z" fill="#9C5706"/>
<path d="M71.8243 62.9548C71.8243 63.183 71.6393 63.3679 71.4112 63.3679C71.1831 63.3679 70.9981 63.183 70.9981 62.9548C70.9981 62.7267 71.1831 62.5417 71.4112 62.5417C71.6393 62.5417 71.8243 62.7267 71.8243 62.9548Z" fill="#9C5706"/>
<path d="M76.9152 53.2524C76.9152 53.4806 76.7302 53.6655 76.5021 53.6655C76.2739 53.6655 76.089 53.4806 76.089 53.2524C76.089 53.0243 76.2739 52.8394 76.5021 52.8394C76.7302 52.8394 76.9152 53.0243 76.9152 53.2524Z" fill="#9C5706"/>
<path d="M63.4017 65.1938C63.4017 65.422 63.2168 65.6069 62.9886 65.6069C62.7605 65.6069 62.5755 65.422 62.5755 65.1938C62.5755 64.9657 62.7605 64.7808 62.9886 64.7808C63.2168 64.7808 63.4017 64.9657 63.4017 65.1938Z" fill="#9C5706"/>
<path d="M67.0609 59.1692C67.0609 59.3973 66.876 59.5823 66.6478 59.5823C66.4197 59.5823 66.2347 59.3973 66.2347 59.1692C66.2347 58.941 66.4197 58.7561 66.6478 58.7561C66.876 58.7561 67.0609 58.941 67.0609 59.1692Z" fill="#9C5706"/>
<path d="M71.8243 56.3181C71.8243 56.5463 71.6393 56.7312 71.4112 56.7312C71.1831 56.7312 70.9981 56.5463 70.9981 56.3181C70.9981 56.09 71.1831 55.905 71.4112 55.905C71.6393 55.905 71.8243 56.09 71.8243 56.3181Z" fill="#9C5706"/>
<path d="M69.3249 56.7312C69.3249 56.9593 69.14 57.1443 68.9118 57.1443C68.6837 57.1443 68.4987 56.9593 68.4987 56.7312C68.4987 56.5031 68.6837 56.3181 68.9118 56.3181C69.14 56.3181 69.3249 56.5031 69.3249 56.7312Z" fill="#9C5706"/>
</svg>
