<svg width="96" height="97" viewBox="0 0 96 97" fill="none" xmlns="http://www.w3.org/2000/svg">
<path d="M48.125 84.4898C56.4389 84.4898 63.1786 82.0828 63.1786 79.1135C63.2761 78.5635 63.9335 77.176 64.5 76.801H31.5C32.3 77.201 32.7143 78.676 33.0714 79.1135C33.0714 82.0828 39.8111 84.4898 48.125 84.4898Z" fill="#77BCD1"/>
<path fill-rule="evenodd" clip-rule="evenodd" d="M64.5 76.801C64.0221 77.1174 63.4796 78.1542 63.263 78.801C63.2228 78.921 63.1939 79.0275 63.1786 79.1135C63.1786 82.0828 56.4389 84.4898 48.125 84.4898C39.8111 84.4898 33.0714 82.0828 33.0714 79.1135C33.0091 79.0372 32.9451 78.9293 32.8775 78.801C32.8177 78.6874 32.7551 78.5577 32.6886 78.4199C32.3999 77.8217 32.0368 77.0694 31.5 76.801H64.5ZM31.1241 79.7635C31.0761 79.6734 31.0321 79.5857 30.9938 79.5081C30.9459 79.411 30.906 79.3282 30.8693 79.2519C30.8051 79.1187 30.7506 79.0056 30.6805 78.8719C30.5868 78.6932 30.5162 78.5803 30.466 78.5131C29.7279 78.0678 29.3527 77.1922 29.5535 76.3415C29.7666 75.4388 30.5725 74.801 31.5 74.801H64.5C65.3826 74.801 66.1608 75.3795 66.4151 76.2246C66.6579 77.0311 66.3687 77.8986 65.7021 78.3995C65.6937 78.4099 65.6833 78.423 65.6712 78.4393C65.6033 78.5303 65.5172 78.6663 65.4271 78.8348C65.3385 79.0005 65.262 79.1675 65.2068 79.3073C65.1898 79.3503 65.177 79.3853 65.1676 79.4124C65.0627 80.8289 64.2232 81.9429 63.2859 82.7343C62.2744 83.5884 60.9293 84.2675 59.4422 84.7986C56.4505 85.8671 52.4491 86.4898 48.125 86.4898C43.8009 86.4898 39.7995 85.8671 36.8078 84.7986C35.3207 84.2675 33.9756 83.5884 32.9641 82.7343C32.1057 82.0095 31.3293 81.014 31.1241 79.7635Z" fill="#65A6BA"/>
<path d="M64.9286 22.8479H31.0714V75.9009C31.0714 78.1516 38.6506 80.9762 48 80.9762C57.3494 80.9762 64.9286 78.1516 64.9286 75.9009V22.8479Z" fill="#E3283F"/>
<path fill-rule="evenodd" clip-rule="evenodd" d="M29.0714 22.8479C29.0714 21.7433 29.9668 20.8479 31.0714 20.8479H64.9286C66.0332 20.8479 66.9286 21.7433 66.9286 22.8479V75.9009C66.9286 76.7606 66.5665 77.4699 66.1689 77.986C65.7712 78.502 65.2567 78.935 64.7213 79.2984C63.6495 80.0257 62.2146 80.6605 60.5839 81.1861C57.3 82.2446 52.8584 82.9762 48 82.9762C43.1416 82.9762 38.7 82.2446 35.4161 81.1861C33.7854 80.6605 32.3505 80.0257 31.2787 79.2984C30.7433 78.935 30.2288 78.502 29.8311 77.986C29.4335 77.4699 29.0714 76.7606 29.0714 75.9009V22.8479ZM64.9286 22.8479V75.9009C64.9286 78.1516 57.3494 80.9762 48 80.9762C38.6506 80.9762 31.0714 78.1516 31.0714 75.9009V22.8479H64.9286Z" fill="#65A6BA"/>
<path d="M64.9286 75.9009V23.325H55V79.6126C60.8565 78.9714 64.9286 77.5507 64.9286 75.9009Z" fill="#C61A2F"/>
<path d="M59.4097 75.6215C59.4097 76.6341 58.5889 77.4549 57.5764 77.4549C56.5639 77.4549 55.743 76.6341 55.743 75.6215C55.743 74.609 56.5639 73.7882 57.5764 73.7882C58.5889 73.7882 59.4097 74.609 59.4097 75.6215Z" fill="#AA0E21"/>
<path d="M63 73.2534C63 74.0128 62.3844 74.6284 61.625 74.6284C60.8656 74.6284 60.25 74.0128 60.25 73.2534C60.25 72.494 60.8656 71.8784 61.625 71.8784C62.3844 71.8784 63 72.494 63 73.2534Z" fill="#AA0E21"/>
<path d="M57.4236 70.5798C57.4236 71.3392 56.808 71.9548 56.0486 71.9548C55.2892 71.9548 54.6736 71.3392 54.6736 70.5798C54.6736 69.8204 55.2892 69.2048 56.0486 69.2048C56.808 69.2048 57.4236 69.8204 57.4236 70.5798Z" fill="#AA0E21"/>
<path d="M62.9236 64.1631C62.9236 64.9225 62.308 65.5381 61.5486 65.5381C60.7892 65.5381 60.1736 64.9225 60.1736 64.1631C60.1736 63.4037 60.7892 62.7881 61.5486 62.7881C62.308 62.7881 62.9236 63.4037 62.9236 64.1631Z" fill="#AA0E21"/>
<path d="M59.257 65.5382C59.257 66.0445 58.8465 66.4549 58.3403 66.4549C57.834 66.4549 57.4236 66.0445 57.4236 65.5382C57.4236 65.032 57.834 64.6216 58.3403 64.6216C58.8465 64.6216 59.257 65.032 59.257 65.5382Z" fill="#AA0E21"/>
<path d="M62.9236 60.0382C62.9236 60.5445 62.5132 60.9549 62.0069 60.9549C61.5007 60.9549 61.0903 60.5445 61.0903 60.0382C61.0903 59.532 61.5007 59.1216 62.0069 59.1216C62.5132 59.1216 62.9236 59.532 62.9236 60.0382Z" fill="#AA0E21"/>
<path d="M61.9306 68.6702C61.9306 69.4296 61.315 70.0452 60.5556 70.0452C59.7962 70.0452 59.1806 69.4296 59.1806 68.6702C59.1806 67.9108 59.7962 67.2952 60.5556 67.2952C61.315 67.2952 61.9306 67.9108 61.9306 68.6702Z" fill="#AA0E21"/>
<path d="M60.1736 60.4966C60.1736 61.256 59.558 61.8716 58.7986 61.8716C58.0392 61.8716 57.4236 61.256 57.4236 60.4966C57.4236 59.7372 58.0392 59.1216 58.7986 59.1216C59.558 59.1216 60.1736 59.7372 60.1736 60.4966Z" fill="#AA0E21"/>
<path d="M62.007 56.3715C62.007 56.8778 61.5965 57.2882 61.0903 57.2882C60.584 57.2882 60.1736 56.8778 60.1736 56.3715C60.1736 55.8652 60.584 55.4548 61.0903 55.4548C61.5965 55.4548 62.007 55.8652 62.007 56.3715Z" fill="#AA0E21"/>
<path d="M53.8333 76.4618C53.8333 76.9681 53.4229 77.3785 52.9167 77.3785C52.4104 77.3785 52 76.9681 52 76.4618C52 75.9556 52.4104 75.5452 52.9167 75.5452C53.4229 75.5452 53.8333 75.9556 53.8333 76.4618Z" fill="#AA0E21"/>
<path d="M48.1395 29.5379C57.4119 29.5379 64.9286 27.0359 64.9286 23.9495V22.5681C64.2261 22.0482 62.598 20.5057 61.7054 18.4954H34.2461C33.651 19.8125 32.0677 21.7593 31.3505 22.5681V23.9495C31.3505 27.0359 38.8672 29.5379 48.1395 29.5379Z" fill="#BAF7FF"/>
<path fill-rule="evenodd" clip-rule="evenodd" d="M29.3505 22.5681C29.3505 22.0791 29.5296 21.607 29.8541 21.2411C30.1783 20.8755 30.7169 20.231 31.2395 19.5285C31.7831 18.7979 32.219 18.1245 32.4234 17.6719C32.747 16.9557 33.4601 16.4954 34.2461 16.4954H61.7054C62.496 16.4954 63.2125 16.9612 63.5333 17.6838C64.2473 19.2919 65.6066 20.5817 66.1184 20.9605C66.628 21.3377 66.9286 21.9341 66.9286 22.5681V23.9495C66.9286 25.5978 65.9233 26.8487 64.8461 27.6964C63.746 28.5621 62.2782 29.2543 60.6428 29.7987C57.351 30.8944 52.9306 31.5379 48.1395 31.5379C43.3485 31.5379 38.928 30.8944 35.6362 29.7987C34.0008 29.2543 32.533 28.5621 31.433 27.6964C30.3558 26.8487 29.3505 25.5978 29.3505 23.9495V22.5681ZM34.2461 18.4954H61.7054C62.598 20.5057 64.2261 22.0482 64.9286 22.5681V23.9495C64.9286 27.0359 57.4119 29.5379 48.1395 29.5379C38.8672 29.5379 31.3505 27.0359 31.3505 23.9495V22.5681C32.0677 21.7593 33.651 19.8125 34.2461 18.4954Z" fill="#65A6BA"/>
<path d="M64.9286 22.5681V23.9495C64.9286 26.237 60.7994 28.2035 54.8867 29.0683C53.5749 28.0254 52 25.3635 51.25 22.5681C51.25 22.5681 55.5994 22.497 58 21.301C59.6246 20.4917 61.7054 18.4954 61.7054 18.4954C62.598 20.5057 64.2261 22.0482 64.9286 22.5681Z" fill="#8EDFEA"/>
<path d="M61.8661 19.0645C61.8661 21.7995 55.658 24.0167 48 24.0167C40.342 24.0167 34.1339 21.7995 34.1339 19.0645C34.1339 16.3295 40.342 14.1123 48 14.1123C55.658 14.1123 61.8661 16.3295 61.8661 19.0645Z" fill="#9CD7DF"/>
<path fill-rule="evenodd" clip-rule="evenodd" d="M58.4775 24.4497C55.7007 25.4414 51.9962 26.0167 48 26.0167C44.0038 26.0167 40.2993 25.4414 37.5225 24.4497C36.1429 23.9569 34.8847 23.3236 33.9333 22.5202C32.9911 21.7247 32.1339 20.5652 32.1339 19.0645C32.1339 17.5637 32.9911 16.4043 33.9333 15.6088C34.8847 14.8054 36.1429 14.172 37.5225 13.6793C40.2993 12.6876 44.0038 12.1123 48 12.1123C51.9962 12.1123 55.7007 12.6876 58.4775 13.6793C59.8571 14.172 61.1153 14.8054 62.0667 15.6088C63.0089 16.4043 63.8661 17.5637 63.8661 19.0645C63.8661 20.5652 63.0089 21.7247 62.0667 22.5202C61.1153 23.3236 59.8571 23.9569 58.4775 24.4497ZM48 24.0167C55.658 24.0167 61.8661 21.7995 61.8661 19.0645C61.8661 16.3295 55.658 14.1123 48 14.1123C40.342 14.1123 34.1339 16.3295 34.1339 19.0645C34.1339 21.7995 40.342 24.0167 48 24.0167Z" fill="#428EA6"/>
<path d="M47.0958 18.8003C47.0958 19.4576 45.6037 19.9905 43.7632 19.9905C41.9227 19.9905 40.4307 19.4576 40.4307 18.8003C40.4307 18.143 41.9227 17.6101 43.7632 17.6101C45.6037 17.6101 47.0958 18.143 47.0958 18.8003Z" fill="#BAF7FF"/>
<path fill-rule="evenodd" clip-rule="evenodd" d="M45.4927 19.8179C45.4689 19.823 45.445 19.8281 45.4208 19.833C44.9326 19.9332 44.3666 19.9905 43.7632 19.9905C43.1598 19.9905 42.5938 19.9332 42.1056 19.833C42.0814 19.8281 42.0575 19.823 42.0337 19.8179C41.0726 19.6091 40.4307 19.2315 40.4307 18.8003C40.4307 18.3691 41.0726 17.9915 42.0337 17.7827C42.0575 17.7776 42.0814 17.7725 42.1056 17.7676C42.5938 17.6674 43.1598 17.6101 43.7632 17.6101C44.3666 17.6101 44.9326 17.6674 45.4208 17.7676C45.445 17.7725 45.4689 17.7776 45.4927 17.7827C46.4538 17.9915 47.0958 18.3691 47.0958 18.8003C47.0958 19.2315 46.4538 19.6091 45.4927 19.8179ZM46.7923 21.5254C45.9218 21.8363 44.8507 21.9905 43.7632 21.9905C42.6758 21.9905 41.6046 21.8363 40.7341 21.5254C40.3075 21.373 39.8207 21.145 39.4022 20.7917C38.9931 20.4462 38.4307 19.7817 38.4307 18.8003C38.4307 17.819 38.9931 17.1544 39.4022 16.8089C39.8207 16.4556 40.3075 16.2276 40.7341 16.0752C41.6046 15.7643 42.6758 15.6101 43.7632 15.6101C44.8507 15.6101 45.9218 15.7643 46.7923 16.0752C47.2189 16.2276 47.7058 16.4556 48.1242 16.8089C48.5333 17.1544 49.0958 17.819 49.0958 18.8003C49.0958 19.7817 48.5333 20.4462 48.1242 20.7917C47.7058 21.145 47.2189 21.373 46.7923 21.5254Z" fill="#65A6BA"/>
<path fill-rule="evenodd" clip-rule="evenodd" d="M33.2929 24.0939C33.6834 23.7034 34.3166 23.7034 34.7071 24.0939C34.8025 24.1893 35.0303 24.3517 35.4343 24.5569C35.8202 24.7529 36.3053 24.9575 36.8572 25.158C37.9609 25.5592 39.2741 25.9235 40.4774 26.1642C41.0189 26.2725 41.3701 26.7993 41.2618 27.3409C41.1535 27.8825 40.6267 28.2337 40.0851 28.1254C38.7884 27.866 37.3776 27.4752 36.1741 27.0378C35.5723 26.8191 35.0079 26.5835 34.5286 26.3401C34.0674 26.1058 33.6141 25.8294 33.2929 25.5081C32.9024 25.1176 32.9024 24.4844 33.2929 24.0939Z" fill="#EBFDFF"/>
<path d="M40.292 33.4604C38.0302 33.0078 35.7825 32.2196 34.2105 31.5735C33.5272 31.2927 32.75 31.7864 32.75 32.5251V53.2933C32.75 53.6661 32.8472 54.0365 33.0767 54.3302C34.5462 56.211 37.425 57.4707 39.7478 58.1731C40.9386 58.5331 42.0625 57.5975 42.0625 56.3535V35.5314C42.0625 34.5111 41.2924 33.6605 40.292 33.4604Z" fill="#FF495F"/>
<path fill-rule="evenodd" clip-rule="evenodd" d="M35.5 34.301C36.0523 34.301 36.5 34.7487 36.5 35.301V49.801C36.5 50.3533 36.0523 50.801 35.5 50.801C34.9477 50.801 34.5 50.3533 34.5 49.801V35.301C34.5 34.7487 34.9477 34.301 35.5 34.301Z" fill="#FFB5BE"/>
<path d="M47.8994 64.6886C47.8994 65.7829 47.0123 66.6701 45.9179 66.6701C44.8235 66.6701 43.9364 65.7829 43.9364 64.6886C43.9364 63.5942 44.8235 62.707 45.9179 62.707C47.0123 62.707 47.8994 63.5942 47.8994 64.6886Z" fill="white"/>
<path d="M50.5837 69.916C50.5837 70.6573 49.9828 71.2582 49.2416 71.2582C48.5003 71.2582 47.8994 70.6573 47.8994 69.916C47.8994 69.1748 48.5003 68.5739 49.2416 68.5739C49.9828 68.5739 50.5837 69.1748 50.5837 69.916Z" fill="white"/>
<path d="M52.3249 58.1259C52.3249 59.6398 51.0976 60.867 49.5837 60.867C48.0699 60.867 46.8426 59.6398 46.8426 58.1259C46.8426 56.612 48.0699 55.3848 49.5837 55.3848C51.0976 55.3848 52.3249 56.612 52.3249 58.1259Z" fill="white"/>
<path d="M46.7198 51.1481C46.7198 52.9356 45.2708 54.3846 43.4833 54.3846C41.6958 54.3846 40.2468 52.9356 40.2468 51.1481C40.2468 49.3607 41.6958 47.9116 43.4833 47.9116C45.2708 47.9116 46.7198 49.3607 46.7198 51.1481Z" fill="white"/>
<path d="M55 43.934C55 46.3234 53.063 48.2604 50.6736 48.2604C48.2843 48.2604 46.3473 46.3234 46.3473 43.934C46.3473 41.5446 48.2843 39.6077 50.6736 39.6077C53.063 39.6077 55 41.5446 55 43.934Z" fill="white"/>
</svg>
