<svg width="96" height="97" viewBox="0 0 96 97" fill="none" xmlns="http://www.w3.org/2000/svg">
<path d="M29.8455 35.9648C29.8455 35.9648 33.6688 41.6999 48.9623 41.6999C64.2558 41.6999 68.0791 35.9648 68.0791 35.9648L62.3948 76.7023C62.3611 76.9443 62.3072 77.1808 62.1971 77.3989C61.5793 78.6226 58.7529 82.8011 48.9623 82.8011C39.1717 82.8011 36.3453 78.6226 35.7275 77.3989C35.6174 77.1808 35.5635 76.9443 35.5298 76.7023L29.8455 35.9648Z" fill="#BD7C30"/>
<path fill-rule="evenodd" clip-rule="evenodd" d="M29.1347 34.0954C29.9948 33.7684 30.9651 34.0707 31.488 34.8238C31.4957 34.8339 31.5185 34.8633 31.5581 34.9096C31.638 35.0028 31.7869 35.1648 32.0197 35.3743C32.4839 35.7921 33.2907 36.4072 34.5633 37.0435C37.1045 38.3141 41.5668 39.6998 48.9623 39.6998C56.3578 39.6998 60.8201 38.3141 63.3613 37.0435C64.6339 36.4072 65.4406 35.7921 65.9048 35.3743C66.1377 35.1648 66.2866 35.0028 66.3665 34.9096C66.4061 34.8634 66.4289 34.8339 66.4366 34.8238C66.9595 34.0707 67.9298 33.7684 68.7899 34.0954C69.6619 34.4269 70.1889 35.3172 70.0599 36.2412L64.3756 76.9787C64.3281 77.3191 64.2342 77.8015 63.9825 78.3003C63.5284 79.1996 62.4236 80.857 60.0441 82.2765C57.6697 83.6928 54.1458 84.801 48.9623 84.801C43.7788 84.801 40.2549 83.6928 37.8805 82.2765C35.5009 80.857 34.3962 79.1996 33.9421 78.3002C33.6903 77.8015 33.5965 77.3191 33.5489 76.9787L27.8646 36.2412C27.7357 35.3172 28.2627 34.4269 29.1347 34.0954ZM65.7804 37.9669C67.4736 36.8732 68.0791 35.9648 68.0791 35.9648L62.3948 76.7023C62.3611 76.9442 62.3072 77.1808 62.1971 77.3989C61.5793 78.6225 58.7529 82.801 48.9623 82.801C39.1717 82.801 36.3453 78.6225 35.7275 77.3989C35.6174 77.1808 35.5635 76.9442 35.5298 76.7023L29.8455 35.9648C29.8455 35.9648 30.451 36.8732 32.1442 37.9669C34.7054 39.6213 39.7553 41.6998 48.9623 41.6998C58.1693 41.6998 63.2192 39.6213 65.7804 37.9669Z" fill="#694111"/>
<path d="M62.3948 76.7023L68.0791 35.9648C68.0791 35.9648 65.9864 39.1039 58.7045 40.7373C58.7045 40.7373 58.3009 53.6878 57.5648 61.9518C56.8606 69.8589 55.0815 82.1271 55.0815 82.1271C60.025 80.895 61.7307 78.3212 62.1957 77.4016C62.306 77.1836 62.3611 76.9443 62.3948 76.7023Z" fill="#AE6B1D"/>
<path fill-rule="evenodd" clip-rule="evenodd" d="M36.0893 44.6586C37.7388 44.5021 39.2028 45.7124 39.3593 47.3618L40.9125 63.7306C41.069 65.3801 39.8588 66.8441 38.2093 67.0006C36.5599 67.1571 35.0959 65.9469 34.9394 64.2974L33.3861 47.9286C33.2296 46.2792 34.4399 44.8152 36.0893 44.6586Z" fill="#D99240"/>
<path d="M57.9565 78.3282C57.9565 79.296 57.1719 80.0806 56.2041 80.0806C55.2363 80.0806 54.4517 79.296 54.4517 78.3282C54.4517 77.3604 55.2363 76.5758 56.2041 76.5758C57.1719 76.5758 57.9565 77.3604 57.9565 78.3282Z" fill="#935916"/>
<path d="M61.3882 76.0647C61.3882 76.7905 60.7998 77.3789 60.0739 77.3789C59.3481 77.3789 58.7596 76.7905 58.7596 76.0647C58.7596 75.3388 59.3481 74.7504 60.0739 74.7504C60.7998 74.7504 61.3882 75.3388 61.3882 76.0647Z" fill="#935916"/>
<path d="M57.0139 73.5091C57.0139 74.235 56.4255 74.8234 55.6997 74.8234C54.9738 74.8234 54.3854 74.235 54.3854 73.5091C54.3854 72.7832 54.9738 72.1948 55.6997 72.1948C56.4255 72.1948 57.0139 72.7832 57.0139 73.5091Z" fill="#935916"/>
<path d="M62.2711 67.3758C62.2711 68.1017 61.6827 68.6901 60.9568 68.6901C60.2309 68.6901 59.6425 68.1017 59.6425 67.3758C59.6425 66.6499 60.2309 66.0615 60.9568 66.0615C61.6827 66.0615 62.2711 66.6499 62.2711 67.3758Z" fill="#935916"/>
<path d="M58.7663 68.6902C58.7663 69.1741 58.374 69.5663 57.8901 69.5663C57.4062 69.5663 57.0139 69.1741 57.0139 68.6902C57.0139 68.2062 57.4062 67.814 57.8901 67.814C58.374 67.814 58.7663 68.2062 58.7663 68.6902Z" fill="#935916"/>
<path d="M63.2269 62.4773C63.2269 62.9612 62.8346 63.3535 62.3507 63.3535C61.8668 63.3535 61.4745 62.9612 61.4745 62.4773C61.4745 61.9934 61.8668 61.6011 62.3507 61.6011C62.8346 61.6011 63.2269 61.9934 63.2269 62.4773Z" fill="#935916"/>
<path d="M61.3219 71.6838C61.3219 72.4096 60.7334 72.9981 60.0076 72.9981C59.2817 72.9981 58.6933 72.4096 58.6933 71.6838C58.6933 70.9579 59.2817 70.3695 60.0076 70.3695C60.7334 70.3695 61.3219 70.9579 61.3219 71.6838Z" fill="#935916"/>
<path d="M60.5984 64.827C60.5984 65.5528 60.0099 66.1413 59.2841 66.1413C58.5582 66.1413 57.9698 65.5528 57.9698 64.827C57.9698 64.1011 58.5582 63.5127 59.2841 63.5127C60.0099 63.5127 60.5984 64.1011 60.5984 64.827Z" fill="#935916"/>
<path d="M63.3066 58.9724C63.3066 59.4563 62.9143 59.8486 62.4304 59.8486C61.9465 59.8486 61.5542 59.4563 61.5542 58.9724C61.5542 58.4885 61.9465 58.0962 62.4304 58.0962C62.9143 58.0962 63.3066 58.4885 63.3066 58.9724Z" fill="#935916"/>
<path d="M52.6263 79.1313C52.6263 79.6152 52.2341 80.0075 51.7502 80.0075C51.2662 80.0075 50.874 79.6152 50.874 79.1313C50.874 78.6474 51.2662 78.2551 51.7502 78.2551C52.2341 78.2551 52.6263 78.6474 52.6263 79.1313Z" fill="#935916"/>
<path d="M32.713 56.5154L34.1468 66.7907C39.0331 69.8914 51.8001 74.2324 63.7779 66.7907L65.2116 56.5154C51.8809 62.4869 37.9914 59.0035 32.713 56.5154Z" fill="#8A510E"/>
<path fill-rule="evenodd" clip-rule="evenodd" d="M35.8221 47.0472C36.6473 46.9741 37.3755 47.5838 37.4486 48.409L37.8668 53.1284C37.9399 53.9536 37.3303 54.6818 36.5051 54.755C35.6799 54.8281 34.9517 54.2184 34.8785 53.3932L34.4604 48.6737C34.3872 47.8486 34.9969 47.1203 35.8221 47.0472Z" fill="#FED19C"/>
<path d="M71.4246 33.6349C71.4246 38.65 61.3679 42.7154 48.9623 42.7154C36.5567 42.7154 26.5 38.65 26.5 33.6349C26.5 28.6199 36.5567 24.5544 48.9623 24.5544C61.3679 24.5544 71.4246 28.6199 71.4246 33.6349Z" fill="#FBF2D1"/>
<path fill-rule="evenodd" clip-rule="evenodd" d="M65.5951 41.91C61.2381 43.6714 55.3566 44.7154 48.9623 44.7154C42.568 44.7154 36.6864 43.6714 32.3295 41.91C30.1562 41.0315 28.2642 39.9351 26.8833 38.6153C25.4974 37.2907 24.5 35.6078 24.5 33.6349C24.5 31.662 25.4974 29.9792 26.8833 28.6546C28.2642 27.3348 30.1562 26.2384 32.3295 25.3598C36.6864 23.5985 42.568 22.5544 48.9623 22.5544C55.3566 22.5544 61.2381 23.5985 65.5951 25.3598C67.7683 26.2384 69.6604 27.3348 71.0412 28.6546C72.4272 29.9792 73.4246 31.662 73.4246 33.6349C73.4246 35.6078 72.4272 37.2907 71.0412 38.6153C69.6604 39.9351 67.7683 41.0315 65.5951 41.91ZM48.9623 42.7154C61.3679 42.7154 71.4246 38.65 71.4246 33.6349C71.4246 28.6199 61.3679 24.5544 48.9623 24.5544C36.5567 24.5544 26.5 28.6199 26.5 33.6349C26.5 38.65 36.5567 42.7154 48.9623 42.7154Z" fill="#D4BC8D"/>
<path d="M48.9623 36.9804C59.5202 36.9804 68.0791 33.5568 68.0791 29.3336V25.4207H29.8455V29.3336C29.8455 33.5568 38.4044 36.9804 48.9623 36.9804Z" fill="#E7D8A3"/>
<path fill-rule="evenodd" clip-rule="evenodd" d="M27.8455 25.4207C27.8455 24.3161 28.7409 23.4207 29.8455 23.4207H68.0791C69.1837 23.4207 70.0791 24.3161 70.0791 25.4207V29.3336C70.0791 31.1166 69.1676 32.6127 67.951 33.7632C66.7388 34.9097 65.0919 35.85 63.2227 36.5976C59.4733 38.0974 54.4306 38.9804 48.9623 38.9804C43.494 38.9804 38.4513 38.0974 34.7019 36.5976C32.8327 35.85 31.1858 34.9097 29.9735 33.7632C28.757 32.6127 27.8455 31.1166 27.8455 29.3336V25.4207ZM68.0791 29.3336C68.0791 33.5568 59.5202 36.9804 48.9623 36.9804C38.4044 36.9804 29.8455 33.5568 29.8455 29.3336V25.4207H68.0791V29.3336Z" fill="#D4BC8D"/>
<path d="M68.0791 25.5103C68.0791 29.7334 59.5202 33.157 48.9623 33.157C38.4044 33.157 29.8455 29.7334 29.8455 25.5103C29.8455 21.2871 38.4044 17.8635 48.9623 17.8635C59.5202 17.8635 68.0791 21.2871 68.0791 25.5103Z" fill="#FBF2D1"/>
<path fill-rule="evenodd" clip-rule="evenodd" d="M63.2227 32.7743C59.4733 34.2741 54.4306 35.157 48.9623 35.157C43.494 35.157 38.4513 34.2741 34.7019 32.7743C32.8327 32.0266 31.1858 31.0863 29.9735 29.9398C28.757 28.7894 27.8455 27.2932 27.8455 25.5103C27.8455 23.7273 28.757 22.2312 29.9735 21.0807C31.1858 19.9342 32.8327 18.9939 34.7019 18.2462C38.4513 16.7465 43.494 15.8635 48.9623 15.8635C54.4306 15.8635 59.4733 16.7465 63.2227 18.2462C65.0919 18.9939 66.7388 19.9342 67.951 21.0807C69.1676 22.2312 70.0791 23.7273 70.0791 25.5103C70.0791 27.2932 69.1676 28.7894 67.951 29.9398C66.7388 31.0863 65.0919 32.0266 63.2227 32.7743ZM48.9623 33.157C59.5202 33.157 68.0791 29.7334 68.0791 25.5103C68.0791 21.2871 59.5202 17.8635 48.9623 17.8635C38.4044 17.8635 29.8455 21.2871 29.8455 25.5103C29.8455 29.7334 38.4044 33.157 48.9623 33.157Z" fill="#D4BC8D"/>
<path d="M56.0713 24.9188C56.0713 27.423 50.9962 29.4531 44.7356 29.4531C38.4751 29.4531 33.4 27.423 33.4 24.9188C33.4 22.4146 38.4751 20.3845 44.7356 20.3845C50.9962 20.3845 56.0713 22.4146 56.0713 24.9188Z" fill="white"/>
<path d="M43.6902 24.5545C43.6902 25.4337 41.9082 26.1465 39.71 26.1465C37.5118 26.1465 35.7299 25.4337 35.7299 24.5545C35.7299 23.6752 37.5118 22.9624 39.71 22.9624C41.9082 22.9624 43.6902 23.6752 43.6902 24.5545Z" fill="#D3BC8D"/>
</svg>
