<svg width="96" height="97" viewBox="0 0 96 97" fill="none" xmlns="http://www.w3.org/2000/svg">
<path d="M33.75 25.926C33.75 18.125 40.074 11.801 47.875 11.801C55.676 11.801 62 18.125 62 25.926V49.176C62 56.977 55.676 63.301 47.875 63.301C40.074 63.301 33.75 56.977 33.75 49.176V25.926Z" fill="#F2C653"/>
<path fill-rule="evenodd" clip-rule="evenodd" d="M64 25.926V49.176C64 58.0816 56.7806 65.301 47.875 65.301C38.9694 65.301 31.75 58.0816 31.75 49.176V25.926C31.75 17.0204 38.9694 9.80103 47.875 9.80103C56.7806 9.80103 64 17.0204 64 25.926ZM47.875 11.801C40.074 11.801 33.75 18.125 33.75 25.926V49.176C33.75 56.977 40.074 63.301 47.875 63.301C55.676 63.301 62 56.977 62 49.176V25.926C62 18.125 55.676 11.801 47.875 11.801Z" fill="#C09A35"/>
<path d="M31 13.8011C30 17.6011 28.4387 24.1407 33.25 32.8011C34.9278 33.8011 40.4176 34.3886 48.9543 28.7386C50.3543 21.9386 46.4543 19.8219 44.3293 19.6136C44.3293 13.7136 40.8293 12.4886 39.0793 12.6136C37.4543 10.8636 32.25 9.05109 31 13.8011Z" fill="#A2E251"/>
<path fill-rule="evenodd" clip-rule="evenodd" d="M31.9972 10.5398C31.0745 11.17 30.395 12.1707 30.0329 13.5466C29.0074 17.4436 27.3793 24.293 32.3758 33.2867L32.5067 33.5222L32.738 33.6601C33.8531 34.3247 35.9116 34.7062 38.6919 34.2504C41.5066 33.7889 45.1443 32.4594 49.5062 29.5725L49.8505 29.3446L49.9337 28.9402C50.6762 25.3338 50.0422 22.7902 48.7604 21.0999C47.7677 19.7909 46.4525 19.0829 45.3063 18.7793C45.1546 16.0898 44.2656 14.2725 43.0454 13.1255C41.9002 12.0491 40.5474 11.6444 39.4782 11.608C38.4214 10.67 36.671 9.85206 34.946 9.7709C33.9581 9.72442 32.9093 9.91672 31.9972 10.5398ZM34.852 11.7687C36.2509 11.8345 37.712 12.6107 38.3465 13.294L38.6725 13.6451L39.1505 13.611C39.7811 13.566 40.8089 13.7682 41.6756 14.5828C42.5208 15.3773 43.3292 16.8667 43.3292 19.6135V20.5203L44.2317 20.6088C45.0625 20.6902 46.2955 21.1594 47.1668 22.3084C47.9799 23.3806 48.5791 25.1809 48.0523 28.1339C44.0386 30.7347 40.7823 31.8809 38.3683 32.2767C36.1243 32.6447 34.6687 32.3574 33.9801 32.0532C29.5294 23.8575 31.0029 17.7196 31.9671 14.0555C32.23 13.0564 32.6698 12.5024 33.1253 12.1912C33.5913 11.8729 34.1795 11.7371 34.852 11.7687Z" fill="#66A417"/>
<path d="M49.749 20.4261C47.2455 18.653 46.6392 15.2062 48.3947 12.7273C50.1502 10.2484 53.6029 9.67622 56.1064 11.4492L49.749 20.4261Z" fill="#E895FD"/>
<path fill-rule="evenodd" clip-rule="evenodd" d="M48.5931 22.0583C49.4946 22.6966 50.7428 22.4834 51.3812 21.582L57.7386 12.6052C58.377 11.7038 58.1637 10.4555 57.2623 9.81713C53.8726 7.41656 49.1672 8.17602 46.7625 11.5715C44.3579 14.967 45.2035 19.6577 48.5931 22.0583ZM48.3292 18.9705C48.6985 19.5227 49.1736 20.0186 49.749 20.4261L56.1064 11.4493C55.531 11.0418 54.9055 10.7582 54.262 10.5931C52.1055 10.04 49.7468 10.8182 48.3947 12.7274C47.0426 14.6366 47.0915 17.1199 48.3292 18.9705Z" fill="#A532C3"/>
<path d="M61.663 16.4729C63.213 20.0836 62.9419 29.1445 61.5899 33.8303C54.1618 37.0536 45.6886 34.1644 42.3805 32.3169C40.5226 25.6275 44.2193 22.5029 46.3253 22.151C45.9252 16.2646 49.6246 14.4721 51.3791 14.4781C52.8817 12.622 59.2069 10.7512 61.663 16.4729Z" fill="#7BBD27"/>
<path fill-rule="evenodd" clip-rule="evenodd" d="M56.1709 11.6338C58.5978 11.6519 61.1797 12.8119 62.5819 16.0784C63.446 18.0912 63.7579 21.4429 63.7146 24.7614C63.6709 28.1159 63.26 31.649 62.5507 34.1075L62.4201 34.5601L61.9879 34.7476C58.0466 36.4579 53.8652 36.5324 50.2831 35.9627C46.7036 35.3934 43.6467 34.1694 41.8929 33.1899L41.5287 32.9865L41.417 32.5845C39.6247 26.1312 42.6475 22.422 45.2958 21.4046C45.2713 18.6648 46.1154 16.7177 47.31 15.4259C48.4275 14.2175 49.8117 13.6309 50.9202 13.5045C51.4327 13.0133 52.132 12.5911 52.8937 12.2774C53.8463 11.8852 54.9862 11.625 56.1709 11.6338ZM53.6552 14.1268C52.9043 14.436 52.3908 14.8177 52.1563 15.1073L51.8548 15.4797L51.3756 15.4781C50.7857 15.4761 49.6875 15.8007 48.7784 16.7838C47.8997 17.7339 47.1385 19.3694 47.3229 22.0832L47.3844 22.9878L46.4901 23.1373C45.0889 23.3715 41.7717 25.735 43.237 31.6423C44.848 32.4792 47.5054 33.4958 50.5972 33.9875C53.7964 34.4963 57.3912 34.4326 60.7539 33.0949C61.3234 30.8825 61.6752 27.7697 61.7148 24.7354C61.7576 21.4493 61.43 18.4652 60.7441 16.8673C59.6902 14.4122 57.8814 13.6467 56.156 13.6338C55.2646 13.6271 54.388 13.825 53.6552 14.1268Z" fill="#58930E"/>
<path d="M49.6406 21.426C49.6406 24.4636 47.1537 26.926 44.0859 26.926C41.0182 26.926 38.5312 24.4636 38.5312 21.426C38.5312 18.3885 41.0182 15.926 44.0859 15.926C47.1537 15.926 49.6406 18.3885 49.6406 21.426Z" fill="#A45D0A"/>
<path fill-rule="evenodd" clip-rule="evenodd" d="M51.6406 21.426C51.6406 25.5868 48.2396 28.926 44.0859 28.926C39.9323 28.926 36.5312 25.5868 36.5312 21.426C36.5312 17.2653 39.9323 13.926 44.0859 13.926C48.2396 13.926 51.6406 17.2653 51.6406 21.426ZM44.0859 26.926C47.1537 26.926 49.6406 24.4636 49.6406 21.426C49.6406 18.3885 47.1537 15.926 44.0859 15.926C41.0182 15.926 38.5312 18.3885 38.5312 21.426C38.5312 24.4636 41.0182 26.926 44.0859 26.926Z" fill="#633804"/>
<path d="M57.1094 27.051C57.1094 30.0886 54.6225 32.551 51.5547 32.551C48.4869 32.551 46 30.0886 46 27.051C46 24.0135 48.4869 21.551 51.5547 21.551C54.6225 21.551 57.1094 24.0135 57.1094 27.051Z" fill="#A55D09"/>
<path fill-rule="evenodd" clip-rule="evenodd" d="M59.1094 27.051C59.1094 31.2118 55.7083 34.551 51.5547 34.551C47.4011 34.551 44 31.2118 44 27.051C44 22.8903 47.4011 19.551 51.5547 19.551C55.7083 19.551 59.1094 22.8903 59.1094 27.051ZM51.5547 32.551C54.6225 32.551 57.1094 30.0886 57.1094 27.051C57.1094 24.0135 54.6225 21.551 51.5547 21.551C48.4869 21.551 46 24.0135 46 27.051C46 30.0886 48.4869 32.551 51.5547 32.551Z" fill="#6E3D04"/>
<path d="M44.375 29.6099C44.375 32.6474 41.8881 35.1099 38.8203 35.1099C35.7525 35.1099 33.2656 32.6474 33.2656 29.6099C33.2656 26.5723 35.7525 24.1099 38.8203 24.1099C41.8881 24.1099 44.375 26.5723 44.375 29.6099Z" fill="#AF660F"/>
<path fill-rule="evenodd" clip-rule="evenodd" d="M46.375 29.6099C46.375 33.7706 42.9739 37.1099 38.8203 37.1099C34.6667 37.1099 31.2656 33.7706 31.2656 29.6099C31.2656 25.4491 34.6667 22.1099 38.8203 22.1099C42.9739 22.1099 46.375 25.4491 46.375 29.6099ZM38.8203 35.1099C41.8881 35.1099 44.375 32.6474 44.375 29.6099C44.375 26.5723 41.8881 24.1099 38.8203 24.1099C35.7525 24.1099 33.2656 26.5723 33.2656 29.6099C33.2656 32.6474 35.7525 35.1099 38.8203 35.1099Z" fill="#754205"/>
<path d="M39.8944 28.1761C39.8944 29.5314 38.7847 30.6301 37.4159 30.6301C36.0471 30.6301 34.9375 29.5314 34.9375 28.1761C34.9375 26.8208 36.0471 25.722 37.4159 25.722C38.7847 25.722 39.8944 26.8208 39.8944 28.1761Z" fill="#D27F1C"/>
<path d="M44.0859 18.6907C44.0859 19.6491 43.3013 20.426 42.3334 20.426C41.3655 20.426 40.5808 19.6491 40.5808 18.6907C40.5808 17.7324 41.3655 16.9554 42.3334 16.9554C43.3013 16.9554 44.0859 17.7324 44.0859 18.6907Z" fill="#C67210"/>
<path d="M50.875 24.8157C50.875 25.7741 50.0904 26.551 49.1224 26.551C48.1545 26.551 47.3699 25.7741 47.3699 24.8157C47.3699 23.8574 48.1545 23.0804 49.1224 23.0804C50.0904 23.0804 50.875 23.8574 50.875 24.8157Z" fill="#CD7813"/>
<path d="M47.9122 41.2035C50.4157 39.4305 51.0221 35.9837 49.2665 33.5048C47.511 31.0259 44.0583 30.4537 41.5548 32.2267L47.9122 41.2035Z" fill="#FA5252"/>
<path fill-rule="evenodd" clip-rule="evenodd" d="M49.0681 42.8356C48.1667 43.474 46.9184 43.2608 46.28 42.3593L39.9226 33.3825C39.2843 32.4811 39.4975 31.2329 40.3989 30.5945C43.7886 28.1939 48.494 28.9534 50.8987 32.3488C53.3034 35.7443 52.4578 40.435 49.0681 42.8356ZM49.3321 39.7478C48.9627 40.3001 48.4876 40.796 47.9122 41.2035L41.5548 32.2266C42.1302 31.8191 42.7557 31.5355 43.3992 31.3705C45.5557 30.8174 47.9145 31.5956 49.2665 33.5047C50.6186 35.4139 50.5697 37.8972 49.3321 39.7478Z" fill="#BC2121"/>
<path d="M56.285 28.6099C53.7815 26.8369 53.1751 23.3901 54.9307 20.9112C56.6862 18.4323 60.1389 17.8601 62.6424 19.6331L56.285 28.6099Z" fill="#FA5252"/>
<path fill-rule="evenodd" clip-rule="evenodd" d="M55.1292 30.2421C56.0306 30.8805 57.2788 30.6673 57.9172 29.7658L64.2746 20.789C64.913 19.8876 64.6997 18.6394 63.7983 18.001C60.4086 15.6004 55.7032 16.3599 53.2985 19.7553C50.8939 23.1508 51.7395 27.8415 55.1292 30.2421ZM54.8652 27.1543C55.2345 27.7066 55.7097 28.2025 56.285 28.61L62.6424 19.6331C62.0671 19.2256 61.4415 18.942 60.798 18.777C58.6415 18.2239 56.2828 19.0021 54.9307 20.9112C53.5786 22.8204 53.6276 25.3037 54.8652 27.1543Z" fill="#BC2121"/>
<path d="M46.0859 38.9535L39.4609 30.0785L32.1875 44.2386L39.4609 52.3285L46.0859 38.9535Z" fill="#F99B2D"/>
<path fill-rule="evenodd" clip-rule="evenodd" d="M39.3777 29.082C39.7215 29.0532 40.0559 29.2038 40.2623 29.4803L46.8873 38.3553C47.1126 38.6571 47.1492 39.0599 46.982 39.3974L40.357 52.7724C40.2099 53.0694 39.9251 53.2742 39.5967 53.3192C39.2683 53.3642 38.9389 53.2436 38.7173 52.9971L31.4439 44.9072C31.1665 44.5986 31.1084 44.1508 31.298 43.7817L38.5714 29.6216C38.7291 29.3147 39.0338 29.1107 39.3777 29.082ZM39.6182 31.9609L33.3919 44.0825L39.2191 50.5638L44.9174 39.0597L39.6182 31.9609Z" fill="#C7700A"/>
<path d="M56 37.051L49.375 28.176L41 43.9885L49.375 51.176L56 37.051Z" fill="#FC9318"/>
<path fill-rule="evenodd" clip-rule="evenodd" d="M49.298 27.179C49.6398 27.1526 49.9713 27.3031 50.1764 27.5778L56.8014 36.4528C57.0221 36.7485 57.062 37.1416 56.9054 37.4757L50.2804 51.6007C50.1477 51.8836 49.8904 52.0882 49.5849 52.1538C49.2795 52.2193 48.9609 52.1384 48.7238 51.9349L40.3488 44.7474C39.9941 44.443 39.8976 43.9335 40.1163 43.5205L48.4913 27.708C48.6518 27.405 48.9562 27.2054 49.298 27.179ZM49.519 30.0407L42.2578 43.7502L49.0282 49.5606L54.8402 37.169L49.519 30.0407Z" fill="#CF7306"/>
<path d="M64.7029 25.0542C65.8564 28.8105 63.1865 39.044 61.7073 43.6912C58.0031 51.0477 53.0613 54.6347 51.0535 55.5087C43.9845 51.4925 46.8558 43.5443 49.175 40.0722C47.5 33.3347 51.3108 31.0614 53.4256 30.7669C53.186 24.8718 56.6334 23.5057 58.387 23.5595C59.9396 21.7449 63.261 20.3589 64.7029 25.0542Z" fill="#A8E12D"/>
<path fill-rule="evenodd" clip-rule="evenodd" d="M64.008 21.8532C64.7139 22.5113 65.2655 23.4797 65.6589 24.7607C66.0036 25.8831 66.0402 27.3798 65.927 28.9685C65.8118 30.5843 65.5321 32.4045 65.1737 34.2312C64.4565 37.8856 63.4086 41.6434 62.6602 43.9945L62.6362 44.0701L62.6005 44.141C58.8055 51.6777 53.7021 55.4465 51.4526 56.4256L50.9942 56.6251L50.5595 56.3782C46.6486 54.1562 45.4572 50.7799 45.5946 47.544C45.7201 44.5878 46.9429 41.7449 48.1042 39.8872C47.36 36.535 47.8951 34.103 49.0585 32.4321C49.9972 31.0838 51.2826 30.3229 52.4155 29.9731C52.4579 27.2796 53.2723 25.4277 54.4449 24.2321C55.5422 23.1133 56.8729 22.6535 57.9382 22.5717C58.8309 21.6689 60.158 20.8495 61.5978 20.8657C62.4456 20.8753 63.2846 21.1788 64.008 21.8532ZM61.5752 22.8656C60.7839 22.8567 59.8226 23.4198 59.1468 24.2096L58.8353 24.5737L58.3563 24.559C57.7244 24.5396 56.7056 24.7834 55.8728 25.6326C55.0606 26.4607 54.3132 27.9817 54.4248 30.7263L54.4616 31.6323L53.5635 31.7574C52.7367 31.8725 51.5238 32.3914 50.6998 33.5748C49.8966 34.7286 49.3588 36.6668 50.1455 39.831L50.2522 40.26L50.0066 40.6277C48.9138 42.2637 47.7068 44.943 47.5928 47.6288C47.4874 50.1124 48.3038 52.5921 51.1035 54.3724C53.1276 53.2919 57.4423 49.9009 60.7785 43.3121C61.5077 41.0113 62.5195 37.3703 63.2111 33.846C63.5608 32.0639 63.8248 30.3309 63.932 28.8263C64.0412 27.2946 63.979 26.1034 63.747 25.3478C63.4194 24.2811 63.0151 23.6619 62.6442 23.3161C62.2908 22.9866 61.9321 22.8696 61.5752 22.8656Z" fill="#5E9D0D"/>
<path fill-rule="evenodd" clip-rule="evenodd" d="M58.1072 25.8216C58.1784 26.0884 58.0198 26.3624 57.7529 26.4336C57.0882 26.6108 56.6465 27.2019 56.4351 28.281C56.2245 29.3555 56.2781 30.7746 56.4943 32.3186C56.5143 32.4619 56.4713 32.6069 56.3764 32.7161C56.2814 32.8253 56.1438 32.8879 55.9991 32.8879C54.71 32.8879 53.4513 33.663 52.6316 35.0312C51.8149 36.3942 51.4512 38.3301 51.9862 40.5593C52.0249 40.7208 51.981 40.8909 51.869 41.0134C51.752 41.1415 51.5388 41.4782 51.2715 41.9911C51.0135 42.4862 50.728 43.1004 50.4619 43.7424C50.1957 44.3849 49.9522 45.0477 49.7762 45.6406C49.5966 46.2454 49.5 46.7361 49.5 47.051C49.5 47.3272 49.2761 47.551 49 47.551C48.7239 47.551 48.5 47.3272 48.5 47.051C48.5 46.5847 48.6325 45.9791 48.8176 45.356C49.0061 44.721 49.2626 44.0245 49.5381 43.3596C49.8137 42.6944 50.1115 42.0534 50.3847 41.529C50.5824 41.1495 50.7813 40.8035 50.9595 40.5543C50.4495 38.1918 50.8409 36.0741 51.7738 34.5172C52.628 33.0914 53.9503 32.1229 55.4352 31.9253C55.2705 30.5316 55.2385 29.1874 55.4538 28.0887C55.6954 26.8552 56.285 25.7901 57.4953 25.4673C57.7621 25.3962 58.0361 25.5548 58.1072 25.8216Z" fill="#C4FA52"/>
<path d="M32.6519 77.301V30.301C33.1519 32.1344 37.0019 39.401 48.4019 49.801C57.8204 58.3933 62.768 67.4634 63.2165 78.252C63.384 82.2831 59.8742 85.301 55.8396 85.301H40.6519C36.2336 85.301 32.6519 81.7193 32.6519 77.301Z" fill="#EBC76A"/>
<path fill-rule="evenodd" clip-rule="evenodd" d="M32.3864 28.3188C31.3933 28.4517 30.6519 29.2991 30.6519 30.3011V77.3011C30.6519 82.8239 35.1291 87.3011 40.6519 87.3011H55.8396C60.7743 87.3011 65.4389 83.56 65.2148 78.169C64.7386 66.716 59.4532 57.1757 49.7498 48.3235C44.137 43.2031 40.4162 38.8842 38.053 35.657C35.644 32.367 34.7331 30.331 34.5814 29.7748C34.3178 28.8082 33.3795 28.1858 32.3864 28.3188ZM32.6519 30.3011C32.83 30.9542 33.4334 32.2971 34.6519 34.2255C36.8535 37.71 41.0634 43.1063 48.4019 49.8011C57.8204 58.3934 62.768 67.4635 63.2165 78.252C63.3841 82.2832 59.8742 85.3011 55.8396 85.3011H40.6519C36.2336 85.3011 32.6519 81.7193 32.6519 77.3011V30.3011Z" fill="#AC8A33"/>
<path fill-rule="evenodd" clip-rule="evenodd" d="M34.75 38.426C35.3023 38.426 35.75 38.8737 35.75 39.426V67.426C35.75 67.9783 35.3023 68.426 34.75 68.426C34.1977 68.426 33.75 67.9783 33.75 67.426V39.426C33.75 38.8737 34.1977 38.426 34.75 38.426Z" fill="#FEE093"/>
<path d="M63.25 77.301V34.301C60.6875 39.676 58.9 39.401 47.5 49.801C38.0815 58.3933 33.1339 67.4634 32.6854 78.252C32.5178 82.2831 36.0277 85.301 40.0623 85.301H55.25C59.6683 85.301 63.25 81.7193 63.25 77.301Z" fill="#EBC76A"/>
<path fill-rule="evenodd" clip-rule="evenodd" d="M63.6912 32.3504C64.6028 32.5565 65.25 33.3665 65.25 34.3011V77.3011C65.25 82.8239 60.7729 87.3011 55.25 87.3011H40.0623C35.1277 87.3011 30.463 83.56 30.6871 78.169C31.1633 66.716 36.4488 57.1757 46.1521 48.3236C50.1866 44.643 53.0903 42.2353 55.1803 40.5024C56.0445 39.7858 56.7696 39.1846 57.3779 38.6564C59.4031 36.8983 60.3029 35.8354 61.4447 33.4404C61.8469 32.5968 62.7797 32.1442 63.6912 32.3504ZM63.25 34.3011C62.591 35.6835 61.9832 36.6921 61.25 37.6047C60.1325 38.9957 58.7236 40.1637 56.3977 42.0919C54.3159 43.8176 51.4996 46.1524 47.5 49.8011C38.0815 58.3934 33.1339 67.4635 32.6854 78.2521C32.5178 82.2832 36.0277 85.3011 40.0623 85.3011H55.25C59.6683 85.3011 63.25 81.7194 63.25 77.3011V34.3011Z" fill="#AC8A33"/>
<path d="M40.0623 85.301H55.25C59.6683 85.301 63.25 81.7193 63.25 77.301V46.301C62.5833 51.5094 60.05 63.001 55.25 67.301C49.25 72.676 40.0623 78.676 40.0623 85.301Z" fill="#D5B051"/>
<path fill-rule="evenodd" clip-rule="evenodd" d="M54.6982 44.3773C55.1048 44.0036 55.7374 44.0302 56.1112 44.4368C56.485 44.8433 56.4584 45.4759 56.0518 45.8497L55.375 45.1135L54.6982 44.3773ZM34.9375 76.301C33.9478 76.1578 33.9478 76.1576 33.9479 76.1573L33.9483 76.1545L33.9493 76.1478L33.9528 76.124C33.9559 76.1037 33.9604 76.0745 33.9664 76.0367C33.9783 75.9611 33.9962 75.8512 34.0205 75.7102C34.0692 75.4281 34.1437 75.0211 34.248 74.5136C34.4567 73.4993 34.7856 72.0804 35.2678 70.4542C36.2278 67.2174 37.8153 63.0907 40.3213 59.706C42.7862 56.3768 46.3914 52.5377 49.3551 49.5516C50.8417 48.0538 52.1761 46.7616 53.139 45.8436C53.6205 45.3845 54.0094 45.0188 54.2784 44.7674C54.4129 44.6417 54.5174 44.5446 54.5885 44.4788L54.6697 44.4037L54.6982 44.3773C54.6983 44.3772 54.6982 44.3773 55.375 45.1135L56.0518 45.8497L56.0504 45.851L56.026 45.8734L55.9478 45.9458C55.8787 46.0098 55.7763 46.105 55.644 46.2286C55.3794 46.4759 54.9953 46.8371 54.519 47.2912C53.5662 48.1995 52.2455 49.4786 50.7746 50.9605C47.8232 53.9342 44.3033 57.6888 41.9287 60.8961C39.6222 64.0113 38.116 67.8847 37.1853 71.0229C36.7222 72.5842 36.4066 73.9465 36.207 74.9166C36.1073 75.4013 36.0368 75.7872 35.9914 76.0501C35.9688 76.1815 35.9524 76.2821 35.9419 76.3488L35.9303 76.4231L35.9277 76.4405L35.9272 76.4441C35.9272 76.4442 35.9272 76.444 35.9272 76.4441C35.9272 76.444 35.9272 76.4443 34.9375 76.301ZM34.9375 76.301L33.9479 76.1573C33.8688 76.7039 34.2477 77.2116 34.7943 77.2907C35.3408 77.3698 35.848 76.9905 35.9272 76.4441" fill="#FEE093"/>
<path fill-rule="evenodd" clip-rule="evenodd" d="M44.6963 56.115C45.0752 56.5169 45.0566 57.1497 44.6548 57.5286C43.3016 58.8045 41.1065 61.825 39.834 64.4003C39.5894 64.8954 38.9897 65.0985 38.4945 64.8538C37.9994 64.6091 37.7963 64.0094 38.041 63.5143C39.3935 60.777 41.7193 57.5476 43.2827 56.0734C43.6846 55.6946 44.3175 55.7132 44.6963 56.115Z" fill="#FFF2D2"/>
<path d="M58.6875 79.7385C58.6875 80.567 58.1698 81.2385 57.5312 81.2385C56.8927 81.2385 56.375 80.567 56.375 79.7385C56.375 78.9101 56.8927 78.2385 57.5312 78.2385C58.1698 78.2385 58.6875 78.9101 58.6875 79.7385Z" fill="#F3D78F"/>
<path d="M61 74.3635C61 75.192 60.4823 75.8635 59.8438 75.8635C59.2052 75.8635 58.6875 75.192 58.6875 74.3635C58.6875 73.5351 59.2052 72.8635 59.8438 72.8635C60.4823 72.8635 61 73.5351 61 74.3635Z" fill="#F3D78F"/>
<path d="M54.5 65.6514C54.5 66.2 54.1572 66.6447 53.7344 66.6447C53.3115 66.6447 52.9688 66.2 52.9688 65.6514C52.9688 65.1029 53.3115 64.6582 53.7344 64.6582C54.1572 64.6582 54.5 65.1029 54.5 65.6514Z" fill="#F3D78F"/>
<path d="M53.8906 82.013C53.8906 82.5616 53.5478 83.0063 53.125 83.0063C52.7022 83.0063 52.3594 82.5616 52.3594 82.013C52.3594 81.4645 52.7022 81.0198 53.125 81.0198C53.5478 81.0198 53.8906 81.4645 53.8906 82.013Z" fill="#F3D78F"/>
<path d="M49.5996 74.3634C49.5996 74.9119 49.2568 75.3566 48.834 75.3566C48.4111 75.3566 48.0684 74.9119 48.0684 74.3634C48.0684 73.8148 48.4111 73.3701 48.834 73.3701C49.2568 73.3701 49.5996 73.8148 49.5996 74.3634Z" fill="#F3D78F"/>
<path d="M43.375 82.2318C43.375 82.7803 43.0322 83.225 42.6094 83.225C42.1865 83.225 41.8438 82.7803 41.8438 82.2318C41.8438 81.6832 42.1865 81.2385 42.6094 81.2385C43.0322 81.2385 43.375 81.6832 43.375 82.2318Z" fill="#F3D78F"/>
<path d="M44.9062 78.013C44.9062 78.5616 44.5635 79.0063 44.1406 79.0063C43.7178 79.0063 43.375 78.5616 43.375 78.013C43.375 77.4645 43.7178 77.0198 44.1406 77.0198C44.5635 77.0198 44.9062 77.4645 44.9062 78.013Z" fill="#F3D78F"/>
<path d="M50.6406 69.0579C50.6406 69.6065 50.2978 70.0512 49.875 70.0512C49.4522 70.0512 49.1094 69.6065 49.1094 69.0579C49.1094 68.5094 49.4522 68.0647 49.875 68.0647C50.2978 68.0647 50.6406 68.5094 50.6406 69.0579Z" fill="#F3D78F"/>
<path d="M59.6406 69.2142C59.6406 69.7627 59.2978 70.2074 58.875 70.2074C58.4522 70.2074 58.1094 69.7627 58.1094 69.2142C58.1094 68.6656 58.4522 68.2209 58.875 68.2209C59.2978 68.2209 59.6406 68.6656 59.6406 69.2142Z" fill="#F3D78F"/>
<path d="M60.7656 59.2943C60.7656 59.8428 60.4228 60.2875 60 60.2875C59.5772 60.2875 59.2344 59.8428 59.2344 59.2943C59.2344 58.7457 59.5772 58.301 60 58.301C60.4228 58.301 60.7656 58.7457 60.7656 59.2943Z" fill="#F3D78F"/>
<path d="M56.7812 56.4193C56.7812 56.9678 56.4385 57.4125 56.0156 57.4125C55.5928 57.4125 55.25 56.9678 55.25 56.4193C55.25 55.8707 55.5928 55.426 56.0156 55.426C56.4385 55.426 56.7812 55.8707 56.7812 56.4193Z" fill="#F3D78F"/>
<path d="M61 53.9952C61 54.5437 60.6572 54.9884 60.2344 54.9884C59.8115 54.9884 59.4688 54.5437 59.4688 53.9952C59.4688 53.4466 59.8115 53.002 60.2344 53.002C60.6572 53.002 61 53.4466 61 53.9952Z" fill="#F3D78F"/>
<path d="M53.5625 77.801C53.5625 78.6295 53.0448 79.301 52.4062 79.301C51.7677 79.301 51.25 78.6295 51.25 77.801C51.25 76.9726 51.7677 76.301 52.4062 76.301C53.0448 76.301 53.5625 76.9726 53.5625 77.801Z" fill="#F3D78F"/>
<path d="M56.7812 72.0198C56.7812 73.3142 55.9724 74.3635 54.9746 74.3635C53.9768 74.3635 53.168 73.3142 53.168 72.0198C53.168 70.7254 53.9768 69.676 54.9746 69.676C55.9724 69.676 56.7812 70.7254 56.7812 72.0198Z" fill="#F3D78F"/>
<path d="M49.875 81.0198C49.875 82.3142 49.0661 83.3635 48.0684 83.3635C47.0706 83.3635 46.2617 82.3142 46.2617 81.0198C46.2617 79.7254 47.0706 78.676 48.0684 78.676C49.0661 78.676 49.875 79.7254 49.875 81.0198Z" fill="#F3D78F"/>
<path d="M60.4941 64.301C60.4941 65.5954 59.6853 66.6448 58.6875 66.6448C57.6897 66.6448 56.8809 65.5954 56.8809 64.301C56.8809 63.0066 57.6897 61.9573 58.6875 61.9573C59.6853 61.9573 60.4941 63.0066 60.4941 64.301Z" fill="#F3D78F"/>
<path fill-rule="evenodd" clip-rule="evenodd" d="M58.9538 48.9856C59.4042 49.3052 59.5102 49.9295 59.1905 50.3799C58.2147 51.7549 56.4912 53.6351 54.3869 55.3035C52.2899 56.966 49.7295 58.4864 47.076 59.0307C46.5349 59.1417 46.0064 58.7931 45.8954 58.252C45.7844 57.711 46.1331 57.1825 46.6741 57.0715C48.8956 56.6158 51.1684 55.3029 53.1444 53.7363C55.113 52.1755 56.702 50.4306 57.5595 49.2224C57.8791 48.772 58.5034 48.666 58.9538 48.9856Z" fill="#B67616"/>
<path fill-rule="evenodd" clip-rule="evenodd" d="M59.4461 56.2302C59.8995 56.5456 60.0113 57.1688 59.6959 57.6222C59.1118 58.4619 58.1536 59.3719 57.0099 60.2647C55.8525 61.1684 54.4516 62.0955 52.9324 62.9607C49.9072 64.6835 46.3295 66.2074 43.1804 66.7847C42.6371 66.8843 42.116 66.5247 42.0164 65.9814C41.9168 65.4382 42.2765 64.9171 42.8197 64.8175C45.6705 64.2949 49.0304 62.8812 51.9427 61.2228C53.3922 60.3973 54.7101 59.5229 55.7792 58.6883C56.8621 57.8429 57.6383 57.0778 58.0541 56.48C58.3695 56.0267 58.9927 55.9148 59.4461 56.2302Z" fill="#B67616"/>
<path fill-rule="evenodd" clip-rule="evenodd" d="M59.0711 63.9802C59.5244 64.2956 59.6363 64.9188 59.3209 65.3722C58.7035 66.2598 57.5945 67.1435 56.3182 67.9611C55.0146 68.7963 53.4335 69.6263 51.7682 70.3808C48.4535 71.8826 44.6923 73.1358 41.9831 73.5171C41.4362 73.594 40.9305 73.2131 40.8535 72.6662C40.7765 72.1193 41.1575 71.6136 41.7044 71.5366C44.1515 71.1922 47.7183 70.02 50.9428 68.5591C52.547 67.8323 54.0381 67.0466 55.2394 66.2771C56.468 65.49 57.2965 64.78 57.6791 64.23C57.9945 63.7767 58.6177 63.6648 59.0711 63.9802Z" fill="#B67616"/>
<path fill-rule="evenodd" clip-rule="evenodd" d="M58.9461 71.2302C59.3994 71.5456 59.5113 72.1688 59.1959 72.6222C58.567 73.5262 57.3941 74.4062 56.0559 75.209C54.6837 76.0322 53.0125 76.8465 51.2593 77.5851C47.7672 79.0563 43.8352 80.2749 41.1394 80.6543C40.5925 80.7312 40.0867 80.3503 40.0098 79.8034C39.9328 79.2565 40.3137 78.7508 40.8606 78.6738C43.3211 78.3275 47.0765 77.1771 50.4828 75.742C52.179 75.0274 53.7597 74.2543 55.0271 73.4939C56.3285 72.7132 57.183 72.0135 57.5541 71.48C57.8695 71.0267 58.4927 70.9148 58.9461 71.2302Z" fill="#B67616"/>
</svg>
